<svg width="546" height="507" viewBox="0 0 546 507" fill="none" xmlns="http://www.w3.org/2000/svg">
<path opacity="0.57" d="M545.304 96.1308C545.306 87.277 542.051 78.732 536.16 72.1227C530.269 65.5134 522.152 61.3017 513.357 60.2894C513.497 59.066 513.574 57.8361 513.587 56.6048C513.597 51.2146 512.251 45.9086 509.675 41.1742C507.098 36.4399 503.373 32.4293 498.841 29.5109C494.309 26.5926 489.116 24.8602 483.74 24.4731C478.364 24.0859 472.977 25.0564 468.074 27.2952C462.471 18.4972 454.162 11.7565 444.399 8.08693C434.635 4.41741 423.944 4.01758 413.933 6.94757C403.922 9.87756 395.134 15.9789 388.889 24.3339C382.645 32.6888 379.283 42.8455 379.308 53.276C379.315 55.5808 379.483 57.8823 379.81 60.1638C370.562 61.056 362.015 65.4801 355.946 72.5154C349.878 79.5506 346.756 88.655 347.231 97.9337C347.706 107.212 351.74 115.951 358.495 122.33C365.249 128.709 374.204 132.238 383.495 132.181H510.907C520.177 131.751 528.925 127.764 535.331 121.05C541.737 114.335 545.309 105.411 545.304 96.1308Z" fill="#E6E6E6"/>
<path opacity="0.57" d="M469.476 159.774V103.689H423.23V159.774H408.764L446.343 194.988L483.922 159.774H469.476Z" fill="#D2D2D2"/>
<path d="M279.049 248.573V305.381" stroke="#080E42" stroke-width="6"/>
<path d="M197.748 441.8L140.939 441.8" stroke="#080E42" stroke-width="6" stroke-linecap="round"/>
<path d="M417.16 441.8L360.351 441.8" stroke="#080E42" stroke-width="6" stroke-linecap="round"/>
<path d="M169.343 302.711V441.8" stroke="#080E42" stroke-width="6"/>
<path d="M388.755 302.711V441.8" stroke="#080E42" stroke-width="6"/>
<path d="M388.755 305.316H169.343" stroke="#080E42" stroke-width="6"/>
<g opacity="0.4">
<g opacity="0.4">
<mask id="path-9-inside-1_114_776" fill="white">
<path d="M272.108 322.846H267.626V325.378H272.108V322.846ZM263.144 322.846H258.662V325.378H263.144V322.846ZM254.18 322.846H249.698V325.378H254.18V322.846ZM245.217 322.846H240.735V325.378H245.217V322.846ZM236.253 322.846H231.771V325.378H236.253V322.846ZM227.289 322.846H222.807V325.378H227.289V322.846ZM218.326 322.846H213.844V325.378H218.326V322.846ZM209.362 322.846H204.88V325.378H209.362V322.846ZM200.398 322.846H195.916V325.378H200.398V322.846ZM191.435 322.846H186.953V325.378H191.435V322.846ZM182.471 322.846H177.989V325.378H182.471V322.846ZM173.507 322.846H169.025V325.378H173.507V322.846ZM164.544 322.846H160.062V325.378H164.544V322.846ZM155.58 322.846H151.098V325.378H155.58V322.846ZM146.616 322.846H142.134V325.378H146.616V322.846ZM137.653 322.846H133.171V325.378H137.653V322.846ZM128.689 322.846H124.207V325.378H128.689V322.846ZM119.725 322.846H115.243V325.378H119.725V322.846ZM110.761 322.846H106.28V325.378H110.761V322.846ZM101.798 322.846H97.316V325.378H101.798V322.846ZM92.8342 322.846H88.3523V325.378H92.8342V322.846ZM83.8705 322.846H79.3886V325.378H83.8705V322.846ZM74.9068 322.846H70.425V325.378H74.9068V322.846ZM65.9431 322.846C65.2123 322.923 64.4953 323.119 63.8143 323.429H63.4781C62.8977 323.732 62.3613 324.134 61.8871 324.619L63.3661 326.518C64.1242 325.735 65.0973 325.27 66.1224 325.201L65.9431 322.669V322.846ZM59.6686 329.076C59.5836 329.5 59.5312 329.932 59.5117 330.367V333.786H61.7526V330.367C61.7184 329.997 61.7184 329.623 61.7526 329.253L59.5117 328.721L59.6686 329.076ZM61.7526 339.204H59.5117V344.269H61.7526V339.204ZM61.7526 349.333H59.5117V354.398H61.7526V349.333ZM61.7526 359.462H59.5117V364.527H61.7526V359.462ZM61.7526 369.591H59.5117V374.656H61.7526V369.591ZM61.7526 379.72H59.5117V384.785H61.7526V379.72ZM61.7526 389.849H59.5117V394.914H61.7526V389.849ZM61.7526 399.978H59.5117V405.043H61.7526V399.978ZM61.7526 410.107H59.5117V415.172H61.7526V410.107ZM61.7526 420.236H59.5117V425.301H61.7526V420.236ZM61.7526 430.365H59.5117V435.43H61.7526V430.365ZM61.7526 440.494H59.5117V445.559H61.7526V440.494ZM61.7526 450.623H59.5117V455.688H61.7526V450.623ZM61.7526 460.752H59.5117V465.817H61.7526V460.752ZM61.7526 470.881H59.5117V475.945H61.7526V470.881ZM62.1336 479.946L60.0719 480.934C60.3943 481.795 60.8495 482.583 61.4165 483.264H62.7162H62.8731L64.016 481.086C63.137 480.5 62.4461 479.613 62.0439 478.554L62.1336 479.946ZM71.7695 483.213H67.3997V485.745H71.8816V483.213H71.7695ZM80.7332 483.213H76.3634V485.745H80.8452V483.213H80.7332ZM89.6969 483.213H85.3271V485.745H89.8089V483.213H89.6969ZM98.6605 483.213H94.2908V485.745H98.7726V483.213H98.6605ZM107.624 483.213H103.254V485.745H107.736V483.213H107.624ZM116.588 483.213H112.106V485.745H116.588V483.213ZM125.552 483.213H121.07V485.745H125.552V483.213ZM134.515 483.213H130.033V485.745H134.515V483.213ZM143.479 483.213H138.997V485.745H143.479V483.213ZM152.443 483.213H147.961V485.745H152.443V483.213ZM161.406 483.213H156.924V485.745H161.406V483.213ZM170.37 483.213H165.888V485.745H170.37V483.213ZM179.334 483.213H174.852V485.745H179.334V483.213ZM188.297 483.213H183.815V485.745H188.297V483.213ZM197.261 483.213H192.779V485.745H197.261V483.213ZM206.225 483.213H201.743V485.745H206.225V483.213ZM215.188 483.213H210.706V485.745H215.188V483.213ZM224.152 483.213H219.67V485.745H224.152V483.213ZM233.116 483.213H228.634V485.745H233.116V483.213ZM242.079 483.213H237.597V485.745H242.079V483.213ZM251.043 483.213H246.561V485.745H251.043V483.213ZM260.007 483.213H255.525V485.745H260.007V483.213ZM268.97 483.213H264.488V485.745H268.97V483.213ZM275.693 481.44C275.004 482.294 274.094 482.879 273.094 483.112L273.519 485.644L274.102 485.492H275.693C276.299 485.064 276.856 484.554 277.351 483.973L275.693 482.251V481.44ZM279.166 473.54H276.926V477.845C276.926 478.022 276.926 478.199 276.926 478.351L279.166 478.604C279.178 478.402 279.178 478.199 279.166 477.997V473.692V473.54ZM279.166 463.411H276.926V468.475H279.166V463.411ZM279.166 453.282H276.926V458.346H279.166V453.282ZM279.166 443.153H276.926V448.217H279.166V443.153ZM279.166 433.024H276.926V438.088H279.166V433.024ZM279.166 422.895H276.926V427.959H279.166V422.895ZM279.166 412.766H276.926V417.831H279.166V412.766ZM279.166 402.637H276.926V407.702H279.166V402.637ZM279.166 392.508H276.926V397.573H279.166V392.508ZM279.166 382.379H276.926V387.444H279.166V382.379ZM279.166 372.25H276.926V377.315H279.166V372.25ZM279.166 362.121H276.926V367.186H279.166V362.121ZM279.166 351.992H276.926V357.057H279.166V351.992ZM279.166 341.863H276.926V346.928H279.166V341.863ZM279.166 331.734H276.926V336.799H279.166V331.734ZM274.998 323.505L274.102 325.809C275.045 326.28 275.83 327.078 276.343 328.088L278.293 326.847C278.008 326.292 277.67 325.774 277.284 325.302H276.858C276.343 324.792 275.761 324.373 275.133 324.062L274.998 323.505Z"/>
</mask>
<path d="M272.108 322.846H267.626V325.378H272.108V322.846ZM263.144 322.846H258.662V325.378H263.144V322.846ZM254.18 322.846H249.698V325.378H254.18V322.846ZM245.217 322.846H240.735V325.378H245.217V322.846ZM236.253 322.846H231.771V325.378H236.253V322.846ZM227.289 322.846H222.807V325.378H227.289V322.846ZM218.326 322.846H213.844V325.378H218.326V322.846ZM209.362 322.846H204.88V325.378H209.362V322.846ZM200.398 322.846H195.916V325.378H200.398V322.846ZM191.435 322.846H186.953V325.378H191.435V322.846ZM182.471 322.846H177.989V325.378H182.471V322.846ZM173.507 322.846H169.025V325.378H173.507V322.846ZM164.544 322.846H160.062V325.378H164.544V322.846ZM155.58 322.846H151.098V325.378H155.58V322.846ZM146.616 322.846H142.134V325.378H146.616V322.846ZM137.653 322.846H133.171V325.378H137.653V322.846ZM128.689 322.846H124.207V325.378H128.689V322.846ZM119.725 322.846H115.243V325.378H119.725V322.846ZM110.761 322.846H106.28V325.378H110.761V322.846ZM101.798 322.846H97.316V325.378H101.798V322.846ZM92.8342 322.846H88.3523V325.378H92.8342V322.846ZM83.8705 322.846H79.3886V325.378H83.8705V322.846ZM74.9068 322.846H70.425V325.378H74.9068V322.846ZM65.9431 322.846C65.2123 322.923 64.4953 323.119 63.8143 323.429H63.4781C62.8977 323.732 62.3613 324.134 61.8871 324.619L63.3661 326.518C64.1242 325.735 65.0973 325.27 66.1224 325.201L65.9431 322.669V322.846ZM59.6686 329.076C59.5836 329.5 59.5312 329.932 59.5117 330.367V333.786H61.7526V330.367C61.7184 329.997 61.7184 329.623 61.7526 329.253L59.5117 328.721L59.6686 329.076ZM61.7526 339.204H59.5117V344.269H61.7526V339.204ZM61.7526 349.333H59.5117V354.398H61.7526V349.333ZM61.7526 359.462H59.5117V364.527H61.7526V359.462ZM61.7526 369.591H59.5117V374.656H61.7526V369.591ZM61.7526 379.72H59.5117V384.785H61.7526V379.72ZM61.7526 389.849H59.5117V394.914H61.7526V389.849ZM61.7526 399.978H59.5117V405.043H61.7526V399.978ZM61.7526 410.107H59.5117V415.172H61.7526V410.107ZM61.7526 420.236H59.5117V425.301H61.7526V420.236ZM61.7526 430.365H59.5117V435.43H61.7526V430.365ZM61.7526 440.494H59.5117V445.559H61.7526V440.494ZM61.7526 450.623H59.5117V455.688H61.7526V450.623ZM61.7526 460.752H59.5117V465.817H61.7526V460.752ZM61.7526 470.881H59.5117V475.945H61.7526V470.881ZM62.1336 479.946L60.0719 480.934C60.3943 481.795 60.8495 482.583 61.4165 483.264H62.7162H62.8731L64.016 481.086C63.137 480.5 62.4461 479.613 62.0439 478.554L62.1336 479.946ZM71.7695 483.213H67.3997V485.745H71.8816V483.213H71.7695ZM80.7332 483.213H76.3634V485.745H80.8452V483.213H80.7332ZM89.6969 483.213H85.3271V485.745H89.8089V483.213H89.6969ZM98.6605 483.213H94.2908V485.745H98.7726V483.213H98.6605ZM107.624 483.213H103.254V485.745H107.736V483.213H107.624ZM116.588 483.213H112.106V485.745H116.588V483.213ZM125.552 483.213H121.07V485.745H125.552V483.213ZM134.515 483.213H130.033V485.745H134.515V483.213ZM143.479 483.213H138.997V485.745H143.479V483.213ZM152.443 483.213H147.961V485.745H152.443V483.213ZM161.406 483.213H156.924V485.745H161.406V483.213ZM170.37 483.213H165.888V485.745H170.37V483.213ZM179.334 483.213H174.852V485.745H179.334V483.213ZM188.297 483.213H183.815V485.745H188.297V483.213ZM197.261 483.213H192.779V485.745H197.261V483.213ZM206.225 483.213H201.743V485.745H206.225V483.213ZM215.188 483.213H210.706V485.745H215.188V483.213ZM224.152 483.213H219.67V485.745H224.152V483.213ZM233.116 483.213H228.634V485.745H233.116V483.213ZM242.079 483.213H237.597V485.745H242.079V483.213ZM251.043 483.213H246.561V485.745H251.043V483.213ZM260.007 483.213H255.525V485.745H260.007V483.213ZM268.97 483.213H264.488V485.745H268.97V483.213ZM275.693 481.44C275.004 482.294 274.094 482.879 273.094 483.112L273.519 485.644L274.102 485.492H275.693C276.299 485.064 276.856 484.554 277.351 483.973L275.693 482.251V481.44ZM279.166 473.54H276.926V477.845C276.926 478.022 276.926 478.199 276.926 478.351L279.166 478.604C279.178 478.402 279.178 478.199 279.166 477.997V473.692V473.54ZM279.166 463.411H276.926V468.475H279.166V463.411ZM279.166 453.282H276.926V458.346H279.166V453.282ZM279.166 443.153H276.926V448.217H279.166V443.153ZM279.166 433.024H276.926V438.088H279.166V433.024ZM279.166 422.895H276.926V427.959H279.166V422.895ZM279.166 412.766H276.926V417.831H279.166V412.766ZM279.166 402.637H276.926V407.702H279.166V402.637ZM279.166 392.508H276.926V397.573H279.166V392.508ZM279.166 382.379H276.926V387.444H279.166V382.379ZM279.166 372.25H276.926V377.315H279.166V372.25ZM279.166 362.121H276.926V367.186H279.166V362.121ZM279.166 351.992H276.926V357.057H279.166V351.992ZM279.166 341.863H276.926V346.928H279.166V341.863ZM279.166 331.734H276.926V336.799H279.166V331.734ZM274.998 323.505L274.102 325.809C275.045 326.28 275.83 327.078 276.343 328.088L278.293 326.847C278.008 326.292 277.67 325.774 277.284 325.302H276.858C276.343 324.792 275.761 324.373 275.133 324.062L274.998 323.505Z" fill="white" stroke="#080E42" stroke-width="2" mask="url(#path-9-inside-1_114_776)"/>
</g>
</g>
<g opacity="0.4">
<g opacity="0.4">
<mask id="path-10-inside-2_114_776" fill="white">
<path d="M452.323 190.646H449.771V192.088H452.323V190.646ZM447.219 190.646H444.667V192.088H447.219V190.646ZM442.115 190.646H439.563V192.088H442.115V190.646ZM437.011 190.646H434.459V192.088H437.011V190.646ZM431.906 190.646H429.354V192.088H431.906V190.646ZM426.802 190.646H424.25V192.088H426.802V190.646ZM421.698 190.646H419.146V192.088H421.698V190.646ZM416.594 190.646H414.042V192.088H416.594V190.646ZM411.49 190.646H408.938V192.088H411.49V190.646ZM406.386 190.646H403.834V192.088H406.386V190.646ZM401.282 190.646H398.73V192.088H401.282V190.646ZM396.178 190.646H393.626V192.088H396.178V190.646ZM391.074 190.646H388.522V192.088H391.074V190.646ZM385.97 190.646H383.418V192.088H385.97V190.646ZM380.866 190.646H378.314V192.088H380.866V190.646ZM375.761 190.646H373.209V192.088H375.761V190.646ZM370.657 190.646H368.105V192.088H370.657V190.646ZM365.553 190.646H363.001V192.088H365.553V190.646ZM360.449 190.646H357.897V192.088H360.449V190.646ZM355.345 190.646H352.793V192.088H355.345V190.646ZM350.241 190.646H347.689V192.088H350.241V190.646ZM345.137 190.646H342.585V192.088H345.137V190.646ZM340.033 190.646H337.481V192.088H340.033V190.646ZM334.929 190.646C334.513 190.689 334.104 190.801 333.717 190.977H333.525C333.195 191.15 332.889 191.379 332.619 191.655L333.461 192.736C333.893 192.291 334.447 192.026 335.031 191.987L334.929 190.545V190.646ZM331.356 194.193C331.308 194.434 331.278 194.681 331.267 194.928V196.875H332.543V194.928C332.523 194.717 332.523 194.505 332.543 194.294L331.267 193.991L331.356 194.193ZM332.543 199.96H331.267V202.844H332.543V199.96ZM332.543 205.728H331.267V208.612H332.543V205.728ZM332.543 211.496H331.267V214.379H332.543V211.496ZM332.543 217.263H331.267V220.147H332.543V217.263ZM332.543 223.031H331.267V225.915H332.543V223.031ZM332.543 228.798H331.267V231.682H332.543V228.798ZM332.543 234.566H331.267V237.45H332.543V234.566ZM332.543 240.334H331.267V243.218H332.543V240.334ZM332.543 246.101H331.267V248.985H332.543V246.101ZM332.543 251.869H331.267V254.753H332.543V251.869ZM332.543 257.637H331.267V260.52H332.543V257.637ZM332.543 263.404H331.267V266.288H332.543V263.404ZM332.543 269.172H331.267V272.056H332.543V269.172ZM332.543 274.939H331.267V277.823H332.543V274.939ZM332.76 280.102L331.586 280.664C331.769 281.154 332.028 281.603 332.351 281.99H333.091H333.181L333.831 280.75C333.331 280.417 332.938 279.912 332.709 279.308L332.76 280.102ZM338.246 281.962H335.758V283.403H338.31V281.962H338.246ZM343.351 281.962H340.862V283.403H343.414V281.962H343.351ZM348.455 281.962H345.966V283.403H348.518V281.962H348.455ZM353.559 281.962H351.07V283.403H353.623V281.962H353.559ZM358.663 281.962H356.175V283.403H358.727V281.962H358.663ZM363.767 281.962H361.215V283.403H363.767V281.962ZM368.871 281.962H366.319V283.403H368.871V281.962ZM373.975 281.962H371.423V283.403H373.975V281.962ZM379.079 281.962H376.527V283.403H379.079V281.962ZM384.183 281.962H381.631V283.403H384.183V281.962ZM389.287 281.962H386.735V283.403H389.287V281.962ZM394.391 281.962H391.839V283.403H394.391V281.962ZM399.495 281.962H396.943V283.403H399.495V281.962ZM404.6 281.962H402.048V283.403H404.6V281.962ZM409.704 281.962H407.152V283.403H409.704V281.962ZM414.808 281.962H412.256V283.403H414.808V281.962ZM419.912 281.962H417.36V283.403H419.912V281.962ZM425.016 281.962H422.464V283.403H425.016V281.962ZM430.12 281.962H427.568V283.403H430.12V281.962ZM435.224 281.962H432.672V283.403H435.224V281.962ZM440.328 281.962H437.776V283.403H440.328V281.962ZM445.432 281.962H442.88V283.403H445.432V281.962ZM450.536 281.962H447.984V283.403H450.536V281.962ZM454.364 280.952C453.972 281.438 453.454 281.771 452.884 281.904L453.127 283.346L453.458 283.259H454.364C454.709 283.016 455.027 282.725 455.309 282.394L454.364 281.414V280.952ZM456.342 276.453H455.066V278.905C455.066 279.006 455.066 279.107 455.066 279.193L456.342 279.337C456.349 279.222 456.349 279.106 456.342 278.991V276.54V276.453ZM456.342 270.686H455.066V273.57H456.342V270.686ZM456.342 264.918H455.066V267.802H456.342V264.918ZM456.342 259.151H455.066V262.034H456.342V259.151ZM456.342 253.383H455.066V256.267H456.342V253.383ZM456.342 247.615H455.066V250.499H456.342V247.615ZM456.342 241.848H455.066V244.732H456.342V241.848ZM456.342 236.08H455.066V238.964H456.342V236.08ZM456.342 230.312H455.066V233.196H456.342V230.312ZM456.342 224.545H455.066V227.429H456.342V224.545ZM456.342 218.777H455.066V221.661H456.342V218.777ZM456.342 213.01H455.066V215.893H456.342V213.01ZM456.342 207.242H455.066V210.126H456.342V207.242ZM456.342 201.474H455.066V204.358H456.342V201.474ZM456.342 195.707H455.066V198.591H456.342V195.707ZM453.969 191.02L453.458 192.333C453.995 192.601 454.442 193.055 454.734 193.63L455.845 192.924C455.683 192.608 455.49 192.313 455.27 192.044H455.028C454.734 191.754 454.403 191.515 454.045 191.338L453.969 191.02Z"/>
</mask>
<path d="M452.323 190.646H449.771V192.088H452.323V190.646ZM447.219 190.646H444.667V192.088H447.219V190.646ZM442.115 190.646H439.563V192.088H442.115V190.646ZM437.011 190.646H434.459V192.088H437.011V190.646ZM431.906 190.646H429.354V192.088H431.906V190.646ZM426.802 190.646H424.25V192.088H426.802V190.646ZM421.698 190.646H419.146V192.088H421.698V190.646ZM416.594 190.646H414.042V192.088H416.594V190.646ZM411.49 190.646H408.938V192.088H411.49V190.646ZM406.386 190.646H403.834V192.088H406.386V190.646ZM401.282 190.646H398.73V192.088H401.282V190.646ZM396.178 190.646H393.626V192.088H396.178V190.646ZM391.074 190.646H388.522V192.088H391.074V190.646ZM385.97 190.646H383.418V192.088H385.97V190.646ZM380.866 190.646H378.314V192.088H380.866V190.646ZM375.761 190.646H373.209V192.088H375.761V190.646ZM370.657 190.646H368.105V192.088H370.657V190.646ZM365.553 190.646H363.001V192.088H365.553V190.646ZM360.449 190.646H357.897V192.088H360.449V190.646ZM355.345 190.646H352.793V192.088H355.345V190.646ZM350.241 190.646H347.689V192.088H350.241V190.646ZM345.137 190.646H342.585V192.088H345.137V190.646ZM340.033 190.646H337.481V192.088H340.033V190.646ZM334.929 190.646C334.513 190.689 334.104 190.801 333.717 190.977H333.525C333.195 191.15 332.889 191.379 332.619 191.655L333.461 192.736C333.893 192.291 334.447 192.026 335.031 191.987L334.929 190.545V190.646ZM331.356 194.193C331.308 194.434 331.278 194.681 331.267 194.928V196.875H332.543V194.928C332.523 194.717 332.523 194.505 332.543 194.294L331.267 193.991L331.356 194.193ZM332.543 199.96H331.267V202.844H332.543V199.96ZM332.543 205.728H331.267V208.612H332.543V205.728ZM332.543 211.496H331.267V214.379H332.543V211.496ZM332.543 217.263H331.267V220.147H332.543V217.263ZM332.543 223.031H331.267V225.915H332.543V223.031ZM332.543 228.798H331.267V231.682H332.543V228.798ZM332.543 234.566H331.267V237.45H332.543V234.566ZM332.543 240.334H331.267V243.218H332.543V240.334ZM332.543 246.101H331.267V248.985H332.543V246.101ZM332.543 251.869H331.267V254.753H332.543V251.869ZM332.543 257.637H331.267V260.52H332.543V257.637ZM332.543 263.404H331.267V266.288H332.543V263.404ZM332.543 269.172H331.267V272.056H332.543V269.172ZM332.543 274.939H331.267V277.823H332.543V274.939ZM332.76 280.102L331.586 280.664C331.769 281.154 332.028 281.603 332.351 281.99H333.091H333.181L333.831 280.75C333.331 280.417 332.938 279.912 332.709 279.308L332.76 280.102ZM338.246 281.962H335.758V283.403H338.31V281.962H338.246ZM343.351 281.962H340.862V283.403H343.414V281.962H343.351ZM348.455 281.962H345.966V283.403H348.518V281.962H348.455ZM353.559 281.962H351.07V283.403H353.623V281.962H353.559ZM358.663 281.962H356.175V283.403H358.727V281.962H358.663ZM363.767 281.962H361.215V283.403H363.767V281.962ZM368.871 281.962H366.319V283.403H368.871V281.962ZM373.975 281.962H371.423V283.403H373.975V281.962ZM379.079 281.962H376.527V283.403H379.079V281.962ZM384.183 281.962H381.631V283.403H384.183V281.962ZM389.287 281.962H386.735V283.403H389.287V281.962ZM394.391 281.962H391.839V283.403H394.391V281.962ZM399.495 281.962H396.943V283.403H399.495V281.962ZM404.6 281.962H402.048V283.403H404.6V281.962ZM409.704 281.962H407.152V283.403H409.704V281.962ZM414.808 281.962H412.256V283.403H414.808V281.962ZM419.912 281.962H417.36V283.403H419.912V281.962ZM425.016 281.962H422.464V283.403H425.016V281.962ZM430.12 281.962H427.568V283.403H430.12V281.962ZM435.224 281.962H432.672V283.403H435.224V281.962ZM440.328 281.962H437.776V283.403H440.328V281.962ZM445.432 281.962H442.88V283.403H445.432V281.962ZM450.536 281.962H447.984V283.403H450.536V281.962ZM454.364 280.952C453.972 281.438 453.454 281.771 452.884 281.904L453.127 283.346L453.458 283.259H454.364C454.709 283.016 455.027 282.725 455.309 282.394L454.364 281.414V280.952ZM456.342 276.453H455.066V278.905C455.066 279.006 455.066 279.107 455.066 279.193L456.342 279.337C456.349 279.222 456.349 279.106 456.342 278.991V276.54V276.453ZM456.342 270.686H455.066V273.57H456.342V270.686ZM456.342 264.918H455.066V267.802H456.342V264.918ZM456.342 259.151H455.066V262.034H456.342V259.151ZM456.342 253.383H455.066V256.267H456.342V253.383ZM456.342 247.615H455.066V250.499H456.342V247.615ZM456.342 241.848H455.066V244.732H456.342V241.848ZM456.342 236.08H455.066V238.964H456.342V236.08ZM456.342 230.312H455.066V233.196H456.342V230.312ZM456.342 224.545H455.066V227.429H456.342V224.545ZM456.342 218.777H455.066V221.661H456.342V218.777ZM456.342 213.01H455.066V215.893H456.342V213.01ZM456.342 207.242H455.066V210.126H456.342V207.242ZM456.342 201.474H455.066V204.358H456.342V201.474ZM456.342 195.707H455.066V198.591H456.342V195.707ZM453.969 191.02L453.458 192.333C453.995 192.601 454.442 193.055 454.734 193.63L455.845 192.924C455.683 192.608 455.49 192.313 455.27 192.044H455.028C454.734 191.754 454.403 191.515 454.045 191.338L453.969 191.02Z" fill="white" stroke="#080E42" stroke-width="2" mask="url(#path-10-inside-2_114_776)"/>
</g>
</g>
<path d="M516.9 377.727H388.755V505.872H516.9V377.727Z" stroke="#5E5E5E" stroke-miterlimit="10"/>
<path d="M388.755 377.727L516.9 505.872" stroke="#5E5E5E" stroke-miterlimit="10"/>
<path d="M516.9 377.727L388.755 505.872" stroke="#5E5E5E" stroke-miterlimit="10"/>
<path d="M30.4069 163.79C13.7544 144.949 5.20023 120.304 6.59925 95.1976C7.99827 70.0916 19.2378 46.5491 37.8805 29.6755C56.5231 12.8019 81.0659 3.95747 106.187 5.06019C131.307 6.16292 154.981 17.1239 172.073 35.5662M145.871 214.866C124.545 222.401 101.467 223.46 79.5407 217.909C57.6146 212.358 37.8201 200.446 22.6483 183.672M99.9171 168.431L105.439 159.919C105.598 159.668 105.828 159.469 106.1 159.347C106.371 159.226 106.673 159.186 106.967 159.234C108.51 159.487 110.066 159.653 111.628 159.73C114.568 159.88 117.515 159.763 120.433 159.379C120.756 159.316 121.092 159.361 121.386 159.508C121.681 159.656 121.919 159.896 122.062 160.193L125.987 167.828C126.368 168.583 126.895 169.254 127.539 169.803C128.182 170.351 128.929 170.765 129.734 171.021C130.54 171.276 131.389 171.369 132.231 171.292C133.073 171.215 133.891 170.971 134.637 170.574L152.674 161.311C153.431 160.932 154.105 160.407 154.656 159.765C155.207 159.122 155.624 158.376 155.883 157.57C156.141 156.765 156.236 155.915 156.162 155.072C156.087 154.229 155.845 153.41 155.449 152.662L151.177 144.364C151.017 144.107 150.94 143.806 150.955 143.504C150.97 143.201 151.077 142.91 151.261 142.67C154.451 138.989 157.059 134.842 158.993 130.373C159.115 130.085 159.323 129.843 159.588 129.678C159.853 129.513 160.162 129.434 160.474 129.451L167.749 129.814C168.581 129.855 169.412 129.732 170.196 129.451C170.979 129.171 171.699 128.738 172.315 128.178C172.931 127.618 173.43 126.942 173.784 126.189C174.138 125.436 174.339 124.62 174.377 123.788L175.389 103.511C175.431 102.682 175.308 101.853 175.029 101.072C174.751 100.29 174.32 99.5714 173.764 98.9561C173.207 98.3408 172.534 97.8412 171.784 97.4858C171.034 97.1304 170.222 96.9262 169.393 96.8849L162.118 96.5217C161.807 96.5034 161.509 96.392 161.263 96.2021C161.016 96.0122 160.833 95.7525 160.736 95.4568C159.035 90.1794 156.438 85.2343 153.059 80.8382C152.867 80.5883 152.756 80.2858 152.74 79.971C152.724 79.6562 152.805 79.3441 152.971 79.0764L155.798 74.6773C156.252 73.9816 156.563 73.2029 156.714 72.3861C156.866 71.5694 156.854 70.7308 156.679 69.9187C156.504 69.1066 156.171 68.3371 155.697 67.6547C155.223 66.9723 154.619 66.3904 153.92 65.9428L136.895 54.9289C136.199 54.4751 135.42 54.1636 134.604 54.0123C133.787 53.8611 132.948 53.8731 132.136 54.0477C131.324 54.2223 130.555 54.556 129.872 55.0296C129.19 55.5032 128.608 56.1073 128.16 56.807L124.98 61.8327C124.807 62.0826 124.565 62.2771 124.284 62.393C124.003 62.5089 123.694 62.5411 123.395 62.4858C121.177 62.0459 118.929 61.7673 116.671 61.6522C113.071 61.4777 109.463 61.7103 105.916 62.3456C105.593 62.4038 105.26 62.356 104.966 62.2094C104.672 62.0628 104.434 61.8251 104.287 61.532L102.205 57.4738C101.824 56.719 101.296 56.0478 100.653 55.4996C100.009 54.9514 99.2627 54.5373 98.457 54.2816C97.6512 54.0258 96.8024 53.9335 95.9605 54.0102C95.1187 54.0869 94.3006 54.3309 93.5543 54.728L75.5173 63.9916C74.0267 64.7565 72.9009 66.082 72.3874 67.6767C71.8738 69.2714 72.0146 71.0048 72.7788 72.4957L75.9056 78.51C76.0519 78.7667 76.1217 79.0598 76.107 79.3548C76.0922 79.6499 75.9936 79.9346 75.8225 80.1754C72.385 84.4867 69.7143 89.3569 67.9275 94.5733C67.8183 94.8852 67.6123 95.1542 67.3395 95.3408C67.0667 95.5274 66.7415 95.6219 66.4111 95.6106L60.5675 95.3189C58.891 95.2352 57.2496 95.819 56.0024 96.9424C54.7551 98.0658 54.0036 99.6375 53.9122 101.314L52.9 121.591C52.816 123.273 53.4035 124.919 54.5332 126.167C55.6629 127.415 57.2422 128.164 58.9238 128.248L67.8645 128.694C68.15 128.706 68.4263 128.799 68.6617 128.961C68.8971 129.123 69.0821 129.348 69.1955 129.61C71.0674 134.069 73.5947 138.223 76.6939 141.935C76.9119 142.183 77.0414 142.497 77.062 142.826C77.0827 143.156 76.9933 143.483 76.8079 143.757L72.4916 150.425C72.0221 151.128 71.6978 151.917 71.5377 152.748C71.3776 153.578 71.3849 154.431 71.5591 155.258C71.7334 156.086 72.0711 156.87 72.5524 157.565C73.0338 158.26 73.6491 158.851 74.3623 159.305L91.3871 170.319C92.7803 171.156 94.4416 171.427 96.0286 171.076C97.6155 170.724 99.0073 169.778 99.9171 168.431ZM89.9914 111.433C90.2286 106.682 91.8698 102.107 94.7073 98.289C97.5449 94.4705 101.451 91.5796 105.932 89.9818C110.413 88.384 115.268 88.1512 119.881 89.3128C124.494 90.4745 128.659 92.9785 131.849 96.5079C135.039 100.037 137.11 104.434 137.801 109.141C138.492 113.847 137.771 118.654 135.73 122.951C133.688 127.248 130.418 130.843 126.333 133.281C122.248 135.719 117.532 136.891 112.781 136.648C106.416 136.323 100.441 133.484 96.1684 128.756C91.8954 124.029 89.6737 117.798 89.9914 111.433Z" stroke="#080E42" stroke-width="0.853728" stroke-miterlimit="10"/>
<path d="M370.777 242.663C370.777 244.222 369.589 246.656 365.067 249.611C360.712 252.456 354.146 255.171 345.674 257.512C328.787 262.178 305.23 265.115 279.049 265.115C252.869 265.115 229.312 262.178 212.425 257.512C203.953 255.171 197.387 252.456 193.032 249.611C188.51 246.656 187.321 244.222 187.321 242.663C187.321 241.104 188.51 238.67 193.032 235.715C197.387 232.87 203.953 230.155 212.425 227.814C229.312 223.148 252.869 220.211 279.049 220.211C305.23 220.211 328.787 223.148 345.674 227.814C354.146 230.155 360.712 232.87 365.067 235.715C369.589 238.67 370.777 241.104 370.777 242.663Z" fill="#080E42" stroke="white" stroke-width="8"/>
<mask id="path-16-inside-3_114_776" fill="white">
<path d="M183.321 103.887H374.777V243.103H183.321V103.887Z"/>
</mask>
<path d="M183.321 103.887H374.777V243.103H183.321V103.887Z" fill="#080E42"/>
<path d="M366.777 103.887V243.103H382.777V103.887H366.777ZM191.321 243.103V103.887H175.321V243.103H191.321Z" fill="white" mask="url(#path-16-inside-3_114_776)"/>
<path d="M370.777 103.887C370.777 105.446 369.589 107.88 365.067 110.834C360.712 113.68 354.146 116.395 345.674 118.736C328.787 123.402 305.23 126.339 279.049 126.339C252.869 126.339 229.312 123.402 212.425 118.736C203.953 116.395 197.387 113.68 193.032 110.834C188.51 107.88 187.321 105.446 187.321 103.887C187.321 102.328 188.51 99.8935 193.032 96.939C197.387 94.0939 203.953 91.3787 212.425 89.0377C229.312 84.3713 252.869 81.4344 279.049 81.4344C305.23 81.4344 328.787 84.3713 345.674 89.0377C354.146 91.3787 360.712 94.0939 365.067 96.939C369.589 99.8935 370.777 102.328 370.777 103.887Z" fill="#080E42" stroke="white" stroke-width="8"/>
<path d="M370.808 148.876C370.808 163.053 329.726 174.546 279.049 174.546C228.372 174.546 187.291 163.053 187.291 148.876" stroke="white" stroke-width="8"/>
<path d="M370.808 190.911C370.808 205.088 329.726 216.581 279.049 216.581C228.372 216.581 187.291 205.088 187.291 190.911" stroke="white" stroke-width="8"/>
<rect x="112.854" y="342.581" width="112.978" height="76.9951" rx="10" fill="#E6E6E6" stroke="#080E42" stroke-width="2"/>
<rect x="332.267" y="342.581" width="112.978" height="76.9951" rx="10" fill="#E6E6E6" stroke="#080E42" stroke-width="2"/>
</svg>
