<svg width="624" height="473" viewBox="0 0 624 473" fill="none" xmlns="http://www.w3.org/2000/svg">
<path d="M543.236 54.9316H457.291V140.876H543.236V54.9316Z" stroke="#5E5E5E" stroke-width="0.811639" stroke-miterlimit="10"/>
<path d="M457.291 54.9316L543.236 140.876" stroke="#5E5E5E" stroke-width="0.811639" stroke-miterlimit="10"/>
<path d="M543.236 54.9316L457.291 140.876" stroke="#5E5E5E" stroke-width="0.811639" stroke-miterlimit="10"/>
<path d="M608.257 326.464L594.106 330.946C593.642 331.095 593.193 331.285 592.762 331.512C588.558 324.272 583.114 317.83 576.677 312.479C576.971 312.088 577.239 311.678 577.479 311.252L584.271 297.997C585.287 296.014 585.475 293.708 584.794 291.586C584.114 289.464 582.619 287.699 580.639 286.676L567.384 279.884C566.404 279.359 565.329 279.035 564.223 278.929C563.116 278.823 561.999 278.938 560.937 279.267C559.875 279.596 558.889 280.133 558.036 280.846C557.183 281.559 556.481 282.435 555.969 283.422L549.153 296.677C548.938 297.118 548.756 297.575 548.61 298.044C540.728 295.986 532.552 295.292 524.436 295.993C524.39 295.503 524.287 295.02 524.129 294.554L519.648 280.403C518.976 278.278 517.489 276.507 515.512 275.477C513.536 274.447 511.232 274.242 509.106 274.908L494.955 279.412C492.834 280.09 491.068 281.579 490.043 283.554C489.018 285.53 488.816 287.831 489.483 289.955L493.964 304.106C494.124 304.565 494.313 305.014 494.53 305.45C487.298 309.654 480.863 315.099 475.52 321.535C475.122 321.241 474.704 320.973 474.27 320.733L461.016 313.941C459.047 312.93 456.759 312.735 454.648 313.398C453.601 313.735 452.63 314.274 451.793 314.987C450.955 315.699 450.266 316.57 449.766 317.549L442.95 330.804C441.943 332.788 441.762 335.09 442.447 337.207C443.132 339.324 444.627 341.083 446.605 342.101L459.836 348.917C460.28 349.129 460.737 349.31 461.204 349.46C459.146 357.342 458.452 365.518 459.152 373.634C458.67 373.68 458.195 373.783 457.737 373.941L443.586 378.422C442.535 378.755 441.559 379.291 440.715 380.001C439.87 380.711 439.174 381.581 438.666 382.56C438.158 383.539 437.848 384.608 437.753 385.707C437.658 386.806 437.781 387.913 438.115 388.965L442.596 403.116C443.273 405.236 444.762 407.002 446.738 408.027C448.713 409.053 451.015 409.254 453.138 408.587L467.289 404.106C467.753 403.956 468.203 403.767 468.634 403.54C472.845 410.78 478.298 417.223 484.742 422.573C484.427 422.949 484.157 423.36 483.94 423.8L477.124 437.055C476.109 439.035 475.922 441.337 476.603 443.455C477.284 445.573 478.778 447.334 480.756 448.352L494.011 455.168C495.997 456.171 498.298 456.353 500.416 455.673C502.535 454.993 504.301 453.507 505.332 451.536L512.124 438.281C512.346 437.842 512.527 437.384 512.667 436.913C520.549 438.971 528.725 439.665 536.842 438.965C536.91 439.443 537.012 439.916 537.148 440.38L541.629 454.531C541.962 455.583 542.499 456.559 543.209 457.403C543.918 458.247 544.788 458.943 545.767 459.451C546.746 459.959 547.815 460.27 548.914 460.364C550.013 460.459 551.12 460.336 552.172 460.003L566.323 455.522C567.376 455.192 568.354 454.657 569.2 453.947C570.046 453.238 570.743 452.368 571.252 451.389C571.76 450.409 572.07 449.338 572.163 448.238C572.256 447.138 572.131 446.031 571.795 444.979L567.313 430.828C567.163 430.365 566.974 429.915 566.747 429.484C573.988 425.272 580.43 419.82 585.78 413.375C586.16 413.696 586.58 413.966 587.03 414.177L600.262 420.993C602.247 421.997 604.548 422.178 606.667 421.498C608.785 420.819 610.551 419.332 611.582 417.361L618.375 404.106C619.391 402.123 619.579 399.817 618.898 397.695C618.218 395.573 616.723 393.808 614.743 392.785L601.488 385.993C601.051 385.768 600.593 385.586 600.12 385.451C602.178 377.568 602.872 369.392 602.172 361.276C602.658 361.208 603.139 361.105 603.611 360.969L617.762 356.488C619.886 355.816 621.658 354.329 622.688 352.352C623.718 350.376 623.923 348.072 623.257 345.946L618.752 331.795C618.051 329.708 616.558 327.979 614.595 326.982C612.632 325.985 610.356 325.799 608.257 326.464ZM542.573 405.238C535.133 407.594 527.161 407.69 519.667 405.515C512.172 403.34 505.49 398.992 500.467 393.02C495.444 387.047 492.304 379.72 491.445 371.963C490.586 364.207 492.047 356.37 495.642 349.443C499.237 342.517 504.806 336.812 511.643 333.05C518.48 329.288 526.28 327.638 534.055 328.309C541.83 328.98 549.231 331.941 555.324 336.818C561.416 341.696 565.925 348.27 568.28 355.71C571.398 365.674 570.443 376.468 565.626 385.731C560.809 394.994 552.521 401.974 542.573 405.144V405.238Z" fill="#EDEDED"/>
<g opacity="0.4">
<g opacity="0.4">
<mask id="path-5-inside-1_119_407" fill="white">
<path d="M201.126 455.405L201.126 452.028L198.784 452.028L198.784 455.405L201.126 455.405ZM201.126 448.651L201.126 445.275L198.784 445.275L198.784 448.651L201.126 448.651ZM201.126 441.898L201.126 438.522L198.784 438.522L198.784 441.898L201.126 441.898ZM201.126 435.145L201.126 431.768L198.784 431.768L198.784 435.145L201.126 435.145ZM201.126 428.392L201.126 425.015L198.784 425.015L198.784 428.392L201.126 428.392ZM201.126 421.638L201.126 418.262L198.784 418.262L198.784 421.638L201.126 421.638ZM201.126 414.885L201.126 411.508L198.784 411.508L198.784 414.885L201.126 414.885ZM201.126 408.132L201.126 404.755L198.784 404.755L198.784 408.132L201.126 408.132ZM201.126 401.378L201.126 398.002L198.784 398.002L198.784 401.378L201.126 401.378ZM201.126 394.625L201.126 391.249L198.784 391.249L198.784 394.625L201.126 394.625ZM201.126 387.872L201.126 384.495L198.784 384.495L198.784 387.872L201.126 387.872ZM201.126 381.119L201.126 377.742L198.784 377.742L198.784 381.119L201.126 381.119ZM201.126 374.365L201.126 370.989L198.784 370.989L198.784 374.365L201.126 374.365ZM201.126 367.612L201.126 364.235L198.784 364.235L198.784 367.612L201.126 367.612ZM201.126 360.859L201.126 357.482L198.784 357.482L198.784 360.859L201.126 360.859ZM201.126 354.105L201.126 350.729L198.784 350.729L198.784 354.105L201.126 354.105ZM201.126 347.352L201.126 343.975L198.784 343.975L198.784 347.352L201.126 347.352ZM201.126 340.599L201.126 337.222L198.784 337.222L198.784 340.599L201.126 340.599ZM201.126 333.846L201.126 330.469L198.784 330.469L198.784 333.846L201.126 333.846ZM201.126 327.092L201.126 323.716L198.784 323.716L198.784 327.092L201.126 327.092ZM201.126 320.339L201.126 316.962L198.784 316.962L198.784 320.339L201.126 320.339ZM201.126 313.586L201.126 310.209L198.784 310.209L198.784 313.586L201.126 313.586ZM201.126 306.832L201.126 303.456L198.784 303.456L198.784 306.832L201.126 306.832ZM201.126 300.079C201.055 299.529 200.873 298.988 200.587 298.475L200.587 298.222C200.306 297.785 199.935 297.381 199.487 297.023L197.731 298.138C198.454 298.709 198.884 299.442 198.948 300.214L201.29 300.079L201.126 300.079ZM195.366 295.352C194.973 295.288 194.574 295.248 194.172 295.234L191.011 295.234L191.011 296.922L194.172 296.922C194.514 296.896 194.859 296.896 195.202 296.922L195.693 295.234L195.366 295.352ZM186 296.922L186 295.234L181.317 295.234L181.317 296.922L186 296.922ZM176.634 296.922L176.634 295.234L171.951 295.234L171.951 296.922L176.634 296.922ZM167.269 296.922L167.269 295.234L162.586 295.234L162.586 296.922L167.269 296.922ZM157.903 296.922L157.903 295.234L153.22 295.234L153.22 296.922L157.903 296.922ZM148.537 296.922L148.537 295.234L143.854 295.234L143.854 296.922L148.537 296.922ZM139.171 296.922L139.171 295.234L134.488 295.234L134.488 296.922L139.171 296.922ZM129.806 296.922L129.806 295.234L125.123 295.234L125.123 296.922L129.806 296.922ZM120.44 296.922L120.44 295.234L115.757 295.234L115.757 296.922L120.44 296.922ZM111.074 296.922L111.074 295.234L106.391 295.234L106.391 296.922L111.074 296.922ZM101.708 296.922L101.708 295.234L97.0255 295.234L97.0255 296.922L101.708 296.922ZM92.3426 296.922L92.3426 295.234L87.6598 295.234L87.6598 296.922L92.3426 296.922ZM82.9769 296.922L82.9769 295.234L78.294 295.234L78.294 296.922L82.9769 296.922ZM73.6111 296.922L73.6111 295.234L68.9283 295.234L68.9283 296.922L73.6111 296.922ZM64.2454 296.922L64.2454 295.234L59.5625 295.234L59.5625 296.922L64.2454 296.922ZM55.863 297.209L54.9499 295.656C54.1542 295.899 53.4248 296.242 52.7958 296.669L52.7958 297.648L52.7958 297.766L54.8094 298.627C55.3508 297.965 56.1711 297.444 57.1509 297.141L55.863 297.209ZM52.8426 304.469L52.8426 301.177L50.5012 301.177L50.5012 304.553L52.8426 304.553L52.8426 304.469ZM52.8426 311.222L52.8426 307.93L50.5012 307.93L50.5012 311.306L52.8426 311.306L52.8426 311.222ZM52.8426 317.975L52.8426 314.683L50.5012 314.683L50.5012 318.06L52.8426 318.06L52.8426 317.975ZM52.8426 324.729L52.8426 321.436L50.5012 321.436L50.5012 324.813L52.8426 324.813L52.8426 324.729ZM52.8426 331.482L52.8426 328.19L50.5012 328.19L50.5012 331.566L52.8426 331.566L52.8426 331.482ZM52.8426 338.235L52.8426 334.859L50.5012 334.859L50.5012 338.235L52.8426 338.235ZM52.8426 344.988L52.8426 341.612L50.5012 341.612L50.5012 344.988L52.8426 344.988ZM52.8426 351.742L52.8426 348.365L50.5012 348.365L50.5012 351.742L52.8426 351.742ZM52.8426 358.495L52.8426 355.118L50.5012 355.118L50.5012 358.495L52.8426 358.495ZM52.8426 365.248L52.8426 361.872L50.5012 361.872L50.5012 365.248L52.8426 365.248ZM52.8426 372.002L52.8426 368.625L50.5012 368.625L50.5012 372.002L52.8426 372.002ZM52.8426 378.755L52.8426 375.378L50.5012 375.378L50.5012 378.755L52.8426 378.755ZM52.8426 385.508L52.8426 382.132L50.5012 382.132L50.5012 385.508L52.8426 385.508ZM52.8426 392.261L52.8426 388.885L50.5012 388.885L50.5012 392.261L52.8426 392.261ZM52.8426 399.015L52.8426 395.638L50.5012 395.638L50.5012 399.015L52.8426 399.015ZM52.8426 405.768L52.8426 402.391L50.5012 402.391L50.5012 405.768L52.8426 405.768ZM52.8426 412.521L52.8426 409.145L50.5012 409.145L50.5012 412.521L52.8426 412.521ZM52.8426 419.275L52.8426 415.898L50.5012 415.898L50.5012 419.275L52.8426 419.275ZM52.8426 426.028L52.8426 422.651L50.5012 422.651L50.5012 426.028L52.8426 426.028ZM52.8426 432.781L52.8426 429.405L50.5012 429.405L50.5012 432.781L52.8426 432.781ZM52.8426 439.535L52.8426 436.158L50.5012 436.158L50.5012 439.535L52.8426 439.535ZM52.8426 446.288L52.8426 442.911L50.5012 442.911L50.5012 446.288L52.8426 446.288ZM52.8426 453.041L52.8426 449.664L50.5012 449.664L50.5012 453.041L52.8426 453.041ZM54.4816 458.106C53.6927 457.587 53.1517 456.902 52.9362 456.148L50.5948 456.468L50.7353 456.907L50.7353 458.106C51.1309 458.562 51.6026 458.982 52.1402 459.355L53.7324 458.106L54.4816 458.106ZM61.7869 460.723L61.7869 459.035L57.8065 459.035C57.6426 459.035 57.4786 459.035 57.3381 459.035L57.1041 460.723C57.2912 460.731 57.4788 460.731 57.666 460.723L61.6464 460.723L61.7869 460.723ZM71.1527 460.723L71.1527 459.035L66.4698 459.035L66.4698 460.723L71.1527 460.723ZM80.5184 460.723L80.5184 459.035L75.8355 459.035L75.8355 460.723L80.5184 460.723ZM89.8841 460.723L89.8841 459.035L85.2013 459.035L85.2013 460.723L89.8841 460.723ZM99.2499 460.723L99.2499 459.035L94.567 459.035L94.567 460.723L99.2499 460.723ZM108.616 460.723L108.616 459.035L103.933 459.035L103.933 460.723L108.616 460.723ZM117.981 460.723L117.981 459.035L113.298 459.035L113.298 460.723L117.981 460.723ZM127.347 460.723L127.347 459.035L122.664 459.035L122.664 460.723L127.347 460.723ZM136.713 460.723L136.713 459.035L132.03 459.035L132.03 460.723L136.713 460.723ZM146.079 460.723L146.079 459.035L141.396 459.035L141.396 460.723L146.079 460.723ZM155.444 460.723L155.444 459.035L150.761 459.035L150.761 460.723L155.444 460.723ZM164.81 460.723L164.81 459.035L160.127 459.035L160.127 460.723L164.81 460.723ZM174.176 460.723L174.176 459.035L169.493 459.035L169.493 460.723L174.176 460.723ZM183.542 460.723L183.542 459.035L178.859 459.035L178.859 460.723L183.542 460.723ZM192.907 460.723L192.907 459.035L188.224 459.035L188.224 460.723L192.907 460.723ZM200.517 457.583L198.386 456.907C197.951 457.618 197.213 458.209 196.279 458.596L197.426 460.065C197.94 459.85 198.419 459.595 198.854 459.305L198.854 458.984C199.327 458.595 199.714 458.157 200.002 457.684L200.517 457.583Z"/>
</mask>
<path d="M201.126 455.405L201.126 452.028L198.784 452.028L198.784 455.405L201.126 455.405ZM201.126 448.651L201.126 445.275L198.784 445.275L198.784 448.651L201.126 448.651ZM201.126 441.898L201.126 438.522L198.784 438.522L198.784 441.898L201.126 441.898ZM201.126 435.145L201.126 431.768L198.784 431.768L198.784 435.145L201.126 435.145ZM201.126 428.392L201.126 425.015L198.784 425.015L198.784 428.392L201.126 428.392ZM201.126 421.638L201.126 418.262L198.784 418.262L198.784 421.638L201.126 421.638ZM201.126 414.885L201.126 411.508L198.784 411.508L198.784 414.885L201.126 414.885ZM201.126 408.132L201.126 404.755L198.784 404.755L198.784 408.132L201.126 408.132ZM201.126 401.378L201.126 398.002L198.784 398.002L198.784 401.378L201.126 401.378ZM201.126 394.625L201.126 391.249L198.784 391.249L198.784 394.625L201.126 394.625ZM201.126 387.872L201.126 384.495L198.784 384.495L198.784 387.872L201.126 387.872ZM201.126 381.119L201.126 377.742L198.784 377.742L198.784 381.119L201.126 381.119ZM201.126 374.365L201.126 370.989L198.784 370.989L198.784 374.365L201.126 374.365ZM201.126 367.612L201.126 364.235L198.784 364.235L198.784 367.612L201.126 367.612ZM201.126 360.859L201.126 357.482L198.784 357.482L198.784 360.859L201.126 360.859ZM201.126 354.105L201.126 350.729L198.784 350.729L198.784 354.105L201.126 354.105ZM201.126 347.352L201.126 343.975L198.784 343.975L198.784 347.352L201.126 347.352ZM201.126 340.599L201.126 337.222L198.784 337.222L198.784 340.599L201.126 340.599ZM201.126 333.846L201.126 330.469L198.784 330.469L198.784 333.846L201.126 333.846ZM201.126 327.092L201.126 323.716L198.784 323.716L198.784 327.092L201.126 327.092ZM201.126 320.339L201.126 316.962L198.784 316.962L198.784 320.339L201.126 320.339ZM201.126 313.586L201.126 310.209L198.784 310.209L198.784 313.586L201.126 313.586ZM201.126 306.832L201.126 303.456L198.784 303.456L198.784 306.832L201.126 306.832ZM201.126 300.079C201.055 299.529 200.873 298.988 200.587 298.475L200.587 298.222C200.306 297.785 199.935 297.381 199.487 297.023L197.731 298.138C198.454 298.709 198.884 299.442 198.948 300.214L201.29 300.079L201.126 300.079ZM195.366 295.352C194.973 295.288 194.574 295.248 194.172 295.234L191.011 295.234L191.011 296.922L194.172 296.922C194.514 296.896 194.859 296.896 195.202 296.922L195.693 295.234L195.366 295.352ZM186 296.922L186 295.234L181.317 295.234L181.317 296.922L186 296.922ZM176.634 296.922L176.634 295.234L171.951 295.234L171.951 296.922L176.634 296.922ZM167.269 296.922L167.269 295.234L162.586 295.234L162.586 296.922L167.269 296.922ZM157.903 296.922L157.903 295.234L153.22 295.234L153.22 296.922L157.903 296.922ZM148.537 296.922L148.537 295.234L143.854 295.234L143.854 296.922L148.537 296.922ZM139.171 296.922L139.171 295.234L134.488 295.234L134.488 296.922L139.171 296.922ZM129.806 296.922L129.806 295.234L125.123 295.234L125.123 296.922L129.806 296.922ZM120.44 296.922L120.44 295.234L115.757 295.234L115.757 296.922L120.44 296.922ZM111.074 296.922L111.074 295.234L106.391 295.234L106.391 296.922L111.074 296.922ZM101.708 296.922L101.708 295.234L97.0255 295.234L97.0255 296.922L101.708 296.922ZM92.3426 296.922L92.3426 295.234L87.6598 295.234L87.6598 296.922L92.3426 296.922ZM82.9769 296.922L82.9769 295.234L78.294 295.234L78.294 296.922L82.9769 296.922ZM73.6111 296.922L73.6111 295.234L68.9283 295.234L68.9283 296.922L73.6111 296.922ZM64.2454 296.922L64.2454 295.234L59.5625 295.234L59.5625 296.922L64.2454 296.922ZM55.863 297.209L54.9499 295.656C54.1542 295.899 53.4248 296.242 52.7958 296.669L52.7958 297.648L52.7958 297.766L54.8094 298.627C55.3508 297.965 56.1711 297.444 57.1509 297.141L55.863 297.209ZM52.8426 304.469L52.8426 301.177L50.5012 301.177L50.5012 304.553L52.8426 304.553L52.8426 304.469ZM52.8426 311.222L52.8426 307.93L50.5012 307.93L50.5012 311.306L52.8426 311.306L52.8426 311.222ZM52.8426 317.975L52.8426 314.683L50.5012 314.683L50.5012 318.06L52.8426 318.06L52.8426 317.975ZM52.8426 324.729L52.8426 321.436L50.5012 321.436L50.5012 324.813L52.8426 324.813L52.8426 324.729ZM52.8426 331.482L52.8426 328.19L50.5012 328.19L50.5012 331.566L52.8426 331.566L52.8426 331.482ZM52.8426 338.235L52.8426 334.859L50.5012 334.859L50.5012 338.235L52.8426 338.235ZM52.8426 344.988L52.8426 341.612L50.5012 341.612L50.5012 344.988L52.8426 344.988ZM52.8426 351.742L52.8426 348.365L50.5012 348.365L50.5012 351.742L52.8426 351.742ZM52.8426 358.495L52.8426 355.118L50.5012 355.118L50.5012 358.495L52.8426 358.495ZM52.8426 365.248L52.8426 361.872L50.5012 361.872L50.5012 365.248L52.8426 365.248ZM52.8426 372.002L52.8426 368.625L50.5012 368.625L50.5012 372.002L52.8426 372.002ZM52.8426 378.755L52.8426 375.378L50.5012 375.378L50.5012 378.755L52.8426 378.755ZM52.8426 385.508L52.8426 382.132L50.5012 382.132L50.5012 385.508L52.8426 385.508ZM52.8426 392.261L52.8426 388.885L50.5012 388.885L50.5012 392.261L52.8426 392.261ZM52.8426 399.015L52.8426 395.638L50.5012 395.638L50.5012 399.015L52.8426 399.015ZM52.8426 405.768L52.8426 402.391L50.5012 402.391L50.5012 405.768L52.8426 405.768ZM52.8426 412.521L52.8426 409.145L50.5012 409.145L50.5012 412.521L52.8426 412.521ZM52.8426 419.275L52.8426 415.898L50.5012 415.898L50.5012 419.275L52.8426 419.275ZM52.8426 426.028L52.8426 422.651L50.5012 422.651L50.5012 426.028L52.8426 426.028ZM52.8426 432.781L52.8426 429.405L50.5012 429.405L50.5012 432.781L52.8426 432.781ZM52.8426 439.535L52.8426 436.158L50.5012 436.158L50.5012 439.535L52.8426 439.535ZM52.8426 446.288L52.8426 442.911L50.5012 442.911L50.5012 446.288L52.8426 446.288ZM52.8426 453.041L52.8426 449.664L50.5012 449.664L50.5012 453.041L52.8426 453.041ZM54.4816 458.106C53.6927 457.587 53.1517 456.902 52.9362 456.148L50.5948 456.468L50.7353 456.907L50.7353 458.106C51.1309 458.562 51.6026 458.982 52.1402 459.355L53.7324 458.106L54.4816 458.106ZM61.7869 460.723L61.7869 459.035L57.8065 459.035C57.6426 459.035 57.4786 459.035 57.3381 459.035L57.1041 460.723C57.2912 460.731 57.4788 460.731 57.666 460.723L61.6464 460.723L61.7869 460.723ZM71.1527 460.723L71.1527 459.035L66.4698 459.035L66.4698 460.723L71.1527 460.723ZM80.5184 460.723L80.5184 459.035L75.8355 459.035L75.8355 460.723L80.5184 460.723ZM89.8841 460.723L89.8841 459.035L85.2013 459.035L85.2013 460.723L89.8841 460.723ZM99.2499 460.723L99.2499 459.035L94.567 459.035L94.567 460.723L99.2499 460.723ZM108.616 460.723L108.616 459.035L103.933 459.035L103.933 460.723L108.616 460.723ZM117.981 460.723L117.981 459.035L113.298 459.035L113.298 460.723L117.981 460.723ZM127.347 460.723L127.347 459.035L122.664 459.035L122.664 460.723L127.347 460.723ZM136.713 460.723L136.713 459.035L132.03 459.035L132.03 460.723L136.713 460.723ZM146.079 460.723L146.079 459.035L141.396 459.035L141.396 460.723L146.079 460.723ZM155.444 460.723L155.444 459.035L150.761 459.035L150.761 460.723L155.444 460.723ZM164.81 460.723L164.81 459.035L160.127 459.035L160.127 460.723L164.81 460.723ZM174.176 460.723L174.176 459.035L169.493 459.035L169.493 460.723L174.176 460.723ZM183.542 460.723L183.542 459.035L178.859 459.035L178.859 460.723L183.542 460.723ZM192.907 460.723L192.907 459.035L188.224 459.035L188.224 460.723L192.907 460.723ZM200.517 457.583L198.386 456.907C197.951 457.618 197.213 458.209 196.279 458.596L197.426 460.065C197.94 459.85 198.419 459.595 198.854 459.305L198.854 458.984C199.327 458.595 199.714 458.157 200.002 457.684L200.517 457.583Z" fill="white" stroke="#080E42" stroke-width="1.62328" mask="url(#path-5-inside-1_119_407)"/>
</g>
</g>
<path d="M39.0434 102.71C37.2316 84.9727 42.4848 67.2365 53.6639 53.3471C64.8429 39.4578 81.0466 30.5351 98.761 28.5141C116.475 26.4931 134.272 31.5367 148.293 42.5511C162.313 53.5655 171.426 69.6628 173.656 87.3522M84.4765 179.848C69.0744 175.379 55.3382 166.454 44.9966 154.196C34.6551 141.939 28.1701 126.896 26.358 110.961M77.1811 134.103L83.8796 131.48C84.0754 131.401 84.2901 131.381 84.4969 131.423C84.7038 131.466 84.8937 131.567 85.0432 131.716C85.8279 132.5 86.6564 133.238 87.5245 133.928C89.1565 135.229 90.9033 136.379 92.7435 137.364C92.9559 137.461 93.1302 137.626 93.2392 137.832C93.3482 138.039 93.3857 138.275 93.3461 138.506L92.4528 144.527C92.3603 145.119 92.387 145.724 92.5313 146.306C92.6757 146.888 92.9348 147.435 93.2934 147.915C93.6521 148.395 94.1031 148.799 94.6199 149.103C95.1367 149.407 95.7089 149.604 96.3031 149.683L110.524 151.797C111.117 151.892 111.722 151.868 112.305 151.726C112.888 151.583 113.437 151.325 113.919 150.968C114.4 150.61 114.806 150.16 115.111 149.644C115.417 149.127 115.616 148.555 115.697 147.96L116.663 141.414C116.677 141.199 116.757 140.994 116.891 140.826C117.024 140.658 117.206 140.534 117.412 140.472C120.771 139.669 123.987 138.357 126.948 136.58C127.137 136.465 127.357 136.411 127.578 136.426C127.799 136.44 128.01 136.522 128.182 136.661L132.225 139.876C132.687 140.243 133.217 140.516 133.784 140.678C134.351 140.84 134.945 140.888 135.532 140.82C136.118 140.752 136.685 140.568 137.2 140.281C137.715 139.993 138.168 139.606 138.533 139.142L147.495 127.875C147.861 127.415 148.133 126.887 148.295 126.321C148.457 125.756 148.506 125.164 148.44 124.579C148.373 123.994 148.192 123.429 147.907 122.914C147.621 122.399 147.237 121.946 146.777 121.58L142.735 118.365C142.563 118.226 142.438 118.038 142.374 117.827C142.31 117.616 142.312 117.39 142.378 117.18C143.578 113.436 144.125 109.514 143.994 105.584C143.987 105.361 144.048 105.141 144.169 104.953C144.29 104.765 144.465 104.618 144.672 104.533L148.118 103.166C148.667 102.952 149.168 102.632 149.593 102.224C150.017 101.816 150.357 101.328 150.592 100.787C150.827 100.247 150.952 99.666 150.961 99.0771C150.97 98.4882 150.863 97.9033 150.644 97.3563L145.384 83.9755C145.171 83.4266 144.851 82.9253 144.443 82.5007C144.035 82.0761 143.546 81.7365 143.006 81.5016C142.466 81.2667 141.885 81.1411 141.296 81.132C140.707 81.123 140.122 81.2307 139.575 81.449L135.666 83.0312C135.463 83.1036 135.243 83.1158 135.034 83.0664C134.824 83.017 134.633 82.9081 134.483 82.7527C133.386 81.5826 132.206 80.4935 130.952 79.494C128.95 77.9061 126.775 76.5495 124.468 75.4499C124.258 75.35 124.086 75.1849 123.977 74.9791C123.869 74.7733 123.83 74.5379 123.866 74.308L124.343 71.1092C124.435 70.517 124.408 69.9123 124.264 69.3305C124.12 68.7487 123.861 68.2016 123.502 67.7214C123.143 67.2411 122.692 66.8372 122.176 66.5336C121.659 66.2299 121.086 66.0325 120.492 65.953L106.271 63.839C105.096 63.6639 103.9 63.9625 102.945 64.6693C101.99 65.3761 101.355 66.4331 101.179 67.608L100.496 72.3657C100.475 72.574 100.394 72.7718 100.263 72.9357C100.133 73.0996 99.9585 73.2229 99.7605 73.291C95.9983 74.3551 92.4472 76.0582 89.2623 78.3259C89.0705 78.4605 88.8407 78.5304 88.6064 78.5252C88.3721 78.52 88.1456 78.4401 87.9599 78.2972L84.713 75.7147C83.7815 74.9738 82.5945 74.632 81.4116 74.7641C80.2287 74.8961 79.1463 75.4913 78.4011 76.4194L69.44 87.6861C68.6968 88.6204 68.3553 89.8116 68.4904 90.9978C68.6256 92.1839 69.2265 93.2678 70.1608 94.0109L75.1285 97.9621C75.288 98.0871 75.409 98.2545 75.4777 98.4451C75.5465 98.6357 75.5601 98.8418 75.5171 99.0398C74.7536 102.383 74.4936 105.821 74.7458 109.24C74.7689 109.473 74.714 109.707 74.5897 109.906C74.4654 110.104 74.2786 110.256 74.0589 110.337L68.8166 112.396C68.2556 112.607 67.7425 112.928 67.3072 113.34C66.872 113.753 66.5235 114.248 66.2822 114.796C66.0408 115.345 65.9115 115.936 65.9017 116.536C65.892 117.135 66.002 117.73 66.2254 118.286L71.4855 131.667C71.9425 132.725 72.7879 133.568 73.8476 134.021C74.9072 134.474 76.1003 134.504 77.1811 134.103ZM95.0108 97.1574C97.1106 94.5174 99.9462 92.5595 103.159 91.5315C106.372 90.5035 109.817 90.4515 113.06 91.3822C116.302 92.3128 119.195 94.1843 121.374 96.7597C123.552 99.3352 124.918 102.499 125.298 105.851C125.678 109.203 125.055 112.592 123.508 115.589C121.962 118.587 119.561 121.059 116.609 122.692C113.657 124.325 110.287 125.045 106.926 124.762C103.565 124.48 100.363 123.206 97.7253 121.103C94.1923 118.286 91.922 114.182 91.413 109.692C90.904 105.202 92.198 100.694 95.0108 97.1574Z" stroke="#080E42" stroke-width="0.808345" stroke-miterlimit="10"/>
<rect x="328.745" y="219.808" width="100.301" height="34.2153" rx="3" fill="#EDEDED" stroke="#080E42" stroke-width="2"/>
<rect x="457.291" y="219.215" width="100.301" height="34.2153" rx="3" fill="#EDEDED" stroke="#080E42" stroke-width="2"/>
<g filter="url(#filter0_d_119_407)">
<rect x="303.273" y="98.7224" width="74.1084" height="74.1084" rx="2" transform="rotate(45 303.273 98.7224)" fill="#080E42"/>
</g>
<rect x="75.7446" y="394.808" width="100.301" height="34.2153" rx="3" fill="#EDEDED" stroke="#080E42" stroke-width="2"/>
<rect x="77.1494" y="316.808" width="100.301" height="34.2153" rx="3" fill="#EDEDED" stroke="#080E42" stroke-width="2"/>
<g filter="url(#filter1_d_119_407)">
<rect x="377.491" y="278.686" width="60.4914" height="60.4914" rx="30.2457" transform="rotate(45 377.491 278.686)" fill="#080E42"/>
<rect x="123.4" y="208.8" width="60.4914" height="60.4914" rx="30.2457" transform="rotate(45 123.4 208.8)" fill="#080E42"/>
</g>
<rect x="329.745" y="372.808" width="100.301" height="34.2153" rx="3" fill="#EDEDED" stroke="#080E42" stroke-width="2"/>
<rect x="329.745" y="436.808" width="100.301" height="34.2153" rx="3" fill="#EDEDED" stroke="#080E42" stroke-width="2"/>
<defs>
<filter id="filter0_d_119_407" x="245.24" y="91.8" width="134.151" height="134.151" filterUnits="userSpaceOnUse" color-interpolation-filters="sRGB">
<feFlood flood-opacity="0" result="BackgroundImageFix"/>
<feColorMatrix in="SourceAlpha" type="matrix" values="0 0 0 0 0 0 0 0 0 0 0 0 0 0 0 0 0 0 127 0" result="hardAlpha"/>
<feOffset dx="9.04256" dy="7.75076"/>
<feGaussianBlur stdDeviation="7.75076"/>
<feComposite in2="hardAlpha" operator="out"/>
<feColorMatrix type="matrix" values="0 0 0 0 0 0 0 0 0 0 0 0 0 0 0 0 0 0 0.25 0"/>
<feBlend mode="normal" in2="BackgroundImageFix" result="effect1_dropShadow_119_407"/>
<feBlend mode="normal" in="SourceGraphic" in2="effect1_dropShadow_119_407" result="shape"/>
</filter>
<filter id="filter1_d_119_407" x="86.6953" y="213.577" width="345.623" height="161.38" filterUnits="userSpaceOnUse" color-interpolation-filters="sRGB">
<feFlood flood-opacity="0" result="BackgroundImageFix"/>
<feColorMatrix in="SourceAlpha" type="matrix" values="0 0 0 0 0 0 0 0 0 0 0 0 0 0 0 0 0 0 127 0" result="hardAlpha"/>
<feOffset dx="9.04256" dy="7.75076"/>
<feGaussianBlur stdDeviation="7.75076"/>
<feComposite in2="hardAlpha" operator="out"/>
<feColorMatrix type="matrix" values="0 0 0 0 0 0 0 0 0 0 0 0 0 0 0 0 0 0 0.25 0"/>
<feBlend mode="normal" in2="BackgroundImageFix" result="effect1_dropShadow_119_407"/>
<feBlend mode="normal" in="SourceGraphic" in2="effect1_dropShadow_119_407" result="shape"/>
</filter>
</defs>
</svg>
