<svg width="159" height="47" viewBox="0 0 159 47" fill="none" xmlns="http://www.w3.org/2000/svg">
<path d="M22.3351 15.0579C22.0868 14.8133 21.7905 14.6215 21.4644 14.4944C21.1383 14.3672 20.7894 14.3074 20.439 14.3185C20.0849 14.3068 19.7322 14.3686 19.4037 14.4997C19.0752 14.6309 18.7781 14.8287 18.5316 15.0802C18.2852 15.3307 18.0925 15.6277 17.9651 15.9536C17.8377 16.2795 17.7783 16.6275 17.7903 16.9767V17.0347C17.5304 16.798 17.2457 16.5612 16.9293 16.3244C16.0874 15.7107 15.1573 15.2251 14.1699 14.8836C13.0493 14.4975 11.8695 14.3063 10.6828 14.3185C8.77373 14.3003 6.90124 14.8362 5.29733 15.8598C3.65234 16.9191 2.31991 18.3895 1.43507 20.1218C0.478356 21.9356 0 24.0302 0 26.4054C0 28.7568 0.478356 30.8365 1.43507 32.6444C2.32581 34.3854 3.67485 35.857 5.34027 36.9042C6.99067 37.9342 8.90733 38.4702 10.8591 38.4477C11.9213 38.4577 12.9764 38.2736 13.971 37.9049C14.857 37.5776 15.6934 37.1319 16.457 36.5803C16.9357 36.2317 17.3798 35.839 17.7836 35.4075C17.7787 35.7487 17.8424 36.0874 17.9708 36.4041C18.0992 36.7208 18.2898 37.0092 18.5316 37.2526C19.0384 37.7431 19.7195 38.0178 20.4288 38.0178C21.1381 38.0178 21.8192 37.7431 22.3261 37.2526C22.5737 37.0035 22.7681 36.7075 22.8974 36.3824C23.0267 36.0573 23.0883 35.7098 23.0786 35.3606V16.9767C23.0943 16.6235 23.0364 16.271 22.9085 15.9409C22.7806 15.6109 22.5854 15.3103 22.3351 15.0579ZM17.1937 30.1001C16.6881 31.1581 15.9006 32.06 14.9157 32.7091C13.9083 33.3566 12.7272 33.6898 11.5258 33.6652C10.3359 33.6878 9.1669 33.3546 8.17199 32.7091C7.18815 32.0601 6.40209 31.158 5.89847 30.1001C5.34169 28.9472 5.06172 27.6828 5.08037 26.4054C5.05865 25.1134 5.33861 23.8338 5.89847 22.6661C6.4021 21.6095 7.18628 20.7078 8.16747 20.057C9.16414 19.4118 10.3345 19.0786 11.5258 19.101C12.727 19.0775 13.9078 19.4105 14.9157 20.057C15.8978 20.7081 16.6834 21.6096 17.1892 22.6661C17.7484 23.834 18.0275 25.1136 18.005 26.4054C18.0258 27.6823 17.7482 28.9466 17.1937 30.1001Z" fill="#080E42"/>
<path d="M45.425 15.5269C44.9167 15.0384 44.2356 14.7651 43.5267 14.7651C42.8177 14.7651 42.1366 15.0384 41.6283 15.5269C41.3786 15.7759 41.1826 16.0723 41.0521 16.3983C40.9216 16.7243 40.8593 17.073 40.8689 17.4234V28.5476C40.8975 29.5132 40.7011 30.4724 40.2949 31.351C39.9462 32.0846 39.3752 32.6928 38.661 33.0911C37.8587 33.505 36.962 33.7073 36.0575 33.6786C34.5509 33.6786 33.381 33.2944 32.5478 32.526C31.7146 31.7576 31.295 30.4314 31.289 28.5476V17.4234C31.299 17.0747 31.2376 16.7277 31.1087 16.403C30.9798 16.0782 30.7859 15.7826 30.5387 15.5336C30.0304 15.0451 29.3493 14.7718 28.6404 14.7718C27.9314 14.7718 27.2503 15.0451 26.742 15.5336C26.4948 15.7827 26.3008 16.0783 26.1715 16.403C26.0422 16.7276 25.9803 17.0746 25.9894 17.4234V30.1202C25.9614 31.6175 26.2945 33.1 26.9612 34.4448C27.5672 35.6622 28.5068 36.6869 29.6732 37.4023C30.9054 38.1311 32.3212 38.5005 33.7569 38.4678C34.9527 38.48 36.1436 38.3135 37.2892 37.9741C38.2651 37.6828 39.1724 37.2021 39.9582 36.5602C40.3058 36.2716 40.6237 35.9499 40.9074 35.5996V36.0598C40.9074 37.5386 40.6814 38.7053 40.2294 39.5601C39.7975 40.3924 39.0748 41.0417 38.1954 41.3874C37.2914 41.7492 36.166 41.9302 34.8191 41.9302C33.9154 41.9502 33.0162 41.7985 32.1704 41.4834C31.4043 41.1774 30.7873 40.954 30.3172 40.8133C30.0185 40.6971 29.6977 40.6467 29.3773 40.6656C29.0569 40.6845 28.7444 40.7723 28.4618 40.9227C27.8742 41.2206 27.4479 41.7924 27.1827 42.6383C27.0788 42.935 27.0428 43.2507 27.0772 43.5628C27.1116 43.8749 27.2155 44.1755 27.3816 44.4432C27.7183 45.0083 28.3307 45.4796 29.2121 45.8571C30.048 46.1867 30.9241 46.406 31.8178 46.5094C32.812 46.6508 33.8147 46.7254 34.8191 46.7328C36.7825 46.761 38.7323 46.4065 40.5571 45.6896C42.2485 45.0061 43.6779 43.8114 44.6408 42.2764C45.6563 40.6964 46.164 38.5728 46.164 35.9057V17.4234C46.1758 17.0745 46.1165 16.7267 45.9896 16.4009C45.8626 16.0751 45.6706 15.7779 45.425 15.5269Z" fill="#080E42"/>
<path d="M68.8698 20.0571C67.8687 19.4069 66.691 19.0734 65.4934 19.101C64.2922 19.0776 63.1114 19.4106 62.1035 20.0571C61.1262 20.7039 60.3413 21.5969 59.83 22.6438C59.2666 23.8018 58.9842 25.0737 59.0051 26.3585C58.9873 27.6435 59.2663 28.9155 59.821 30.0778C60.3224 31.1425 61.1085 32.0516 62.0945 32.7069C63.1019 33.3544 64.283 33.6875 65.4844 33.663C66.6821 33.692 67.8602 33.3584 68.8608 32.7069C69.8407 32.0486 70.6217 31.14 71.1207 30.0778C71.6747 28.9152 71.9545 27.6435 71.9388 26.3585C71.9615 25.0738 71.6822 23.8015 71.123 22.6415C70.6153 21.599 69.838 20.7074 68.8698 20.0571Z" fill="url(#paint0_radial_170_186)"/>
<path d="M108.498 0H54.1529C52.8055 0 51.5133 0.529052 50.5606 1.47077C49.6078 2.41249 49.0726 3.68973 49.0726 5.02153V38.2266C49.0723 38.8862 49.2035 39.5394 49.4586 40.1489C49.7138 40.7584 50.088 41.3123 50.5598 41.7788C51.0316 42.2453 51.5917 42.6154 52.2082 42.8679C52.8248 43.1204 53.4856 43.2503 54.1529 43.2503H94.1157C98.0999 43.2498 101.921 41.6849 104.738 38.9001C107.555 36.1152 109.138 32.3383 109.138 28.4002V0.632158C109.138 0.464499 109.07 0.303708 108.95 0.185155C108.83 0.0666022 108.668 0 108.498 0ZM75.5795 32.6444C74.6991 34.3728 73.3741 35.8419 71.7376 36.9042C70.1285 37.9348 68.2468 38.4718 66.3296 38.4477C65.2007 38.4564 64.0793 38.265 63.0187 37.8826C62.0485 37.5385 61.1348 37.0553 60.3068 36.4485C59.9254 36.1679 59.5644 35.8611 59.2265 35.5304V35.7962C59.2361 36.1452 59.1747 36.4925 59.0458 36.8176C58.9169 37.1426 58.7232 37.4387 58.4762 37.6882C58.2304 37.938 57.9347 38.1345 57.6078 38.2653C57.281 38.396 56.9303 38.4582 56.5779 38.4477C56.2274 38.4589 55.8782 38.3993 55.5518 38.2726C55.2254 38.1458 54.9286 37.9546 54.6795 37.7106C54.4286 37.4592 54.2325 37.1596 54.1034 36.8304C53.9744 36.5011 53.9151 36.1491 53.9292 35.7962V8.48834C53.9214 8.1393 53.9849 7.79228 54.1157 7.46799C54.2466 7.14369 54.4422 6.84877 54.6908 6.6008C55.2 6.11386 55.8807 5.84163 56.5892 5.84163C57.2976 5.84163 57.9784 6.11386 58.4875 6.6008C58.7317 6.85091 58.9228 7.14672 59.0497 7.47086C59.1767 7.795 59.2368 8.14093 59.2265 8.48834V17.6111C59.683 17.0722 60.201 16.5872 60.7701 16.1658C61.5165 15.6079 62.342 15.1616 63.2199 14.8412C64.1585 14.4906 65.1544 14.3135 66.1578 14.3185C68.1163 14.2906 70.0408 14.8261 71.6969 15.8598C73.3482 16.9101 74.688 18.3747 75.5795 20.104C76.5363 21.8999 77.0146 23.9848 77.0146 26.3585C77.0146 28.7323 76.5363 30.8276 75.5795 32.6444ZM102.846 32.6444C101.965 34.3728 100.64 35.8419 99.0039 36.9042C97.3948 37.9348 95.5131 38.4718 93.5959 38.4477C92.467 38.4564 91.3456 38.265 90.285 37.8826C89.3148 37.5385 88.4011 37.0553 87.5731 36.4485C87.1917 36.1679 86.8307 35.8611 86.4928 35.5304V35.7962C86.5024 36.1452 86.441 36.4925 86.3121 36.8176C86.1832 37.1426 85.9895 37.4387 85.7425 37.6882C85.4967 37.938 85.201 38.1345 84.8742 38.2653C84.5473 38.396 84.1966 38.4582 83.8442 38.4477C83.4937 38.4589 83.1445 38.3993 82.8181 38.2726C82.4917 38.1458 82.1949 37.9546 81.9458 37.7106C81.6949 37.4592 81.4988 37.1596 81.3697 36.8304C81.2407 36.5011 81.1814 36.1491 81.1955 35.7962V8.48834C81.1857 8.13934 81.247 7.79195 81.3759 7.46689C81.5048 7.14183 81.6987 6.84576 81.9458 6.59634C82.455 6.10939 83.1357 5.83716 83.8442 5.83716C84.5527 5.83716 85.2334 6.10939 85.7425 6.59634C85.9893 6.84606 86.1828 7.14218 86.3117 7.46717C86.4406 7.79216 86.5022 8.1394 86.4928 8.48834V17.6111C86.9493 17.0722 87.4673 16.5872 88.0364 16.1658C88.7828 15.6079 89.6083 15.1616 90.4862 14.8412C91.4249 14.4906 92.4207 14.3135 93.4241 14.3185C95.3826 14.291 97.3069 14.8265 98.9633 15.8598C100.615 16.9101 101.954 18.3747 102.846 20.104C103.804 21.8999 104.282 23.9848 104.281 26.3585C104.279 28.7323 103.801 30.8276 102.846 32.6444Z" fill="url(#paint1_radial_170_186)"/>
<path d="M96.1384 20.0571C95.1362 19.4073 93.958 19.0738 92.7597 19.101C91.5585 19.0776 90.3777 19.4106 89.3698 20.0571C88.3925 20.7039 87.6076 21.5969 87.0963 22.6438C86.5329 23.8018 86.2505 25.0738 86.2714 26.3586C86.2536 27.6435 86.5326 28.9155 87.0873 30.0778C87.5887 31.1425 88.3748 32.0516 89.3608 32.7069C90.3682 33.3545 91.5493 33.6876 92.7507 33.663C93.9491 33.6913 95.1277 33.3578 96.1293 32.7069C97.1085 32.0478 97.8893 31.1394 98.3893 30.0778C98.9448 28.9156 99.2261 27.6439 99.2119 26.3586C99.2346 25.0739 98.9553 23.8015 98.3961 22.6416C97.8866 21.5988 97.1078 20.7073 96.1384 20.0571Z" fill="url(#paint2_radial_170_186)"/>
<path d="M68.8698 20.0571C67.8687 19.4069 66.691 19.0734 65.4934 19.101C64.2922 19.0776 63.1114 19.4106 62.1035 20.0571C61.1262 20.7039 60.3413 21.5969 59.83 22.6438C59.2666 23.8018 58.9842 25.0737 59.0051 26.3585C58.9873 27.6435 59.2663 28.9155 59.821 30.0778C60.3224 31.1425 61.1085 32.0516 62.0945 32.7069C63.1019 33.3544 64.283 33.6875 65.4844 33.663C66.6821 33.692 67.8602 33.3584 68.8608 32.7069C69.8407 32.0486 70.6217 31.14 71.1207 30.0778C71.6747 28.9152 71.9545 27.6435 71.9388 26.3585C71.9615 25.0738 71.6822 23.8015 71.123 22.6415C70.6153 21.599 69.838 20.7074 68.8698 20.0571Z" fill="url(#paint3_linear_170_186)"/>
<path d="M108.498 0H54.1529C52.8055 0 51.5133 0.529052 50.5606 1.47077C49.6078 2.41249 49.0726 3.68973 49.0726 5.02153V38.2266C49.0723 38.8862 49.2035 39.5394 49.4586 40.1489C49.7138 40.7584 50.088 41.3123 50.5598 41.7788C51.0316 42.2453 51.5917 42.6154 52.2082 42.8679C52.8248 43.1204 53.4856 43.2503 54.1529 43.2503H94.1157C98.0999 43.2498 101.921 41.6849 104.738 38.9001C107.555 36.1152 109.138 32.3383 109.138 28.4002V0.632158C109.138 0.464499 109.07 0.303708 108.95 0.185155C108.83 0.0666022 108.668 0 108.498 0ZM75.5795 32.6444C74.6991 34.3728 73.3741 35.8419 71.7376 36.9042C70.1285 37.9348 68.2468 38.4718 66.3296 38.4477C65.2007 38.4564 64.0793 38.265 63.0187 37.8826C62.0485 37.5385 61.1348 37.0553 60.3068 36.4485C59.9254 36.1679 59.5644 35.8611 59.2265 35.5304V35.7962C59.2361 36.1452 59.1747 36.4925 59.0458 36.8176C58.9169 37.1426 58.7232 37.4387 58.4762 37.6882C58.2304 37.938 57.9347 38.1345 57.6078 38.2653C57.281 38.396 56.9303 38.4582 56.5779 38.4477C56.2274 38.4589 55.8782 38.3993 55.5518 38.2726C55.2254 38.1458 54.9286 37.9546 54.6795 37.7106C54.4286 37.4592 54.2325 37.1596 54.1034 36.8304C53.9744 36.5011 53.9151 36.1491 53.9292 35.7962V8.48834C53.9214 8.1393 53.9849 7.79228 54.1157 7.46799C54.2466 7.14369 54.4422 6.84877 54.6908 6.6008C55.2 6.11386 55.8807 5.84163 56.5892 5.84163C57.2976 5.84163 57.9784 6.11386 58.4875 6.6008C58.7317 6.85091 58.9228 7.14672 59.0497 7.47086C59.1767 7.795 59.2368 8.14093 59.2265 8.48834V17.6111C59.683 17.0722 60.201 16.5872 60.7701 16.1658C61.5165 15.6079 62.342 15.1616 63.2199 14.8412C64.1585 14.4906 65.1544 14.3135 66.1578 14.3185C68.1163 14.2906 70.0408 14.8261 71.6969 15.8598C73.3482 16.9101 74.688 18.3747 75.5795 20.104C76.5363 21.8999 77.0146 23.9848 77.0146 26.3585C77.0146 28.7323 76.5363 30.8276 75.5795 32.6444ZM102.846 32.6444C101.965 34.3728 100.64 35.8419 99.0039 36.9042C97.3948 37.9348 95.5131 38.4718 93.5959 38.4477C92.467 38.4564 91.3456 38.265 90.285 37.8826C89.3148 37.5385 88.4011 37.0553 87.5731 36.4485C87.1917 36.1679 86.8307 35.8611 86.4928 35.5304V35.7962C86.5024 36.1452 86.441 36.4925 86.3121 36.8176C86.1832 37.1426 85.9895 37.4387 85.7425 37.6882C85.4967 37.938 85.201 38.1345 84.8742 38.2653C84.5473 38.396 84.1966 38.4582 83.8442 38.4477C83.4937 38.4589 83.1445 38.3993 82.8181 38.2726C82.4917 38.1458 82.1949 37.9546 81.9458 37.7106C81.6949 37.4592 81.4988 37.1596 81.3697 36.8304C81.2407 36.5011 81.1814 36.1491 81.1955 35.7962V8.48834C81.1857 8.13934 81.247 7.79195 81.3759 7.46689C81.5048 7.14183 81.6987 6.84576 81.9458 6.59634C82.455 6.10939 83.1357 5.83716 83.8442 5.83716C84.5527 5.83716 85.2334 6.10939 85.7425 6.59634C85.9893 6.84606 86.1828 7.14218 86.3117 7.46717C86.4406 7.79216 86.5022 8.1394 86.4928 8.48834V17.6111C86.9493 17.0722 87.4673 16.5872 88.0364 16.1658C88.7828 15.6079 89.6083 15.1616 90.4862 14.8412C91.4249 14.4906 92.4207 14.3135 93.4241 14.3185C95.3826 14.291 97.3069 14.8265 98.9633 15.8598C100.615 16.9101 101.954 18.3747 102.846 20.104C103.804 21.8999 104.282 23.9848 104.281 26.3585C104.279 28.7323 103.801 30.8276 102.846 32.6444Z" fill="url(#paint4_linear_170_186)"/>
<path d="M96.1384 20.0571C95.1362 19.4073 93.958 19.0738 92.7597 19.101C91.5585 19.0776 90.3777 19.4106 89.3698 20.0571C88.3925 20.7039 87.6076 21.5969 87.0963 22.6438C86.5329 23.8018 86.2505 25.0738 86.2714 26.3586C86.2536 27.6435 86.5326 28.9155 87.0873 30.0778C87.5887 31.1425 88.3748 32.0516 89.3608 32.7069C90.3682 33.3545 91.5493 33.6876 92.7507 33.663C93.9491 33.6913 95.1277 33.3578 96.1293 32.7069C97.1085 32.0478 97.8893 31.1394 98.3893 30.0778C98.9448 28.9156 99.2261 27.6439 99.2119 26.3586C99.2346 25.0739 98.9553 23.8015 98.3961 22.6416C97.8866 21.5988 97.1078 20.7073 96.1384 20.0571Z" fill="url(#paint5_linear_170_186)"/>
<path d="M133.62 21.4062C133.034 20.0445 132.204 18.7994 131.168 17.7317C130.154 16.6839 128.948 15.8358 127.615 15.2321C126.28 14.6236 124.825 14.3117 123.355 14.3185C121.416 14.3181 119.512 14.8285 117.838 15.7972C116.072 16.8115 114.615 18.2777 113.621 20.0414C112.549 21.882 112.011 24.1061 112.01 26.7137C111.974 28.8061 112.484 30.8723 113.49 32.7136C114.473 34.48 115.942 35.9347 117.728 36.9086C119.566 37.9377 121.736 38.4522 124.239 38.4522C125.696 38.4542 127.143 38.2118 128.519 37.7351C129.902 37.2571 130.976 36.6994 131.742 36.062C132.566 35.4247 132.978 34.7143 132.978 33.931C132.975 33.6412 132.914 33.3548 132.799 33.0884C132.684 32.8219 132.516 32.5807 132.306 32.3786C132.096 32.1765 131.848 32.0175 131.575 31.911C131.302 31.8044 131.011 31.7522 130.718 31.7575C130.194 31.7706 129.68 31.9044 129.217 32.1485C128.895 32.3227 128.534 32.5327 128.135 32.7784C127.647 33.0636 127.119 33.2766 126.569 33.4105C125.715 33.606 124.841 33.693 123.965 33.6697C122.799 33.6731 121.652 33.3816 120.632 32.8231C119.759 32.3429 119.003 31.6795 118.417 30.8795C117.831 30.0794 117.43 29.1622 117.242 28.1924H131.809C132.487 28.203 133.146 27.9714 133.665 27.5402C133.921 27.3352 134.129 27.0772 134.274 26.7843C134.419 26.4914 134.497 26.1707 134.503 25.8447C134.518 24.3212 134.217 22.8107 133.62 21.4062ZM128.874 23.841H117.307C117.373 23.502 117.461 23.1677 117.572 22.8403C117.837 22.0113 118.29 21.2528 118.896 20.6222C119.451 20.0761 120.133 19.6733 120.883 19.4494C121.684 19.2121 122.518 19.0946 123.355 19.101C124.25 19.0973 125.134 19.2984 125.938 19.6885C126.726 20.0619 127.421 20.6036 127.972 21.2744C128.506 21.9157 128.822 22.7065 128.876 23.535L128.874 23.841Z" fill="#080E42"/>
<path d="M157.36 19.6885C156.987 18.2766 156.166 17.0197 155.019 16.1011C153.886 15.2075 152.229 14.7608 150.047 14.7608C149.101 14.7489 148.161 14.9 147.267 15.2075C146.448 15.4939 145.674 15.8965 144.971 16.4026C144.326 16.8669 143.734 17.3995 143.206 17.9908C143.026 18.1919 142.867 18.3884 142.72 18.5805V17.8412C142.73 17.4922 142.669 17.1449 142.54 16.8198C142.411 16.4948 142.217 16.1987 141.97 15.9492C141.462 15.4606 140.781 15.1873 140.072 15.1873C139.363 15.1873 138.682 15.4606 138.173 15.9492C137.926 16.1984 137.732 16.4945 137.603 16.8196C137.474 17.1447 137.413 17.4921 137.423 17.8412V35.7962C137.413 36.1453 137.474 36.4927 137.603 36.8178C137.732 37.1429 137.926 37.439 138.173 37.6883C138.683 38.1752 139.363 38.4474 140.072 38.4474C140.78 38.4474 141.461 38.1752 141.97 37.6883C142.217 37.4387 142.411 37.1426 142.54 36.8176C142.669 36.4925 142.73 36.1452 142.72 35.7962V24.6653C142.707 23.7633 142.927 22.8727 143.36 22.0786C143.793 21.3055 144.435 20.6661 145.213 20.2313C146.127 19.7434 147.156 19.5036 148.194 19.5366C149.399 19.5366 150.326 19.7682 150.974 20.2313C151.618 20.6841 152.094 21.3329 152.33 22.0786C152.591 22.9163 152.717 23.789 152.705 24.6653V35.7962C152.695 36.1452 152.757 36.4925 152.886 36.8176C153.015 37.1426 153.208 37.4387 153.455 37.6883C153.964 38.1752 154.645 38.4474 155.354 38.4474C156.062 38.4474 156.743 38.1752 157.252 37.6883C157.499 37.4387 157.693 37.1426 157.821 36.8176C157.95 36.4925 158.012 36.1452 158.002 35.7962V24.6653C158.02 22.9852 157.804 21.3106 157.36 19.6885Z" fill="#080E42"/>
<defs>
<radialGradient id="paint0_radial_170_186" cx="0" cy="0" r="1" gradientUnits="userSpaceOnUse" gradientTransform="translate(65.4708 26.3831) scale(6.93127 6.85099)">
<stop stop-color="#247EE0"/>
<stop offset="0.19" stop-color="#2578DA"/>
<stop offset="0.46" stop-color="#2767C8"/>
<stop offset="0.76" stop-color="#2B4BAC"/>
<stop offset="0.99" stop-color="#2E3191"/>
</radialGradient>
<radialGradient id="paint1_radial_170_186" cx="0" cy="0" r="1" gradientUnits="userSpaceOnUse" gradientTransform="translate(79.1051 21.6252) scale(26.2742 25.9699)">
<stop stop-color="#247EE0"/>
<stop offset="0.19" stop-color="#2578DA"/>
<stop offset="0.46" stop-color="#2767C8"/>
<stop offset="0.76" stop-color="#2B4BAC"/>
<stop offset="0.99" stop-color="#2E3191"/>
</radialGradient>
<radialGradient id="paint2_radial_170_186" cx="0" cy="0" r="1" gradientUnits="userSpaceOnUse" gradientTransform="translate(92.7371 26.3831) scale(6.93127 6.85099)">
<stop stop-color="#247EE0"/>
<stop offset="0.19" stop-color="#2578DA"/>
<stop offset="0.46" stop-color="#2767C8"/>
<stop offset="0.76" stop-color="#2B4BAC"/>
<stop offset="0.99" stop-color="#2E3191"/>
</radialGradient>
<linearGradient id="paint3_linear_170_186" x1="109.992" y1="1.92328" x2="48.1714" y2="38.0328" gradientUnits="userSpaceOnUse">
<stop stop-color="#247EE0"/>
<stop offset="0.19" stop-color="#2578DA"/>
<stop offset="0.46" stop-color="#2767C8"/>
<stop offset="0.76" stop-color="#2B4BAC"/>
<stop offset="0.99" stop-color="#2E3191"/>
</linearGradient>
<linearGradient id="paint4_linear_170_186" x1="109.992" y1="1.92328" x2="48.1713" y2="38.0328" gradientUnits="userSpaceOnUse">
<stop stop-color="#247EE0"/>
<stop offset="0.19" stop-color="#2578DA"/>
<stop offset="0.46" stop-color="#2767C8"/>
<stop offset="0.76" stop-color="#2B4BAC"/>
<stop offset="0.99" stop-color="#2E3191"/>
</linearGradient>
<linearGradient id="paint5_linear_170_186" x1="109.992" y1="1.9233" x2="48.1714" y2="38.0328" gradientUnits="userSpaceOnUse">
<stop stop-color="#247EE0"/>
<stop offset="0.19" stop-color="#2578DA"/>
<stop offset="0.46" stop-color="#2767C8"/>
<stop offset="0.76" stop-color="#2B4BAC"/>
<stop offset="0.99" stop-color="#2E3191"/>
</linearGradient>
</defs>
</svg>
