<svg width="440" height="595" viewBox="0 0 440 595" fill="none" xmlns="http://www.w3.org/2000/svg">
<path d="M403.04 575.348C390.872 587.235 374.509 593.845 357.498 593.747C340.488 593.648 324.203 586.848 312.173 574.822C300.144 562.795 293.34 546.511 293.238 529.5C293.136 512.49 299.743 496.125 311.627 483.955M433.656 495.612C439.466 509.766 440.96 525.323 437.949 540.325C434.938 555.327 427.557 569.103 416.735 579.919M403.832 528.226L397.894 524.783C397.719 524.683 397.577 524.535 397.486 524.355C397.394 524.176 397.357 523.974 397.38 523.774C397.499 522.722 397.558 521.665 397.558 520.607C397.56 518.616 397.381 516.629 397.024 514.67C396.97 514.454 396.989 514.226 397.079 514.022C397.168 513.818 397.323 513.649 397.518 513.542L402.545 510.633C403.042 510.35 403.478 509.971 403.827 509.518C404.175 509.064 404.43 508.546 404.576 507.993C404.721 507.44 404.755 506.863 404.675 506.297C404.595 505.731 404.402 505.186 404.109 504.695L397.241 492.821C396.96 492.322 396.582 491.885 396.13 491.534C395.677 491.183 395.159 490.927 394.606 490.779C394.053 490.632 393.476 490.596 392.909 490.675C392.342 490.754 391.796 490.945 391.304 491.238L385.842 494.404C385.673 494.521 385.473 494.583 385.268 494.583C385.063 494.583 384.863 494.521 384.694 494.404C382.1 492.373 379.21 490.751 376.125 489.595C375.927 489.522 375.756 489.39 375.635 489.216C375.515 489.043 375.451 488.837 375.452 488.626V483.698C375.452 483.135 375.341 482.577 375.125 482.057C374.909 481.537 374.592 481.065 374.193 480.668C373.794 480.271 373.32 479.956 372.799 479.743C372.278 479.529 371.72 479.42 371.157 479.423H357.423C356.861 479.423 356.305 479.533 355.787 479.748C355.268 479.963 354.797 480.278 354.4 480.675C354.003 481.072 353.688 481.543 353.473 482.062C353.258 482.58 353.148 483.136 353.148 483.698V488.626C353.146 488.836 353.081 489.041 352.961 489.214C352.841 489.387 352.672 489.52 352.475 489.595C348.967 490.922 345.713 492.844 342.857 495.275C342.694 495.413 342.494 495.499 342.282 495.52C342.069 495.541 341.856 495.497 341.669 495.394L338.602 493.633C338.116 493.349 337.58 493.165 337.023 493.09C336.466 493.016 335.9 493.052 335.357 493.198C334.814 493.343 334.305 493.594 333.86 493.937C333.415 494.28 333.042 494.708 332.764 495.196L325.896 507.07C325.613 507.556 325.429 508.092 325.354 508.649C325.28 509.206 325.316 509.772 325.461 510.315C325.607 510.858 325.858 511.367 326.201 511.812C326.544 512.257 326.972 512.63 327.46 512.909L330.963 514.888C331.137 514.996 331.277 515.153 331.365 515.339C331.452 515.525 331.485 515.733 331.457 515.936C331.235 517.45 331.123 518.978 331.121 520.508C331.124 522.946 331.403 525.376 331.952 527.751C332.002 527.968 331.981 528.194 331.892 528.398C331.803 528.601 331.65 528.77 331.457 528.88L328.786 530.423C328.289 530.706 327.853 531.085 327.504 531.538C327.155 531.992 326.901 532.51 326.755 533.063C326.61 533.616 326.576 534.193 326.656 534.759C326.736 535.325 326.929 535.87 327.222 536.36L334.09 548.235C334.657 549.216 335.59 549.932 336.685 550.225C337.78 550.518 338.946 550.365 339.928 549.798L343.886 547.483C344.054 547.375 344.25 547.318 344.45 547.318C344.65 547.318 344.845 547.375 345.014 547.483C348.043 549.66 351.423 551.3 355.008 552.331C355.223 552.395 355.411 552.525 355.547 552.703C355.682 552.881 355.757 553.097 355.76 553.321V557.279C355.76 558.415 356.21 559.504 357.011 560.309C357.812 561.114 358.899 561.568 360.035 561.574H373.77C374.909 561.574 376.001 561.121 376.806 560.316C377.612 559.51 378.064 558.418 378.064 557.279V551.223C378.063 551.03 378.116 550.84 378.217 550.675C378.319 550.511 378.465 550.378 378.638 550.293C381.588 548.878 384.309 547.03 386.713 544.811C386.873 544.655 387.08 544.557 387.303 544.532C387.525 544.507 387.749 544.556 387.94 544.672L392.591 547.364C393.081 547.657 393.626 547.85 394.192 547.93C394.758 548.01 395.335 547.977 395.888 547.831C396.441 547.685 396.959 547.431 397.413 547.082C397.866 546.733 398.245 546.298 398.528 545.8L405.395 533.926C405.914 532.957 406.041 531.825 405.75 530.765C405.459 529.704 404.772 528.796 403.832 528.226ZM365.656 536.855C362.437 536.855 359.291 535.901 356.616 534.112C353.94 532.324 351.855 529.782 350.624 526.808C349.393 523.834 349.072 520.562 349.702 517.406C350.331 514.25 351.882 511.351 354.159 509.077C356.436 506.803 359.337 505.255 362.494 504.63C365.651 504.004 368.922 504.329 371.895 505.563C374.867 506.798 377.406 508.886 379.191 511.564C380.977 514.242 381.927 517.389 381.923 520.607C381.918 524.918 380.202 529.051 377.152 532.097C374.101 535.144 369.967 536.855 365.656 536.855Z" stroke="#080E42" stroke-miterlimit="10"/>
<g opacity="0.4">
<mask id="path-2-inside-1_213_133" fill="white">
<path d="M320.747 187.87H316.789V189.849H320.747V187.87ZM312.831 187.87H308.873V189.849H312.831V187.87ZM304.915 187.87H300.957V189.849H304.915V187.87ZM296.999 187.87H293.041V189.849H296.999V187.87ZM289.082 187.87H285.124V189.849H289.082V187.87ZM281.166 187.87H277.208V189.849H281.166V187.87ZM273.25 187.87H269.292V189.849H273.25V187.87ZM265.334 187.87H261.376V189.849H265.334V187.87ZM257.418 187.87H253.459V189.849H257.418V187.87ZM249.501 187.87H249.323H248.353C247.466 188.16 246.659 188.655 245.998 189.315L247.384 190.72C248.035 190.094 248.865 189.686 249.759 189.553L249.501 187.574V187.87ZM244.217 193.056V193.155C244.207 193.346 244.207 193.537 244.217 193.728V196.756H246.196V193.728C246.196 193.531 246.196 193.313 246.196 193.095L244.217 192.798V193.056ZM246.196 200.972H244.217V204.93H246.196V200.972ZM246.196 208.888H244.217V212.846H246.196V208.888ZM246.196 216.804H244.217V220.762H246.196V216.804ZM246.196 224.72H244.217V228.679H246.196V224.72ZM246.196 232.637H244.217V236.595H246.196V232.637ZM246.196 240.553H244.217V244.511H246.196V240.553ZM246.196 248.469H244.217V252.427H246.196V248.469ZM246.731 255.257L245.009 256.247C245.223 256.61 245.468 256.954 245.741 257.276H246.434C246.861 257.612 247.326 257.898 247.819 258.127L248.611 256.306C247.778 255.938 247.085 255.314 246.632 254.525L246.731 255.257ZM255.735 257.395H251.777V259.374H255.735V257.395ZM263.652 257.395H259.693V259.374H263.652V257.395ZM271.568 257.395H267.61V259.374H271.568V257.395ZM279.484 257.395H275.526V259.374H279.484V257.395ZM287.4 257.395H283.442V259.374H287.4V257.395ZM295.316 257.395H291.358V259.374H295.316V257.395ZM303.233 257.395H299.275V259.374H303.233V257.395ZM311.149 257.395H307.191V259.374H311.149V257.395ZM319.065 257.395H315.107V259.374H319.065V257.395ZM324.329 255.416C323.861 256.164 323.169 256.746 322.35 257.078L323.043 258.938C323.526 258.75 323.984 258.504 324.409 258.206H325.042C325.432 257.846 325.777 257.441 326.071 256.999L324.389 255.93L324.329 255.416ZM326.981 248.746H325.002V252.704H326.981V248.746ZM326.981 240.83H325.002V244.788H326.981V240.83ZM326.981 232.914H325.002V236.872H326.981V232.914ZM326.981 224.998H325.002V228.956H326.981V224.998ZM326.981 217.081H325.002V221.039H326.981V217.081ZM326.981 209.165H325.002V213.123H326.981V209.165ZM326.981 201.249H325.002V205.207H326.981V201.249ZM326.981 193.333L325.002 193.531C325.012 193.669 325.012 193.808 325.002 193.946V197.291H326.981V193.946C326.981 193.946 326.981 193.827 326.981 193.768V193.333ZM321.994 187.89L321.618 189.869C322.508 190.039 323.319 190.49 323.934 191.156L325.398 189.83H325.24C324.787 189.376 324.266 188.995 323.696 188.702H323.122C322.756 188.564 322.379 188.458 321.994 188.385V187.89Z"/>
</mask>
<path d="M320.747 187.87H316.789V189.849H320.747V187.87ZM312.831 187.87H308.873V189.849H312.831V187.87ZM304.915 187.87H300.957V189.849H304.915V187.87ZM296.999 187.87H293.041V189.849H296.999V187.87ZM289.082 187.87H285.124V189.849H289.082V187.87ZM281.166 187.87H277.208V189.849H281.166V187.87ZM273.25 187.87H269.292V189.849H273.25V187.87ZM265.334 187.87H261.376V189.849H265.334V187.87ZM257.418 187.87H253.459V189.849H257.418V187.87ZM249.501 187.87H249.323H248.353C247.466 188.16 246.659 188.655 245.998 189.315L247.384 190.72C248.035 190.094 248.865 189.686 249.759 189.553L249.501 187.574V187.87ZM244.217 193.056V193.155C244.207 193.346 244.207 193.537 244.217 193.728V196.756H246.196V193.728C246.196 193.531 246.196 193.313 246.196 193.095L244.217 192.798V193.056ZM246.196 200.972H244.217V204.93H246.196V200.972ZM246.196 208.888H244.217V212.846H246.196V208.888ZM246.196 216.804H244.217V220.762H246.196V216.804ZM246.196 224.72H244.217V228.679H246.196V224.72ZM246.196 232.637H244.217V236.595H246.196V232.637ZM246.196 240.553H244.217V244.511H246.196V240.553ZM246.196 248.469H244.217V252.427H246.196V248.469ZM246.731 255.257L245.009 256.247C245.223 256.61 245.468 256.954 245.741 257.276H246.434C246.861 257.612 247.326 257.898 247.819 258.127L248.611 256.306C247.778 255.938 247.085 255.314 246.632 254.525L246.731 255.257ZM255.735 257.395H251.777V259.374H255.735V257.395ZM263.652 257.395H259.693V259.374H263.652V257.395ZM271.568 257.395H267.61V259.374H271.568V257.395ZM279.484 257.395H275.526V259.374H279.484V257.395ZM287.4 257.395H283.442V259.374H287.4V257.395ZM295.316 257.395H291.358V259.374H295.316V257.395ZM303.233 257.395H299.275V259.374H303.233V257.395ZM311.149 257.395H307.191V259.374H311.149V257.395ZM319.065 257.395H315.107V259.374H319.065V257.395ZM324.329 255.416C323.861 256.164 323.169 256.746 322.35 257.078L323.043 258.938C323.526 258.75 323.984 258.504 324.409 258.206H325.042C325.432 257.846 325.777 257.441 326.071 256.999L324.389 255.93L324.329 255.416ZM326.981 248.746H325.002V252.704H326.981V248.746ZM326.981 240.83H325.002V244.788H326.981V240.83ZM326.981 232.914H325.002V236.872H326.981V232.914ZM326.981 224.998H325.002V228.956H326.981V224.998ZM326.981 217.081H325.002V221.039H326.981V217.081ZM326.981 209.165H325.002V213.123H326.981V209.165ZM326.981 201.249H325.002V205.207H326.981V201.249ZM326.981 193.333L325.002 193.531C325.012 193.669 325.012 193.808 325.002 193.946V197.291H326.981V193.946C326.981 193.946 326.981 193.827 326.981 193.768V193.333ZM321.994 187.89L321.618 189.869C322.508 190.039 323.319 190.49 323.934 191.156L325.398 189.83H325.24C324.787 189.376 324.266 188.995 323.696 188.702H323.122C322.756 188.564 322.379 188.458 321.994 188.385V187.89Z" fill="white" stroke="#5E5E5E" stroke-width="1.68345" mask="url(#path-2-inside-1_213_133)"/>
</g>
<g opacity="0.4">
<mask id="path-3-inside-2_213_133" fill="white">
<path d="M188.429 430.467H184.471V432.446H188.429V430.467ZM180.513 430.467H176.555V432.446H180.513V430.467ZM172.597 430.467H168.639V432.446H172.597V430.467ZM164.681 430.467H160.723V432.446H164.681V430.467ZM156.764 430.467H152.806V432.446H156.764V430.467ZM148.848 430.467H144.89V432.446H148.848V430.467ZM140.932 430.467H136.974V432.446H140.932V430.467ZM133.016 430.467H129.058V432.446H133.016V430.467ZM125.1 430.467H121.141V432.446H125.1V430.467ZM117.183 430.467H113.225V432.446H117.183V430.467ZM109.267 430.467H105.309V432.446H109.267V430.467ZM101.351 430.467H97.3927V432.446H101.351V430.467ZM93.4346 430.467H89.4764V432.446H93.4346V430.467ZM85.5183 430.467H81.5602V432.446H85.5183V430.467ZM77.6021 430.467H73.644V432.446H77.6021V430.467ZM69.6859 430.467H65.7278V432.446H69.6859V430.467ZM61.7696 430.467H57.8115V432.446H61.7696V430.467ZM53.8534 430.467H49.8953V432.446H53.8534V430.467ZM45.9372 430.467H41.9791V432.446H45.9372V430.467ZM38.021 430.467H34.0628V432.446H38.021V430.467ZM30.1047 430.467H26.1466V432.446H30.1047V430.467ZM22.1885 430.467H18.2304V432.446H22.1885V430.467ZM14.2723 430.467H10.3141V432.446H14.2723V430.467ZM6.35603 430.467C5.71063 430.527 5.07736 430.681 4.47593 430.922H4.17907C3.66647 431.16 3.19273 431.473 2.77394 431.852L4.08011 433.337C4.74966 432.725 5.60901 432.362 6.51436 432.308L6.35603 430.329V430.467ZM0.814681 435.336C0.739669 435.667 0.693321 436.005 0.676147 436.345V439.017H2.65521V436.345C2.625 436.055 2.625 435.764 2.65521 435.474L0.676147 435.059L0.814681 435.336ZM2.65521 443.252H0.676147V447.21H2.65521V443.252ZM2.65521 451.168H0.676147V455.126H2.65521V451.168ZM2.65521 459.084H0.676147V463.042H2.65521V459.084ZM2.65521 467.001H0.676147V470.959H2.65521V467.001ZM2.65521 474.917H0.676147V478.875H2.65521V474.917ZM2.65521 482.833H0.676147V486.791H2.65521V482.833ZM2.65521 490.749H0.676147V494.707H2.65521V490.749ZM2.65521 498.665H0.676147V502.624H2.65521V498.665ZM2.65521 506.582H0.676147V510.54H2.65521V506.582ZM2.65521 514.498H0.676147V518.456H2.65521V514.498ZM2.65521 522.414H0.676147V526.372H2.65521V522.414ZM2.65521 530.33H0.676147V534.289H2.65521V530.33ZM2.65521 538.247H0.676147V542.205H2.65521V538.247ZM2.65521 546.163H0.676147V550.121H2.65521V546.163ZM2.99164 553.248L1.17091 554.02C1.45557 554.692 1.85765 555.309 2.35834 555.84H3.5062H3.64473L4.65404 554.138C3.87776 553.681 3.26767 552.988 2.91248 552.159L2.99164 553.248ZM11.5016 555.801H7.64242V557.78H11.6005V555.801H11.5016ZM19.4178 555.801H15.5587V557.78H19.5168V555.801H19.4178ZM27.334 555.801H23.4749V557.78H27.433V555.801H27.334ZM35.2503 555.801H31.3911V557.78H35.3492V555.801H35.2503ZM43.1665 555.801H39.3073V557.78H43.2655V555.801H43.1665ZM51.0827 555.801H47.1246V557.78H51.0827V555.801ZM58.999 555.801H55.0408V557.78H58.999V555.801ZM66.9152 555.801H62.9571V557.78H66.9152V555.801ZM74.8314 555.801H70.8733V557.78H74.8314V555.801ZM82.7477 555.801H78.7895V557.78H82.7477V555.801ZM90.6639 555.801H86.7058V557.78H90.6639V555.801ZM98.5801 555.801H94.622V557.78H98.5801V555.801ZM106.496 555.801H102.538V557.78H106.496V555.801ZM114.413 555.801H110.454V557.78H114.413V555.801ZM122.329 555.801H118.371V557.78H122.329V555.801ZM130.245 555.801H126.287V557.78H130.245V555.801ZM138.161 555.801H134.203V557.78H138.161V555.801ZM146.077 555.801H142.119V557.78H146.077V555.801ZM153.994 555.801H150.036V557.78H153.994V555.801ZM161.91 555.801H157.952V557.78H161.91V555.801ZM169.826 555.801H165.868V557.78H169.826V555.801ZM177.742 555.801H173.784V557.78H177.742V555.801ZM185.659 555.801H181.701V557.78H185.659V555.801ZM191.596 554.416C190.988 555.082 190.184 555.54 189.3 555.722L189.676 557.701L190.191 557.582H191.596C192.131 557.248 192.623 556.849 193.06 556.395L191.596 555.049V554.416ZM194.663 548.241H192.684V551.605C192.684 551.744 192.684 551.882 192.684 552.001L194.663 552.199C194.673 552.041 194.673 551.882 194.663 551.724V548.36V548.241ZM194.663 540.325H192.684V544.283H194.663V540.325ZM194.663 532.408H192.684V536.366H194.663V532.408ZM194.663 524.492H192.684V528.45H194.663V524.492ZM194.663 516.576H192.684V520.534H194.663V516.576ZM194.663 508.66H192.684V512.618H194.663V508.66ZM194.663 500.743H192.684V504.702H194.663V500.743ZM194.663 492.827H192.684V496.785H194.663V492.827ZM194.663 484.911H192.684V488.869H194.663V484.911ZM194.663 476.995H192.684V480.953H194.663V476.995ZM194.663 469.079H192.684V473.037H194.663V469.079ZM194.663 461.162H192.684V465.12H194.663V461.162ZM194.663 453.246H192.684V457.204H194.663V453.246ZM194.663 445.33H192.684V449.288H194.663V445.33ZM194.663 437.414H192.684V441.372H194.663V437.414ZM190.982 430.982L190.191 432.783C191.023 433.151 191.717 433.775 192.17 434.564L193.892 433.594C193.64 433.16 193.342 432.755 193.001 432.387H192.625C192.169 431.988 191.656 431.661 191.101 431.417L190.982 430.982Z"/>
</mask>
<path d="M188.429 430.467H184.471V432.446H188.429V430.467ZM180.513 430.467H176.555V432.446H180.513V430.467ZM172.597 430.467H168.639V432.446H172.597V430.467ZM164.681 430.467H160.723V432.446H164.681V430.467ZM156.764 430.467H152.806V432.446H156.764V430.467ZM148.848 430.467H144.89V432.446H148.848V430.467ZM140.932 430.467H136.974V432.446H140.932V430.467ZM133.016 430.467H129.058V432.446H133.016V430.467ZM125.1 430.467H121.141V432.446H125.1V430.467ZM117.183 430.467H113.225V432.446H117.183V430.467ZM109.267 430.467H105.309V432.446H109.267V430.467ZM101.351 430.467H97.3927V432.446H101.351V430.467ZM93.4346 430.467H89.4764V432.446H93.4346V430.467ZM85.5183 430.467H81.5602V432.446H85.5183V430.467ZM77.6021 430.467H73.644V432.446H77.6021V430.467ZM69.6859 430.467H65.7278V432.446H69.6859V430.467ZM61.7696 430.467H57.8115V432.446H61.7696V430.467ZM53.8534 430.467H49.8953V432.446H53.8534V430.467ZM45.9372 430.467H41.9791V432.446H45.9372V430.467ZM38.021 430.467H34.0628V432.446H38.021V430.467ZM30.1047 430.467H26.1466V432.446H30.1047V430.467ZM22.1885 430.467H18.2304V432.446H22.1885V430.467ZM14.2723 430.467H10.3141V432.446H14.2723V430.467ZM6.35603 430.467C5.71063 430.527 5.07736 430.681 4.47593 430.922H4.17907C3.66647 431.16 3.19273 431.473 2.77394 431.852L4.08011 433.337C4.74966 432.725 5.60901 432.362 6.51436 432.308L6.35603 430.329V430.467ZM0.814681 435.336C0.739669 435.667 0.693321 436.005 0.676147 436.345V439.017H2.65521V436.345C2.625 436.055 2.625 435.764 2.65521 435.474L0.676147 435.059L0.814681 435.336ZM2.65521 443.252H0.676147V447.21H2.65521V443.252ZM2.65521 451.168H0.676147V455.126H2.65521V451.168ZM2.65521 459.084H0.676147V463.042H2.65521V459.084ZM2.65521 467.001H0.676147V470.959H2.65521V467.001ZM2.65521 474.917H0.676147V478.875H2.65521V474.917ZM2.65521 482.833H0.676147V486.791H2.65521V482.833ZM2.65521 490.749H0.676147V494.707H2.65521V490.749ZM2.65521 498.665H0.676147V502.624H2.65521V498.665ZM2.65521 506.582H0.676147V510.54H2.65521V506.582ZM2.65521 514.498H0.676147V518.456H2.65521V514.498ZM2.65521 522.414H0.676147V526.372H2.65521V522.414ZM2.65521 530.33H0.676147V534.289H2.65521V530.33ZM2.65521 538.247H0.676147V542.205H2.65521V538.247ZM2.65521 546.163H0.676147V550.121H2.65521V546.163ZM2.99164 553.248L1.17091 554.02C1.45557 554.692 1.85765 555.309 2.35834 555.84H3.5062H3.64473L4.65404 554.138C3.87776 553.681 3.26767 552.988 2.91248 552.159L2.99164 553.248ZM11.5016 555.801H7.64242V557.78H11.6005V555.801H11.5016ZM19.4178 555.801H15.5587V557.78H19.5168V555.801H19.4178ZM27.334 555.801H23.4749V557.78H27.433V555.801H27.334ZM35.2503 555.801H31.3911V557.78H35.3492V555.801H35.2503ZM43.1665 555.801H39.3073V557.78H43.2655V555.801H43.1665ZM51.0827 555.801H47.1246V557.78H51.0827V555.801ZM58.999 555.801H55.0408V557.78H58.999V555.801ZM66.9152 555.801H62.9571V557.78H66.9152V555.801ZM74.8314 555.801H70.8733V557.78H74.8314V555.801ZM82.7477 555.801H78.7895V557.78H82.7477V555.801ZM90.6639 555.801H86.7058V557.78H90.6639V555.801ZM98.5801 555.801H94.622V557.78H98.5801V555.801ZM106.496 555.801H102.538V557.78H106.496V555.801ZM114.413 555.801H110.454V557.78H114.413V555.801ZM122.329 555.801H118.371V557.78H122.329V555.801ZM130.245 555.801H126.287V557.78H130.245V555.801ZM138.161 555.801H134.203V557.78H138.161V555.801ZM146.077 555.801H142.119V557.78H146.077V555.801ZM153.994 555.801H150.036V557.78H153.994V555.801ZM161.91 555.801H157.952V557.78H161.91V555.801ZM169.826 555.801H165.868V557.78H169.826V555.801ZM177.742 555.801H173.784V557.78H177.742V555.801ZM185.659 555.801H181.701V557.78H185.659V555.801ZM191.596 554.416C190.988 555.082 190.184 555.54 189.3 555.722L189.676 557.701L190.191 557.582H191.596C192.131 557.248 192.623 556.849 193.06 556.395L191.596 555.049V554.416ZM194.663 548.241H192.684V551.605C192.684 551.744 192.684 551.882 192.684 552.001L194.663 552.199C194.673 552.041 194.673 551.882 194.663 551.724V548.36V548.241ZM194.663 540.325H192.684V544.283H194.663V540.325ZM194.663 532.408H192.684V536.366H194.663V532.408ZM194.663 524.492H192.684V528.45H194.663V524.492ZM194.663 516.576H192.684V520.534H194.663V516.576ZM194.663 508.66H192.684V512.618H194.663V508.66ZM194.663 500.743H192.684V504.702H194.663V500.743ZM194.663 492.827H192.684V496.785H194.663V492.827ZM194.663 484.911H192.684V488.869H194.663V484.911ZM194.663 476.995H192.684V480.953H194.663V476.995ZM194.663 469.079H192.684V473.037H194.663V469.079ZM194.663 461.162H192.684V465.12H194.663V461.162ZM194.663 453.246H192.684V457.204H194.663V453.246ZM194.663 445.33H192.684V449.288H194.663V445.33ZM194.663 437.414H192.684V441.372H194.663V437.414ZM190.982 430.982L190.191 432.783C191.023 433.151 191.717 433.775 192.17 434.564L193.892 433.594C193.64 433.16 193.342 432.755 193.001 432.387H192.625C192.169 431.988 191.656 431.661 191.101 431.417L190.982 430.982Z" fill="white" stroke="#080E42" stroke-width="2" mask="url(#path-3-inside-2_213_133)"/>
</g>
<path d="M402.51 23.5383H322.991V103.057H402.51V23.5383Z" stroke="#5E5E5E" stroke-miterlimit="10"/>
<path d="M322.991 23.5383L402.51 103.057" stroke="#5E5E5E" stroke-miterlimit="10"/>
<path d="M402.51 23.5383L322.991 103.057" stroke="#5E5E5E" stroke-miterlimit="10"/>
<path d="M38.0051 94.4668C27.9627 84.0722 22.4051 70.1487 22.5296 55.6959C22.6542 41.243 28.4508 27.4174 38.6709 17.1973C48.891 6.97725 62.7166 1.1806 77.1695 1.05606C91.6223 0.931534 105.546 6.4891 115.94 16.5316" stroke="#5E5E5E" stroke-miterlimit="10"/>
<path d="M105.986 120.591C93.9172 125.542 80.6539 126.815 67.8641 124.248C55.0744 121.68 43.3293 115.389 34.1063 106.163" stroke="#5E5E5E" stroke-miterlimit="10"/>
<mask id="path-9-inside-3_213_133" fill="white">
<path fill-rule="evenodd" clip-rule="evenodd" d="M156.717 53.5504C138.587 53.5504 123.89 68.2476 123.89 86.3775V494.712C123.89 512.842 138.587 527.54 156.717 527.54H310.719C328.849 527.54 343.546 512.842 343.546 494.712V86.3775C343.546 68.2476 328.849 53.5504 310.719 53.5504H156.717ZM209.822 60.7704C203.899 60.7704 199.098 65.5719 199.098 71.4948C199.098 77.4177 203.899 82.2192 209.822 82.2192H257.613C263.536 82.2192 268.338 77.4177 268.338 71.4948C268.338 65.5719 263.536 60.7704 257.613 60.7704H209.822Z"/>
</mask>
<path fill-rule="evenodd" clip-rule="evenodd" d="M156.717 53.5504C138.587 53.5504 123.89 68.2476 123.89 86.3775V494.712C123.89 512.842 138.587 527.54 156.717 527.54H310.719C328.849 527.54 343.546 512.842 343.546 494.712V86.3775C343.546 68.2476 328.849 53.5504 310.719 53.5504H156.717ZM209.822 60.7704C203.899 60.7704 199.098 65.5719 199.098 71.4948C199.098 77.4177 203.899 82.2192 209.822 82.2192H257.613C263.536 82.2192 268.338 77.4177 268.338 71.4948C268.338 65.5719 263.536 60.7704 257.613 60.7704H209.822Z" fill="white"/>
<path d="M125.89 86.3775C125.89 69.3521 139.691 55.5504 156.717 55.5504V51.5504C137.482 51.5504 121.89 67.143 121.89 86.3775H125.89ZM125.89 494.712V86.3775H121.89V494.712H125.89ZM156.717 525.54C139.691 525.54 125.89 511.738 125.89 494.712H121.89C121.89 513.947 137.482 529.54 156.717 529.54V525.54ZM310.719 525.54H156.717V529.54H310.719V525.54ZM341.546 494.712C341.546 511.738 327.744 525.54 310.719 525.54V529.54C329.953 529.54 345.546 513.947 345.546 494.712H341.546ZM341.546 86.3775V494.712H345.546V86.3775H341.546ZM310.719 55.5504C327.744 55.5504 341.546 69.3522 341.546 86.3775H345.546C345.546 67.143 329.953 51.5504 310.719 51.5504V55.5504ZM156.717 55.5504H310.719V51.5504H156.717V55.5504ZM201.098 71.4948C201.098 66.6765 205.004 62.7704 209.822 62.7704V58.7704C202.795 58.7704 197.098 64.4673 197.098 71.4948H201.098ZM209.822 80.2192C205.004 80.2192 201.098 76.3132 201.098 71.4948H197.098C197.098 78.5223 202.795 84.2192 209.822 84.2192V80.2192ZM257.613 80.2192H209.822V84.2192H257.613V80.2192ZM266.338 71.4948C266.338 76.3132 262.432 80.2192 257.613 80.2192V84.2192C264.641 84.2192 270.338 78.5223 270.338 71.4948H266.338ZM257.613 62.7704C262.432 62.7704 266.338 66.6765 266.338 71.4948H270.338C270.338 64.4673 264.641 58.7704 257.613 58.7704V62.7704ZM209.822 62.7704H257.613V58.7704H209.822V62.7704Z" fill="#080E42" mask="url(#path-9-inside-3_213_133)"/>
<rect x="135.64" y="92.2382" width="196.24" height="74.1523" rx="10.9424" fill="#D1D1D1" fill-opacity="0.54"/>
<rect x="213.536" y="175.12" width="118.344" height="82.1269" rx="10.9424" fill="#D1D1D1" fill-opacity="0.54"/>
<rect x="138.261" y="469.333" width="193.619" height="44.7841" rx="19.3596" fill="#D1D1D1" fill-opacity="0.54"/>
<rect x="138.261" y="269.346" width="193.619" height="186.504" rx="10.9424" fill="#D1D1D1" fill-opacity="0.54"/>
<rect x="135.64" y="175.12" width="67.3378" height="82.1269" rx="10.9424" fill="#D1D1D1" fill-opacity="0.54"/>
<g filter="url(#filter0_d_213_133)">
<rect x="292.179" y="342.001" width="85.8557" height="74.1523" rx="10.9424" fill="#080E42"/>
</g>
<g filter="url(#filter1_d_213_133)">
<rect x="53.1084" y="232.645" width="141.562" height="96.6226" rx="10.9424" fill="#080E42"/>
</g>
<path d="M96.1654 250.108C87.622 260.833 69.234 266.879 69.234 266.879C77.0019 305.075 96.1391 311.791 96.1654 311.804C96.1654 311.804 115.329 305.075 123.11 266.879C123.11 266.879 104.722 260.833 96.1654 250.108ZM98.4918 283.177V287.764C98.4488 288.322 98.1968 288.844 97.7862 289.224C97.3756 289.604 96.8367 289.815 96.2771 289.815C95.7176 289.815 95.1786 289.604 94.768 289.224C94.3574 288.844 94.1054 288.322 94.0624 287.764V283.296C93.1587 282.828 92.436 282.074 92.0081 281.15C91.5802 280.227 91.4714 279.188 91.6987 278.196C91.926 277.205 92.4766 276.317 93.2639 275.672C94.0511 275.027 95.0303 274.663 96.0474 274.636C97.0645 274.609 98.0618 274.92 98.8823 275.522C99.7028 276.124 100.3 276.981 100.58 277.959C100.86 278.937 100.807 279.981 100.429 280.926C100.051 281.87 99.3693 282.662 98.4918 283.177Z" fill="white"/>
<path d="M311.017 382.015V380.174L325.832 372.629V375.573L314.468 381.049L314.56 380.864V381.325L314.468 381.141L325.832 386.616V389.56L311.017 382.015ZM339.914 365.636L332.322 393.839H329.838L337.429 365.636H339.914ZM358.728 382.015L343.913 389.56V386.616L355.278 381.141L355.186 381.325V380.864L355.278 381.049L343.913 375.573V372.629L358.728 380.174V382.015Z" fill="white"/>
<path d="M180.965 253.705H134.876C134.452 253.705 134.108 254.029 134.108 254.429V254.455C134.108 254.854 134.452 255.178 134.876 255.178H180.965C181.389 255.178 181.733 254.854 181.733 254.455V254.429C181.733 254.029 181.389 253.705 180.965 253.705Z" fill="white"/>
<path d="M180.965 266.962H134.876C134.452 266.962 134.108 267.287 134.108 267.686V267.712C134.108 268.111 134.452 268.435 134.876 268.435H180.965C181.389 268.435 181.733 268.111 181.733 267.712V267.686C181.733 267.287 181.389 266.962 180.965 266.962Z" fill="white"/>
<path d="M180.965 280.22H134.876C134.452 280.22 134.108 280.544 134.108 280.944V280.969C134.108 281.369 134.452 281.693 134.876 281.693H180.965C181.389 281.693 181.733 281.369 181.733 280.969V280.944C181.733 280.544 181.389 280.22 180.965 280.22Z" fill="white"/>
<path d="M180.965 293.477H134.876C134.452 293.477 134.108 293.801 134.108 294.201V294.226C134.108 294.626 134.452 294.95 134.876 294.95H180.965C181.389 294.95 181.733 294.626 181.733 294.226V294.201C181.733 293.801 181.389 293.477 180.965 293.477Z" fill="white"/>
<g filter="url(#filter2_d_213_133)">
<rect x="256.2" y="142.031" width="141.562" height="74.1523" rx="10.9424" fill="#080E42"/>
</g>
<path d="M291.23 185.119L298.2 178.149C298.354 178.001 298.546 177.899 298.755 177.855C298.964 177.811 299.181 177.825 299.382 177.898C301.004 178.428 302.738 178.515 304.404 178.149C306.071 177.784 307.609 176.98 308.86 175.819C309.766 174.964 310.494 173.938 311.001 172.8C311.508 171.662 311.786 170.435 311.817 169.19C311.824 168.959 311.763 168.73 311.64 168.534C311.517 168.337 311.338 168.182 311.127 168.088C310.915 167.994 310.68 167.965 310.452 168.005C310.224 168.045 310.013 168.152 309.846 168.312L306.692 171.466C305.886 172.272 305.169 172.272 304.721 171.824L299.472 166.592C299.258 166.374 299.139 166.082 299.139 165.777C299.139 165.472 299.258 165.179 299.472 164.961L303.055 161.378C303.217 161.214 303.326 161.006 303.368 160.78C303.41 160.553 303.383 160.319 303.29 160.109C303.197 159.898 303.043 159.72 302.848 159.598C302.653 159.476 302.425 159.416 302.195 159.425C300.718 159.459 299.27 159.839 297.967 160.534C296.664 161.229 295.542 162.221 294.692 163.428C293.842 164.636 293.286 166.026 293.071 167.488C292.855 168.949 292.986 170.44 293.451 171.842C293.525 172.048 293.54 172.271 293.496 172.486C293.452 172.701 293.35 172.899 293.201 173.06L286.159 180.138C286.002 180.287 285.807 180.389 285.594 180.434C285.382 180.478 285.162 180.462 284.959 180.388C283.34 179.86 281.609 179.774 279.945 180.139C278.282 180.505 276.746 181.308 275.498 182.467C274.589 183.32 273.86 184.345 273.352 185.484C272.844 186.622 272.569 187.85 272.542 189.096C272.529 189.328 272.586 189.558 272.707 189.756C272.827 189.954 273.005 190.111 273.216 190.207C273.428 190.302 273.663 190.33 273.892 190.289C274.12 190.247 274.33 190.138 274.495 189.974L278.078 186.391C278.183 186.284 278.309 186.198 278.447 186.14C278.586 186.082 278.734 186.052 278.884 186.052C279.035 186.052 279.183 186.082 279.322 186.14C279.46 186.198 279.586 186.284 279.691 186.391L284.941 191.623C285.146 191.845 285.26 192.136 285.26 192.438C285.26 192.74 285.146 193.031 284.941 193.253L281.357 196.837C281.194 197.001 281.084 197.211 281.042 197.44C281.001 197.668 281.03 197.903 281.125 198.115C281.22 198.326 281.377 198.504 281.575 198.625C281.773 198.745 282.003 198.803 282.235 198.79C283.712 198.757 285.16 198.377 286.462 197.682C287.765 196.986 288.887 195.995 289.736 194.786C290.585 193.578 291.138 192.187 291.351 190.726C291.564 189.264 291.43 187.773 290.961 186.373C290.88 186.16 290.863 185.929 290.91 185.706C290.958 185.484 291.069 185.28 291.23 185.119Z" fill="white"/>
<path d="M386.926 158.688H325.854C325.292 158.688 324.837 159.012 324.837 159.411V159.437C324.837 159.836 325.292 160.161 325.854 160.161H386.926C387.487 160.161 387.943 159.836 387.943 159.437V159.411C387.943 159.012 387.487 158.688 386.926 158.688Z" fill="white"/>
<path d="M386.926 168.578H325.854C325.292 168.578 324.837 168.902 324.837 169.302V169.327C324.837 169.727 325.292 170.051 325.854 170.051H386.926C387.487 170.051 387.943 169.727 387.943 169.327V169.302C387.943 168.902 387.487 168.578 386.926 168.578Z" fill="white"/>
<path d="M386.926 178.468H325.854C325.292 178.468 324.837 178.792 324.837 179.192V179.217C324.837 179.617 325.292 179.941 325.854 179.941H386.926C387.487 179.941 387.943 179.617 387.943 179.217V179.192C387.943 178.792 387.487 178.468 386.926 178.468Z" fill="white"/>
<path d="M386.926 188.358H325.854C325.292 188.358 324.837 188.682 324.837 189.082V189.107C324.837 189.507 325.292 189.831 325.854 189.831H386.926C387.487 189.831 387.943 189.507 387.943 189.107V189.082C387.943 188.682 387.487 188.358 386.926 188.358Z" fill="white"/>
<path d="M386.926 198.249H325.854C325.292 198.249 324.837 198.573 324.837 198.972V198.998C324.837 199.397 325.292 199.722 325.854 199.722H386.926C387.487 199.722 387.943 199.397 387.943 198.998V198.972C387.943 198.573 387.487 198.249 386.926 198.249Z" fill="white"/>
<path d="M180.965 306.734H134.876C134.452 306.734 134.108 307.058 134.108 307.458V307.483C134.108 307.883 134.452 308.207 134.876 308.207H180.965C181.389 308.207 181.733 307.883 181.733 307.483V307.458C181.733 307.058 181.389 306.734 180.965 306.734Z" fill="white"/>
<defs>
<filter id="filter0_d_213_133" x="287.179" y="336.001" width="109.856" height="98.1523" filterUnits="userSpaceOnUse" color-interpolation-filters="sRGB">
<feFlood flood-opacity="0" result="BackgroundImageFix"/>
<feColorMatrix in="SourceAlpha" type="matrix" values="0 0 0 0 0 0 0 0 0 0 0 0 0 0 0 0 0 0 127 0" result="hardAlpha"/>
<feOffset dx="7" dy="6"/>
<feGaussianBlur stdDeviation="6"/>
<feComposite in2="hardAlpha" operator="out"/>
<feColorMatrix type="matrix" values="0 0 0 0 0 0 0 0 0 0 0 0 0 0 0 0 0 0 0.25 0"/>
<feBlend mode="normal" in2="BackgroundImageFix" result="effect1_dropShadow_213_133"/>
<feBlend mode="normal" in="SourceGraphic" in2="effect1_dropShadow_213_133" result="shape"/>
</filter>
<filter id="filter1_d_213_133" x="48.1084" y="226.645" width="165.562" height="120.623" filterUnits="userSpaceOnUse" color-interpolation-filters="sRGB">
<feFlood flood-opacity="0" result="BackgroundImageFix"/>
<feColorMatrix in="SourceAlpha" type="matrix" values="0 0 0 0 0 0 0 0 0 0 0 0 0 0 0 0 0 0 127 0" result="hardAlpha"/>
<feOffset dx="7" dy="6"/>
<feGaussianBlur stdDeviation="6"/>
<feComposite in2="hardAlpha" operator="out"/>
<feColorMatrix type="matrix" values="0 0 0 0 0 0 0 0 0 0 0 0 0 0 0 0 0 0 0.25 0"/>
<feBlend mode="normal" in2="BackgroundImageFix" result="effect1_dropShadow_213_133"/>
<feBlend mode="normal" in="SourceGraphic" in2="effect1_dropShadow_213_133" result="shape"/>
</filter>
<filter id="filter2_d_213_133" x="251.2" y="136.031" width="165.562" height="98.1523" filterUnits="userSpaceOnUse" color-interpolation-filters="sRGB">
<feFlood flood-opacity="0" result="BackgroundImageFix"/>
<feColorMatrix in="SourceAlpha" type="matrix" values="0 0 0 0 0 0 0 0 0 0 0 0 0 0 0 0 0 0 127 0" result="hardAlpha"/>
<feOffset dx="7" dy="6"/>
<feGaussianBlur stdDeviation="6"/>
<feComposite in2="hardAlpha" operator="out"/>
<feColorMatrix type="matrix" values="0 0 0 0 0 0 0 0 0 0 0 0 0 0 0 0 0 0 0.25 0"/>
<feBlend mode="normal" in2="BackgroundImageFix" result="effect1_dropShadow_213_133"/>
<feBlend mode="normal" in="SourceGraphic" in2="effect1_dropShadow_213_133" result="shape"/>
</filter>
</defs>
</svg>
