<svg width="624" height="470" viewBox="0 0 624 470" fill="none" xmlns="http://www.w3.org/2000/svg">
<path d="M529.535 402.037H526.158H522.332L421.154 401.576C417.098 401.787 413.084 400.66 409.731 398.368C406.381 396.027 403.931 392.612 402.787 388.689C402.24 386.758 402.001 384.752 402.077 382.747L403.304 108.824C403.304 108.283 403.304 107.698 403.383 107.181V106.719C403.383 106.438 403.473 106.201 403.507 105.965C403.567 105.503 403.653 105.044 403.766 104.592C404.411 101.859 405.687 99.3157 407.491 97.164C409.246 95.0854 411.454 93.4365 413.945 92.3439C416.436 91.2514 419.145 90.7443 421.863 90.8615L447.523 90.9966C448.811 90.941 450.083 91.3042 451.147 92.032C452.188 92.774 452.974 93.8196 453.398 95.0257C453.709 95.9757 453.831 96.9774 453.758 97.9744C453.758 98.1657 453.758 98.3683 453.758 98.5596C453.758 98.9535 453.758 99.3474 453.758 99.7526C453.718 100.439 453.718 101.126 453.758 101.812C453.862 102.783 454.254 103.7 454.884 104.446C455.503 105.176 456.332 105.699 457.258 105.943C457.929 106.073 458.613 106.122 459.295 106.089C459.633 106.089 459.959 106.089 460.297 106.089L499.057 106.314H499.902C500.385 106.342 500.87 106.342 501.353 106.314C502.03 106.241 502.681 106.014 503.255 105.65C503.824 105.301 504.316 104.841 504.703 104.298C505.09 103.754 505.363 103.139 505.506 102.487C505.614 101.935 505.66 101.373 505.641 100.81V97.9856C505.624 97.443 505.661 96.8999 505.754 96.365C505.878 95.6784 506.113 95.0168 506.452 94.4067C507.137 93.2024 508.225 92.278 509.524 91.7956C510.447 91.4671 511.429 91.3404 512.405 91.4242H513.081L531.088 91.5593H533.417H534.014C534.156 91.5708 534.299 91.5708 534.442 91.5593C534.902 91.5635 535.361 91.6049 535.815 91.6831C538.14 91.9621 540.379 92.7291 542.387 93.934C545.69 95.9029 548.262 98.8935 549.714 102.454C550.616 104.722 551.052 107.149 550.997 109.589V117.67L550.592 236.753L550.04 383.715C550.069 385.528 549.834 387.337 549.343 389.083C548.854 390.84 548.094 392.511 547.092 394.035C546.065 395.555 544.826 396.919 543.411 398.087C540.507 400.427 536.939 401.793 533.215 401.992C531.943 402.026 530.739 402.037 529.535 402.037ZM522.669 400.585H526.158C528.409 400.585 530.806 400.585 533.091 400.585C536.514 400.397 539.793 399.142 542.466 396.995C543.762 395.915 544.899 394.657 545.842 393.258C546.768 391.85 547.474 390.31 547.936 388.689C548.388 387.07 548.604 385.395 548.577 383.715L549.86 117.748C549.86 116.274 549.86 114.822 549.86 113.427C549.939 109.544 550.018 105.875 548.735 102.926C547.381 99.5544 544.968 96.7143 541.858 94.8343C539.963 93.6586 537.843 92.8919 535.635 92.5835C535.227 92.5027 534.812 92.4575 534.397 92.4484H533.913H533.361H531.043H513.036C512.81 92.4484 512.574 92.4484 512.326 92.4484C511.492 92.374 510.651 92.4815 509.862 92.7635C508.819 93.1782 507.951 93.9419 507.408 94.9244C507.126 95.4359 506.932 95.9914 506.834 96.5675C506.758 97.0399 506.728 97.5186 506.744 97.9969V100.799C506.769 101.441 506.716 102.083 506.587 102.712C506.422 103.502 506.098 104.251 505.636 104.912C505.173 105.574 504.582 106.135 503.897 106.562C503.178 107.015 502.367 107.3 501.522 107.394C500.982 107.394 500.464 107.394 499.958 107.394H499.125L458.879 107.237C458.296 107.257 457.712 107.196 457.146 107.057C455.98 106.755 454.935 106.103 454.152 105.188C453.358 104.268 452.857 103.132 452.711 101.925C452.647 101.176 452.628 100.425 452.655 99.6738C452.655 99.2799 452.655 98.8972 452.655 98.5483C452.655 98.3345 452.655 98.1319 452.655 97.9293C452.716 97.0818 452.617 96.2303 452.363 95.4196C452.023 94.445 451.385 93.6023 450.539 93.0111C449.686 92.4203 448.66 92.1312 447.624 92.1895L421.942 92.0995C419.438 92.0137 416.945 92.4745 414.638 93.4501C412.3 94.4758 410.223 96.0144 408.56 97.9518C406.884 99.9536 405.701 102.32 405.105 104.862C404.708 106.763 404.557 108.707 404.655 110.647C404.655 111.412 404.655 112.189 404.655 112.965L403.586 382.724C403.516 384.589 403.737 386.453 404.238 388.25C405.291 391.86 407.547 395.001 410.631 397.152C413.741 399.275 417.462 400.315 421.221 400.112L522.411 400.585H522.669Z" fill="#080E42" stroke="#080E42" stroke-width="0.363025"/>
<path d="M316.627 388.153C316.627 388.311 298.187 388.446 275.45 388.446C252.713 388.446 234.273 388.311 234.273 388.153C234.273 387.996 252.705 387.861 275.45 387.861C298.196 387.861 316.627 387.984 316.627 388.153Z" fill="#080E42"/>
<path d="M318.822 385.148C318.653 385.148 318.529 378.131 318.529 369.443C318.529 360.754 318.653 353.737 318.822 353.737C318.991 353.737 319.115 360.754 319.115 369.443C319.115 378.131 318.979 385.148 318.822 385.148Z" fill="#080E42"/>
<path d="M197.437 183.862H108.335V262.279H197.437V183.862Z" fill="#F2F2F2"/>
<path d="M497.442 171.356H420.628V231.599H497.442V171.356Z" fill="#F2F2F2"/>
<path d="M308.13 94.9292H256.427V191.308H308.13V94.9292Z" fill="#F2F2F2"/>
<path d="M370.019 119.486H318.315V215.865H370.019V119.486Z" fill="#F2F2F2"/>
<path d="M308.113 210.231H256.409V306.61H308.113V210.231Z" fill="#F2F2F2"/>
<path d="M369.523 232.391H317.819V328.77H369.523V232.391Z" fill="#F2F2F2"/>
<path d="M578.902 171.356H513.807V231.599H578.902V171.356Z" fill="#F2F2F2"/>
<g opacity="0.18">
<path d="M509.197 447.966C509.197 447.663 510.153 447.415 511.324 447.415L510.772 447.966V447.775C510.772 447.708 510.772 447.64 510.772 447.561C510.772 447.482 510.772 447.325 510.772 447.167C510.794 446.936 510.832 446.707 510.885 446.481C510.986 446.098 511.133 445.862 511.279 445.862C511.425 445.862 511.571 446.098 511.673 446.481C511.673 446.683 511.763 446.908 511.797 447.167C511.83 447.426 511.797 447.46 511.797 447.561V447.966C511.549 448.214 512.359 447.415 511.245 448.529C510.153 448.563 509.197 448.282 509.197 447.966Z" fill="#080E42"/>
<path d="M500.655 447.966C500.655 447.663 501.612 447.415 502.794 447.415C503.975 447.415 504.932 447.663 504.932 447.966C504.932 448.27 503.975 448.529 502.794 448.529C501.612 448.529 500.655 448.282 500.655 447.966Z" fill="#080E42"/>
<path d="M492.124 447.966C492.124 447.663 493.08 447.415 494.262 447.415C495.444 447.415 496.389 447.663 496.389 447.966C496.389 448.27 495.444 448.529 494.262 448.529C493.08 448.529 492.124 448.282 492.124 447.966Z" fill="#080E42"/>
<path d="M483.638 447.966C483.638 447.663 484.594 447.415 485.776 447.415C486.958 447.415 487.903 447.663 487.903 447.966C487.903 448.27 486.947 448.529 485.776 448.529C484.606 448.529 483.638 448.282 483.638 447.966Z" fill="#080E42"/>
<path d="M475.062 447.966C475.062 447.663 476.019 447.415 477.201 447.415C478.383 447.415 479.328 447.663 479.328 447.966C479.328 448.27 478.371 448.529 477.201 448.529C476.03 448.529 475.062 448.282 475.062 447.966Z" fill="#080E42"/>
<path d="M466.531 447.966C466.531 447.663 467.488 447.415 468.658 447.415C469.829 447.415 470.797 447.663 470.797 447.966C470.797 448.27 469.84 448.529 468.658 448.529C467.477 448.529 466.531 448.282 466.531 447.966Z" fill="#080E42"/>
<path d="M458 447.966C458 447.663 458.957 447.415 460.127 447.415C461.298 447.415 462.265 447.663 462.265 447.966C462.265 448.27 461.309 448.529 460.127 448.529C458.945 448.529 458 448.282 458 447.966Z" fill="#080E42"/>
<path d="M449.458 447.966C449.458 447.663 450.415 447.415 451.597 447.415C452.779 447.415 453.735 447.663 453.735 447.966C453.735 448.27 452.779 448.529 451.597 448.529C450.415 448.529 449.458 448.282 449.458 447.966Z" fill="#080E42"/>
<path d="M440.927 447.966C440.927 447.663 441.884 447.415 443.066 447.415C444.247 447.415 445.193 447.663 445.193 447.966C445.193 448.27 444.247 448.529 443.066 448.529C441.884 448.529 440.927 448.282 440.927 447.966Z" fill="#080E42"/>
<path d="M432.396 447.966C432.396 447.663 433.353 447.415 434.534 447.415C435.716 447.415 436.661 447.663 436.661 447.966C436.661 448.27 435.705 448.529 434.534 448.529C433.364 448.529 432.396 448.282 432.396 447.966Z" fill="#080E42"/>
<path d="M423.865 447.966C423.865 447.663 424.822 447.415 425.992 447.415C427.163 447.415 428.131 447.663 428.131 447.966C428.131 448.27 427.174 448.529 425.992 448.529C424.811 448.529 423.865 448.282 423.865 447.966Z" fill="#080E42"/>
<path d="M415.334 447.966C415.334 447.663 416.291 447.415 417.462 447.415C418.632 447.415 419.6 447.663 419.6 447.966C419.6 448.27 418.643 448.529 417.462 448.529C416.28 448.529 415.334 448.282 415.334 447.966Z" fill="#080E42"/>
<path d="M406.803 447.966C406.803 447.663 407.749 447.415 408.93 447.415C410.112 447.415 411.069 447.663 411.069 447.966C411.069 448.27 410.112 448.529 408.93 448.529C407.749 448.529 406.803 448.282 406.803 447.966Z" fill="#080E42"/>
<path d="M398.262 447.966C398.262 447.663 399.218 447.415 400.4 447.415C401.582 447.415 402.538 447.663 402.538 447.966C402.538 448.27 401.582 448.529 400.4 448.529C399.218 448.529 398.262 448.282 398.262 447.966Z" fill="#080E42"/>
<path d="M389.73 447.966C389.73 447.663 390.687 447.415 391.869 447.415C393.051 447.415 393.996 447.663 393.996 447.966C393.996 448.27 393.051 448.529 391.869 448.529C390.687 448.529 389.73 448.282 389.73 447.966Z" fill="#080E42"/>
<path d="M383.339 445.839C383.642 445.839 383.89 446.796 383.89 447.966L383.339 447.415H383.766H384.16C384.391 447.436 384.621 447.474 384.847 447.528C385.229 447.629 385.466 447.775 385.466 447.921C385.466 448.068 385.229 448.214 384.847 448.315C384.621 448.373 384.392 448.415 384.16 448.439H383.766H383.339L382.776 447.876C382.776 446.796 383.023 445.839 383.339 445.839Z" fill="#080E42"/>
<path d="M383.339 437.309C383.642 437.309 383.89 438.265 383.89 439.436C383.89 440.606 383.642 441.552 383.339 441.552C383.035 441.552 382.776 440.606 382.776 439.436C382.776 438.265 383.023 437.309 383.339 437.309Z" fill="#080E42"/>
<path d="M383.339 428.879C383.642 428.879 383.89 429.824 383.89 430.995C383.89 432.165 383.642 433.122 383.339 433.122C383.035 433.122 382.776 432.165 382.776 430.995C382.776 429.824 383.023 428.879 383.339 428.879Z" fill="#080E42"/>
<path d="M383.339 420.427C383.642 420.427 383.89 421.383 383.89 422.554C383.89 423.724 383.642 424.67 383.339 424.67C383.035 424.67 382.776 423.724 382.776 422.554C382.776 421.383 383.023 420.427 383.339 420.427Z" fill="#080E42"/>
<path d="M383.339 411.918C383.642 411.918 383.89 412.863 383.89 414.034C383.89 415.204 383.642 416.161 383.339 416.161C383.035 416.161 382.776 415.204 382.776 414.034C382.776 412.863 383.023 411.918 383.339 411.918Z" fill="#080E42"/>
<path d="M383.339 403.432C383.642 403.432 383.89 404.389 383.89 405.559C383.89 406.73 383.642 407.675 383.339 407.675C383.035 407.675 382.776 406.73 382.776 405.559C382.776 404.389 383.023 403.432 383.339 403.432Z" fill="#080E42"/>
<path d="M383.339 394.958C383.642 394.958 383.89 395.903 383.89 397.074C383.89 398.244 383.642 399.201 383.339 399.201C383.035 399.201 382.776 398.244 382.776 397.074C382.776 395.903 383.023 394.958 383.339 394.958Z" fill="#080E42"/>
<path d="M383.339 386.471C383.642 386.471 383.89 387.428 383.89 388.599C383.89 389.769 383.642 390.714 383.339 390.714C383.035 390.714 382.776 389.769 382.776 388.599C382.776 387.428 383.023 386.471 383.339 386.471Z" fill="#080E42"/>
<path d="M383.339 377.997C383.642 377.997 383.89 378.943 383.89 380.113C383.89 381.284 383.642 382.24 383.339 382.24C383.035 382.24 382.776 381.284 382.776 380.113C382.776 378.943 383.023 377.997 383.339 377.997Z" fill="#080E42"/>
<path d="M385.465 371.627C385.465 371.931 384.508 372.178 383.337 372.178L383.889 371.627V372.032C383.889 372.137 383.889 372.272 383.889 372.437C383.867 372.665 383.829 372.89 383.776 373.113C383.675 373.495 383.529 373.732 383.382 373.732C383.236 373.732 383.09 373.495 382.989 373.113C382.931 372.891 382.89 372.665 382.865 372.437C382.865 372.272 382.865 372.137 382.865 372.032V371.627L383.427 371.064C384.508 371.064 385.465 371.323 385.465 371.627Z" fill="#080E42"/>
<path d="M393.996 371.627C393.996 371.931 393.039 372.178 391.869 372.178C390.698 372.178 389.73 371.931 389.73 371.627C389.73 371.323 390.687 371.064 391.869 371.064C393.051 371.064 393.996 371.323 393.996 371.627Z" fill="#080E42"/>
<path d="M402.538 371.627C402.538 371.931 401.582 372.178 400.4 372.178C399.218 372.178 398.262 371.931 398.262 371.627C398.262 371.323 399.218 371.064 400.4 371.064C401.582 371.064 402.538 371.323 402.538 371.627Z" fill="#080E42"/>
<path d="M411.069 371.627C411.069 371.931 410.112 372.178 408.93 372.178C407.749 372.178 406.803 371.931 406.803 371.627C406.803 371.323 407.749 371.064 408.93 371.064C410.112 371.064 411.069 371.323 411.069 371.627Z" fill="#080E42"/>
<path d="M419.6 371.627C419.6 371.931 418.643 372.178 417.462 372.178C416.28 372.178 415.334 371.931 415.334 371.627C415.334 371.323 416.291 371.064 417.462 371.064C418.632 371.064 419.6 371.323 419.6 371.627Z" fill="#080E42"/>
<path d="M428.131 371.627C428.131 371.931 427.174 372.178 426.004 372.178C424.833 372.178 423.865 371.931 423.865 371.627C423.865 371.323 424.822 371.064 426.004 371.064C427.185 371.064 428.131 371.323 428.131 371.627Z" fill="#080E42"/>
<path d="M436.661 371.627C436.661 371.931 435.705 372.178 434.534 372.178C433.364 372.178 432.396 371.931 432.396 371.627C432.396 371.323 433.353 371.064 434.534 371.064C435.716 371.064 436.661 371.323 436.661 371.627Z" fill="#080E42"/>
<path d="M445.193 371.627C445.193 371.931 444.247 372.178 443.066 372.178C441.884 372.178 440.927 371.931 440.927 371.627C440.927 371.323 441.884 371.064 443.066 371.064C444.247 371.064 445.193 371.323 445.193 371.627Z" fill="#080E42"/>
<path d="M453.735 371.627C453.735 371.931 452.779 372.178 451.597 372.178C450.415 372.178 449.458 371.931 449.458 371.627C449.458 371.323 450.415 371.064 451.597 371.064C452.779 371.064 453.735 371.323 453.735 371.627Z" fill="#080E42"/>
<path d="M462.254 371.627C462.254 371.931 461.298 372.178 460.116 372.178C458.934 372.178 457.989 371.931 457.989 371.627C457.989 371.323 458.934 371.064 460.116 371.064C461.298 371.064 462.254 371.323 462.254 371.627Z" fill="#080E42"/>
<path d="M470.797 371.627C470.797 371.931 469.84 372.178 468.658 372.178C467.477 372.178 466.531 371.931 466.531 371.627C466.531 371.323 467.488 371.064 468.658 371.064C469.829 371.064 470.797 371.323 470.797 371.627Z" fill="#080E42"/>
<path d="M479.328 371.627C479.328 371.931 478.371 372.178 477.201 372.178C476.03 372.178 475.062 371.931 475.062 371.627C475.062 371.323 476.019 371.064 477.201 371.064C478.383 371.064 479.328 371.323 479.328 371.627Z" fill="#080E42"/>
<path d="M487.858 371.627C487.858 371.931 486.902 372.178 485.731 372.178C484.561 372.178 483.593 371.931 483.593 371.627C483.593 371.323 484.549 371.064 485.731 371.064C486.913 371.064 487.858 371.323 487.858 371.627Z" fill="#080E42"/>
<path d="M496.389 371.627C496.389 371.931 495.444 372.178 494.262 372.178C493.08 372.178 492.124 371.931 492.124 371.627C492.124 371.323 493.08 371.064 494.262 371.064C495.444 371.064 496.389 371.323 496.389 371.627Z" fill="#080E42"/>
<path d="M504.932 371.627C504.932 371.931 503.975 372.178 502.794 372.178C501.612 372.178 500.655 371.931 500.655 371.627C500.655 371.323 501.612 371.064 502.794 371.064C503.975 371.064 504.932 371.323 504.932 371.627Z" fill="#080E42"/>
<path d="M511.324 373.754C511.02 373.754 510.772 372.797 510.772 371.627L511.324 372.178H510.896H510.491C510.264 372.156 510.038 372.119 509.816 372.066C509.433 371.964 509.197 371.818 509.197 371.672C509.197 371.526 509.433 371.379 509.816 371.278C510.038 371.221 510.263 371.179 510.491 371.154H510.896H511.324C511.571 371.402 510.772 370.603 511.875 371.717C511.875 372.797 511.628 373.754 511.324 373.754Z" fill="#080E42"/>
<path d="M511.324 382.24C511.021 382.24 510.773 381.284 510.773 380.113C510.773 378.943 511.021 377.997 511.324 377.997C511.628 377.997 511.876 378.943 511.876 380.113C511.876 381.284 511.628 382.24 511.324 382.24Z" fill="#080E42"/>
<path d="M511.324 390.715C511.021 390.715 510.773 389.769 510.773 388.599C510.773 387.428 511.021 386.472 511.324 386.472C511.628 386.472 511.876 387.428 511.876 388.599C511.876 389.769 511.628 390.715 511.324 390.715Z" fill="#080E42"/>
<path d="M511.324 399.201C511.021 399.201 510.773 398.244 510.773 397.074C510.773 395.903 511.021 394.958 511.324 394.958C511.628 394.958 511.876 395.903 511.876 397.074C511.876 398.244 511.628 399.201 511.324 399.201Z" fill="#080E42"/>
<path d="M511.324 407.675C511.021 407.675 510.773 406.73 510.773 405.559C510.773 404.389 511.021 403.432 511.324 403.432C511.628 403.432 511.876 404.389 511.876 405.559C511.876 406.73 511.628 407.675 511.324 407.675Z" fill="#080E42"/>
<path d="M511.324 416.161C511.021 416.161 510.773 415.205 510.773 414.034C510.773 412.864 511.021 411.918 511.324 411.918C511.628 411.918 511.876 412.864 511.876 414.034C511.876 415.205 511.628 416.161 511.324 416.161Z" fill="#080E42"/>
<path d="M511.324 424.636C511.021 424.636 510.773 423.69 510.773 422.52C510.773 421.349 511.021 420.393 511.324 420.393C511.628 420.393 511.876 421.349 511.876 422.52C511.876 423.69 511.628 424.636 511.324 424.636Z" fill="#080E42"/>
<path d="M511.324 433.122C511.021 433.122 510.773 432.165 510.773 430.995C510.773 429.824 511.021 428.879 511.324 428.879C511.628 428.879 511.876 429.824 511.876 430.995C511.876 432.165 511.628 433.122 511.324 433.122Z" fill="#080E42"/>
<path d="M511.324 441.596C511.021 441.596 510.773 440.651 510.773 439.481C510.773 438.31 511.021 437.354 511.324 437.354C511.628 437.354 511.876 438.31 511.876 439.481C511.876 440.651 511.628 441.596 511.324 441.596Z" fill="#080E42"/>
<path d="M386.377 444.297H380.277V450.397H386.377V444.297Z" fill="#080E42"/>
<path d="M386.377 368.577H380.277V374.677H386.377V368.577Z" fill="#080E42"/>
<path d="M514.375 368.577H508.275V374.677H514.375V368.577Z" fill="#080E42"/>
<path d="M514.375 444.027H508.275V450.127H514.375V444.027Z" fill="#080E42"/>
<path d="M450.369 444.027H444.27V450.127H450.369V444.027Z" fill="#080E42"/>
<path d="M450.369 368.577H444.27V374.677H450.369V368.577Z" fill="#080E42"/>
<path d="M386.377 406.752H380.277V412.852H386.377V406.752Z" fill="#080E42"/>
<path d="M514.375 406.752H508.275V412.852H514.375V406.752Z" fill="#080E42"/>
</g>
<path d="M153.758 85.5715C153.758 86.1507 153.586 86.7169 153.264 87.1983C152.942 87.6798 152.484 88.0548 151.949 88.2759C151.414 88.4971 150.825 88.5544 150.257 88.4405C149.689 88.3267 149.168 88.0469 148.759 87.6366C148.35 87.2262 148.072 86.7037 147.961 86.1354C147.849 85.567 147.909 84.9783 148.132 84.4438C148.355 83.9093 148.732 83.4531 149.214 83.1329C149.697 82.8128 150.264 82.6431 150.843 82.6453C151.227 82.6453 151.607 82.7211 151.961 82.8682C152.316 83.0154 152.638 83.2311 152.908 83.503C153.179 83.7749 153.394 84.0975 153.539 84.4525C153.685 84.8075 153.76 85.1877 153.758 85.5715Z" fill="#080E42"/>
<path d="M234.273 78.3688C234.273 78.9475 234.102 79.5133 233.78 79.9945C233.459 80.4757 233.002 80.8507 232.467 81.0722C231.932 81.2937 231.344 81.3516 230.776 81.2387C230.209 81.1258 229.687 80.8471 229.278 80.4379C228.869 80.0287 228.59 79.5073 228.477 78.9397C228.364 78.372 228.422 77.7837 228.644 77.249C228.865 76.7143 229.24 76.2573 229.721 75.9358C230.203 75.6142 230.768 75.4426 231.347 75.4426C232.122 75.4456 232.865 75.7548 233.413 76.303C233.961 76.8511 234.27 77.5936 234.273 78.3688Z" fill="#080E42"/>
<path d="M151.407 83.366H150.281V59.2476C150.281 48.387 157.36 39.5635 166.038 39.5635H192.823C201.534 39.5635 208.58 48.387 208.58 59.2476V70.5809C208.58 74.5649 211.112 77.8062 214.207 77.8062H230.273V78.9317H214.297C210.572 78.9317 207.544 75.1839 207.544 70.5809V59.2476C207.544 49.0173 200.96 40.6889 192.913 40.6889H166.128C158.036 40.6889 151.497 49.0173 151.497 59.2476L151.407 83.366Z" fill="#080E42"/>
<path d="M321.36 29.5019C321.36 30.0806 321.188 30.6463 320.867 31.1275C320.545 31.6087 320.088 31.9838 319.553 32.2053C319.019 32.4268 318.43 32.4847 317.863 32.3718C317.295 32.2589 316.774 31.9802 316.364 31.571C315.955 31.1617 315.676 30.6403 315.564 30.0727C315.451 29.5051 315.509 28.9167 315.73 28.3821C315.952 27.8474 316.327 27.3904 316.808 27.0688C317.289 26.7473 317.855 26.5757 318.434 26.5757C319.21 26.5757 319.954 26.884 320.503 27.4327C321.051 27.9815 321.36 28.7258 321.36 29.5019Z" fill="#080E42"/>
<path d="M477.173 91.4467C477.175 92.0259 477.005 92.5927 476.685 93.0754C476.365 93.5581 475.909 93.9349 475.374 94.1581C474.84 94.3813 474.251 94.4409 473.683 94.3292C473.114 94.2176 472.592 93.9398 472.181 93.531C471.771 93.1222 471.491 92.6009 471.377 92.0329C471.264 91.465 471.321 90.8761 471.542 90.3407C471.763 89.8054 472.138 89.3477 472.62 89.0257C473.101 88.7036 473.667 88.5317 474.246 88.5317C475.021 88.5317 475.763 88.8385 476.312 89.3848C476.86 89.9311 477.17 90.6725 477.173 91.4467Z" fill="#080E42"/>
<path d="M474.804 91.4467H473.678V24.5613C473.669 18.3704 471.206 12.4356 466.828 8.05803C462.451 3.68042 456.516 1.21714 450.325 1.20821H342.35C336.159 1.21714 330.224 3.68042 325.846 8.05803C321.469 12.4356 319.005 18.3704 318.997 24.5613V29.502H317.871V24.5613C317.877 18.071 320.458 11.8483 325.047 7.25894C329.637 2.66962 335.859 0.0887235 342.35 0.0827637H450.325C456.815 0.0887235 463.038 2.66962 467.628 7.25894C472.217 11.8483 474.798 18.071 474.804 24.5613V91.4467Z" fill="#080E42"/>
<path d="M418.88 147.494C418.567 147.339 418.279 147.138 418.025 146.898C417.507 146.481 416.753 145.851 415.853 145.063C414.041 143.488 411.599 141.226 409.021 138.603L408.83 138.401L409.01 138.198L409.156 138.041C411.632 135.261 413.895 132.773 415.549 130.984C416.405 129.979 417.335 129.039 418.329 128.17C417.583 129.257 416.759 130.287 415.864 131.254C414.277 133.111 412.06 135.655 409.595 138.435L409.449 138.592V138.187C412.026 140.809 414.401 143.105 416.145 144.76C417.118 145.608 418.032 146.522 418.88 147.494Z" fill="#7C7C7C"/>
<path d="M429.28 152.12C429.066 148.274 429.047 144.42 429.224 140.572C429.196 136.721 429.373 132.87 429.753 129.037C429.967 132.882 429.986 136.736 429.809 140.584C429.836 144.436 429.659 148.286 429.28 152.12Z" fill="#7C7C7C"/>
<path d="M526.935 129.048C526.935 129.206 505.248 129.274 478.541 129.206C451.834 129.138 430.146 128.936 430.146 128.778C430.146 128.621 451.823 128.542 478.541 128.621C505.259 128.7 526.935 128.936 526.935 129.048Z" fill="#7C7C7C"/>
<path d="M527.458 147.348C527.071 144.314 526.887 141.257 526.907 138.198C526.712 135.151 526.712 132.095 526.907 129.048C527.281 132.08 527.465 135.132 527.458 138.187C527.646 141.238 527.646 144.297 527.458 147.348Z" fill="#7C7C7C"/>
<path d="M510.695 134.108C510.912 133.909 511.181 133.776 511.472 133.726C512.264 133.575 513.085 133.719 513.779 134.131C514.313 134.422 514.766 134.842 515.096 135.353C515.426 135.864 515.623 136.45 515.669 137.057C515.694 137.796 515.437 138.516 514.949 139.071C514.435 139.655 513.763 140.078 513.013 140.287C512.277 140.494 511.498 140.494 510.762 140.287C510.061 140.063 509.46 139.601 509.063 138.981C508.76 138.459 508.58 137.874 508.537 137.271C508.494 136.669 508.59 136.064 508.815 135.504C509.097 134.753 509.614 134.113 510.29 133.681C510.527 133.51 510.808 133.412 511.1 133.399C511.1 133.455 510.83 133.557 510.425 133.872C509.852 134.331 509.429 134.95 509.209 135.65C509.031 136.145 508.965 136.674 509.018 137.198C509.07 137.722 509.24 138.228 509.513 138.678C509.853 139.185 510.358 139.559 510.943 139.735C511.579 139.915 512.253 139.915 512.89 139.735C513.503 139.599 514.055 139.265 514.462 138.786C514.868 138.306 515.106 137.707 515.14 137.079C515.06 136.191 514.637 135.368 513.96 134.786C513.284 134.204 512.407 133.909 511.517 133.962C510.988 134.018 510.729 134.164 510.695 134.108Z" fill="#7C7C7C"/>
<path d="M523.897 144.991C521.927 144.032 520.044 142.902 518.27 141.615C516.385 140.471 514.604 139.164 512.947 137.71C516.813 139.824 520.485 142.275 523.92 145.036L523.897 144.991Z" fill="#7C7C7C"/>
<path d="M421.188 233.242C421.03 233.242 420.681 218.757 420.411 200.896C420.141 183.035 420.051 168.551 420.22 168.551C420.389 168.551 420.726 183.024 420.996 200.896C421.266 218.768 421.357 233.242 421.188 233.242Z" fill="#7C7C7C"/>
<path d="M499.507 170.948C499.507 171.106 481.804 171.241 459.981 171.241C438.159 171.241 420.444 171.106 420.444 170.948C420.444 170.791 438.148 170.656 459.981 170.656C481.815 170.656 499.507 170.78 499.507 170.948Z" fill="#7C7C7C"/>
<path d="M497.15 232.038C496.992 232.038 496.857 218.892 496.857 202.686C496.857 186.479 496.992 173.345 497.15 173.345C497.307 173.345 497.442 186.479 497.442 202.686C497.442 218.892 497.273 232.038 497.15 232.038Z" fill="#7C7C7C"/>
<path d="M507.892 232.038C507.892 232.195 488.051 232.33 463.572 232.33C439.094 232.33 419.252 232.195 419.252 232.038C419.252 231.88 439.094 231.745 463.572 231.745C488.051 231.745 507.892 231.869 507.892 232.038Z" fill="#7C7C7C"/>
<path d="M494.714 218.859C494.714 219.017 480.769 219.152 463.572 219.152C446.375 219.152 432.431 219.017 432.431 218.859C432.431 218.701 446.364 218.566 463.572 218.566C480.78 218.566 494.714 218.701 494.714 218.859Z" fill="#7C7C7C"/>
<path d="M475.547 208.077C475.547 208.234 466.971 208.369 456.414 208.369C445.857 208.369 437.281 208.234 437.281 208.077C437.281 207.919 445.868 207.784 456.414 207.784C466.959 207.784 475.547 207.919 475.547 208.077Z" fill="#7C7C7C"/>
<path d="M428.661 180.323C428.661 180.323 428.728 180.233 428.886 180.087C429.123 179.872 429.388 179.691 429.674 179.547C430.751 179.028 431.968 178.874 433.14 179.108C434.019 179.261 434.852 179.613 435.575 180.135C436.299 180.658 436.894 181.338 437.316 182.124C437.786 183.092 437.913 184.192 437.676 185.242C437.417 186.348 436.861 187.363 436.068 188.176C435.274 188.989 434.274 189.57 433.174 189.856C432.126 190.108 431.022 189.997 430.045 189.541C429.253 189.128 428.566 188.54 428.033 187.823C427.501 187.106 427.139 186.277 426.973 185.399C426.717 184.232 426.856 183.013 427.367 181.933C427.504 181.643 427.682 181.374 427.896 181.134C428.031 180.976 428.121 180.897 428.132 180.909C428.143 180.92 427.873 181.291 427.569 182.034C427.096 183.334 427.109 184.76 427.605 186.051C428.102 187.342 429.048 188.41 430.27 189.057C431.137 189.456 432.115 189.543 433.039 189.305C434.038 189.044 434.948 188.519 435.673 187.784C436.399 187.049 436.912 186.132 437.158 185.129C437.378 184.204 437.274 183.231 436.865 182.372C436.488 181.647 435.954 181.015 435.301 180.523C434.649 180.03 433.896 179.689 433.095 179.524C432.001 179.269 430.855 179.352 429.809 179.761C429.032 180.065 428.706 180.38 428.661 180.323Z" fill="#7C7C7C"/>
<path d="M514.729 233.242C514.56 233.242 514.245 218.757 514.02 200.896C513.795 183.035 513.739 168.551 513.896 168.551C514.054 168.551 514.38 183.024 514.605 200.896C514.83 218.768 514.886 233.242 514.729 233.242Z" fill="#7C7C7C"/>
<path d="M581.232 170.948C581.232 171.106 566.196 171.241 547.66 171.241C529.123 171.241 514.099 171.106 514.099 170.948C514.099 170.791 529.123 170.656 547.66 170.656C566.196 170.656 581.232 170.78 581.232 170.948Z" fill="#7C7C7C"/>
<path d="M579.195 232.038C579.037 232.038 578.902 218.892 578.902 202.686C578.902 186.479 579.037 173.345 579.195 173.345C579.353 173.345 579.488 186.479 579.488 202.686C579.488 218.892 579.307 232.038 579.195 232.038Z" fill="#7C7C7C"/>
<path d="M579.195 232.038C579.195 232.195 564.395 232.33 546.14 232.33C527.886 232.33 513.075 232.195 513.075 232.038C513.075 231.88 527.874 231.745 546.14 231.745C564.406 231.745 579.195 231.869 579.195 232.038Z" fill="#7C7C7C"/>
<path d="M577.158 218.859C577.158 219.017 565.318 219.152 550.721 219.152C536.124 219.152 524.262 219.017 524.262 218.859C524.262 218.701 536.101 218.566 550.721 218.566C565.341 218.566 577.158 218.701 577.158 218.859Z" fill="#7C7C7C"/>
<path d="M569.381 208.077C569.381 208.234 560.794 208.369 550.248 208.369C539.703 208.369 531.116 208.234 531.116 208.077C531.116 207.919 539.692 207.784 550.248 207.784C560.805 207.784 569.381 207.919 569.381 208.077Z" fill="#7C7C7C"/>
<path d="M522.483 180.323C522.483 180.323 522.55 180.233 522.708 180.087C522.947 179.875 523.212 179.694 523.496 179.547C524.573 179.029 525.79 178.875 526.962 179.108C527.841 179.261 528.674 179.613 529.397 180.135C530.121 180.658 530.716 181.338 531.138 182.124C531.614 183.091 531.741 184.192 531.498 185.242C531.239 186.348 530.683 187.363 529.889 188.176C529.096 188.989 528.095 189.57 526.996 189.856C525.947 190.107 524.844 189.996 523.867 189.541C523.075 189.129 522.388 188.542 521.857 187.824C521.327 187.106 520.967 186.277 520.806 185.399C520.548 184.233 520.682 183.014 521.189 181.933C521.326 181.643 521.504 181.374 521.717 181.134C521.864 180.976 521.943 180.897 521.954 180.909C521.965 180.92 521.695 181.291 521.391 182.034C520.918 183.334 520.931 184.76 521.427 186.051C521.923 187.342 522.87 188.41 524.092 189.057C524.959 189.456 525.937 189.543 526.861 189.305C527.86 189.044 528.77 188.519 529.495 187.784C530.22 187.049 530.733 186.132 530.98 185.129C531.203 184.205 531.104 183.232 530.699 182.372C530.037 181.156 528.958 180.222 527.66 179.742C526.363 179.262 524.935 179.268 523.642 179.761C522.854 180.065 522.528 180.38 522.483 180.323Z" fill="#7C7C7C"/>
<path d="M540.226 247.603C540.226 247.772 513.418 247.895 480.341 247.895C447.264 247.895 420.444 247.772 420.444 247.603C420.444 247.434 447.264 247.31 480.341 247.31C513.418 247.31 540.226 247.445 540.226 247.603Z" fill="#7C7C7C"/>
<path d="M445.598 265.576C445.598 265.734 440.241 265.869 433.623 265.869C427.006 265.869 421.648 265.734 421.648 265.576C421.648 265.419 427.006 265.284 433.623 265.284C440.241 265.284 445.598 265.408 445.598 265.576Z" fill="#7C7C7C"/>
<path d="M480.346 266.769C476.561 267.066 472.763 267.163 468.968 267.062C465.173 267.164 461.375 267.066 457.59 266.769C461.375 266.479 465.173 266.381 468.968 266.477C472.763 266.382 476.561 266.479 480.346 266.769Z" fill="#7C7C7C"/>
<path d="M521.076 264.372C517.491 264.669 513.891 264.766 510.294 264.665C506.698 264.766 503.098 264.669 499.513 264.372C503.099 264.082 506.698 263.985 510.294 264.079C513.891 263.985 517.49 264.082 521.076 264.372Z" fill="#7C7C7C"/>
<path d="M414.345 331.449C414.187 331.449 414.052 319.924 414.052 305.699C414.052 291.473 414.187 279.948 414.345 279.948C414.502 279.948 414.637 291.473 414.637 305.699C414.637 319.924 414.514 331.449 414.345 331.449Z" fill="#080E42"/>
<path d="M474.528 281.271H414.599V329.067H474.528V281.271Z" fill="#F2F2F2"/>
<path d="M538.994 281.271H484.963V329.067H538.994V281.271Z" fill="#F2F2F2"/>
<path d="M538.994 340.678H484.963V388.474H538.994V340.678Z" fill="#F2F2F2"/>
<path d="M473.954 340.678H414.634V388.474H473.954V340.678Z" fill="#F2F2F2"/>
<path d="M473.037 329.063C473.037 329.22 459.363 329.355 442.492 329.355C425.622 329.355 411.948 329.22 411.948 329.063C411.948 328.905 425.622 328.77 442.492 328.77C459.363 328.77 473.037 328.894 473.037 329.063Z" fill="#7C7C7C"/>
<path d="M474.247 326.666C474.078 326.666 473.954 316.739 473.954 304.506C473.954 292.272 474.078 282.345 474.247 282.345C474.416 282.345 474.539 292.261 474.539 304.506C474.539 316.75 474.404 326.666 474.247 326.666Z" fill="#7C7C7C"/>
<path d="M463.459 281.141C463.459 281.31 452.734 281.434 439.498 281.434C426.263 281.434 415.549 281.31 415.549 281.141C415.549 280.972 426.241 280.871 439.498 280.871C452.756 280.871 463.459 280.984 463.459 281.141Z" fill="#7C7C7C"/>
<path d="M485.028 326.666C484.86 326.666 484.736 317.009 484.736 305.102C484.736 293.195 484.86 283.538 485.028 283.538C485.197 283.538 485.321 293.195 485.321 305.102C485.321 317.009 485.186 326.666 485.028 326.666Z" fill="#7C7C7C"/>
<path d="M541.323 329.063C541.323 329.22 528.177 329.355 511.982 329.355C495.787 329.355 482.63 329.22 482.63 329.063C482.63 328.905 495.764 328.77 511.982 328.77C528.2 328.77 541.323 328.894 541.323 329.063Z" fill="#7C7C7C"/>
<path d="M538.701 328.455C538.543 328.455 538.408 318.326 538.408 305.699C538.408 293.071 538.543 282.942 538.701 282.942C538.858 282.942 538.993 293.127 538.993 305.699C538.993 318.27 538.87 328.455 538.701 328.455Z" fill="#7C7C7C"/>
<path d="M541.324 279.948C541.324 280.105 528.426 280.24 512.512 280.24C496.598 280.24 483.701 280.105 483.701 279.948C483.701 279.79 496.598 279.655 512.512 279.655C528.426 279.655 541.324 279.745 541.324 279.948Z" fill="#7C7C7C"/>
<path d="M414.345 390.726C414.187 390.726 414.052 379.202 414.052 364.976C414.052 350.75 414.187 339.226 414.345 339.226C414.502 339.226 414.637 350.75 414.637 364.976C414.637 379.202 414.514 390.726 414.345 390.726Z" fill="#080E42"/>
<path d="M473.037 388.34C473.037 388.498 459.363 388.633 442.492 388.633C425.622 388.633 411.948 388.498 411.948 388.34C411.948 388.182 425.622 388.047 442.492 388.047C459.363 388.047 473.037 388.171 473.037 388.34Z" fill="#080E42"/>
<path d="M474.247 385.943C474.078 385.943 473.954 376.016 473.954 363.783C473.954 351.549 474.078 341.623 474.247 341.623C474.416 341.623 474.539 351.538 474.539 363.783C474.539 376.028 474.404 385.943 474.247 385.943Z" fill="#7C7C7C"/>
<path d="M463.459 340.419C463.459 340.587 452.734 340.711 439.498 340.711C426.263 340.711 415.549 340.587 415.549 340.419C415.549 340.25 426.274 340.126 439.498 340.126C452.722 340.126 463.459 340.261 463.459 340.419Z" fill="#7C7C7C"/>
<path d="M485.028 385.943C484.86 385.943 484.736 376.287 484.736 364.379C484.736 352.472 484.86 342.816 485.028 342.816C485.197 342.816 485.321 352.472 485.321 364.379C485.321 376.287 485.186 385.943 485.028 385.943Z" fill="#7C7C7C"/>
<path d="M541.323 388.34C541.323 388.498 528.177 388.633 511.982 388.633C495.787 388.633 482.63 388.498 482.63 388.34C482.63 388.182 495.764 388.047 511.982 388.047C528.2 388.047 541.323 388.171 541.323 388.34Z" fill="#080E42"/>
<path d="M538.701 387.789C538.543 387.789 538.408 377.603 538.408 365.032C538.408 352.461 538.543 342.275 538.701 342.275C538.858 342.275 538.993 352.461 538.993 365.032C538.993 377.603 538.87 387.789 538.701 387.789Z" fill="#7C7C7C"/>
<path d="M541.324 339.225C541.324 339.383 528.426 339.518 512.512 339.518C496.598 339.518 483.701 339.383 483.701 339.225C483.701 339.068 496.598 338.933 512.512 338.933C528.426 338.933 541.324 339.068 541.324 339.225Z" fill="#7C7C7C"/>
<path d="M472.553 280.421C472.654 280.545 459.644 291.461 443.494 304.809C427.344 318.157 414.165 328.871 414.064 328.748C413.962 328.624 426.961 317.707 443.123 304.359C459.284 291.011 472.452 280.297 472.553 280.421Z" fill="#7C7C7C"/>
<path d="M474.534 325.349C474.444 325.484 461.029 316.075 444.608 304.348C428.188 292.62 414.908 282.964 415.009 282.852C415.11 282.739 428.514 292.125 444.946 303.864C461.377 315.602 474.635 325.213 474.534 325.349Z" fill="#7C7C7C"/>
<path d="M540.873 284.416C540.736 284.623 540.573 284.812 540.39 284.979L538.904 286.498C537.61 287.815 535.685 289.683 533.277 291.945C528.437 296.447 521.538 302.468 513.491 308.568C505.444 314.668 497.735 319.699 492.108 323.131C489.283 324.853 486.964 326.193 485.355 327.082L483.487 328.106C483.27 328.23 483.044 328.339 482.812 328.432C482.999 328.264 483.207 328.121 483.431 328.005L485.242 326.879C486.829 325.934 489.103 324.527 491.894 322.771C497.521 319.249 505.084 314.173 513.12 308.141C521.156 302.108 528.088 296.098 532.984 291.664C535.438 289.413 537.396 287.635 538.746 286.363L540.299 284.922C540.471 284.732 540.664 284.563 540.873 284.416Z" fill="#7C7C7C"/>
<path d="M540.288 327.881C540.079 327.742 539.886 327.579 539.714 327.397L538.149 325.945L532.409 320.566C527.536 316.064 520.694 309.953 512.86 303.538C505.027 297.123 497.667 291.642 492.276 287.781C489.62 285.891 487.437 284.349 485.872 283.223L484.128 281.985C483.921 281.847 483.725 281.693 483.542 281.524C483.775 281.614 483.995 281.735 484.195 281.884L485.996 283.01C487.56 284.011 489.789 285.508 492.512 287.41C497.971 291.203 505.376 296.65 513.232 303.065C521.087 309.48 527.863 315.648 532.691 320.239C535.099 322.49 537.013 324.426 538.318 325.754C538.937 326.384 539.444 326.88 539.804 327.296C539.981 327.477 540.143 327.673 540.288 327.881Z" fill="#7C7C7C"/>
<path d="M541.188 341.645C541.29 341.78 528.595 352.236 512.827 364.998C497.059 377.761 484.207 388.025 484.106 387.89C484.004 387.755 496.699 377.311 512.467 364.548C528.234 351.786 541.042 341.51 541.188 341.645Z" fill="#7C7C7C"/>
<path d="M541.638 388.554C541.44 388.418 541.256 388.263 541.087 388.093L539.59 386.663L534.109 381.498C529.472 377.142 522.978 371.211 515.595 364.897C508.212 358.584 501.347 353.091 496.327 349.141L490.374 344.527L488.753 343.266C488.559 343.125 488.378 342.967 488.213 342.793C488.429 342.898 488.633 343.027 488.821 343.176L490.509 344.302C491.961 345.326 494.043 346.856 496.586 348.803C501.673 352.63 508.584 358.077 515.978 364.402C523.372 370.727 529.821 376.703 534.39 381.138C536.641 383.388 538.509 385.167 539.747 386.45L541.177 387.924C541.492 388.352 541.66 388.532 541.638 388.554Z" fill="#7C7C7C"/>
<path d="M473.779 339.034C473.62 339.248 473.435 339.441 473.228 339.608L471.573 341.15C470.122 342.489 467.994 344.391 465.35 346.721C460.049 351.369 452.621 357.672 444.214 364.379C435.807 371.087 427.996 376.928 422.29 381.036C419.431 383.096 417.102 384.75 415.481 385.864L413.602 387.136C413.392 387.299 413.166 387.439 412.926 387.552C413.111 387.363 413.315 387.194 413.534 387.046L415.346 385.684L422.042 380.698C427.67 376.489 435.435 370.569 443.842 363.895C452.249 357.221 459.711 350.953 465.08 346.383L471.416 340.959L473.149 339.496C473.348 339.328 473.559 339.174 473.779 339.034Z" fill="#7C7C7C"/>
<path d="M476.886 386.146C476.666 386.015 476.459 385.864 476.267 385.696L474.579 384.323C473.116 383.107 471 381.385 468.355 379.269C463.077 375.038 455.66 369.343 447.174 363.513C438.688 357.683 430.743 352.709 424.924 349.265C422.009 347.543 419.646 346.17 418.002 345.236L416.123 344.11C415.898 343.989 415.684 343.85 415.481 343.694C415.725 343.772 415.96 343.877 416.179 344.009L418.115 345.011C419.792 345.888 422.189 347.205 425.127 348.882C431.013 352.258 439.003 357.132 447.512 363.007C456.02 368.881 463.381 374.621 468.603 378.943C471.214 381.104 473.296 382.882 474.714 384.142L476.334 385.606C476.536 385.766 476.721 385.947 476.886 386.146Z" fill="#7C7C7C"/>
<path d="M386.945 40.5874C385.489 37.0269 382.918 34.0339 379.619 32.0565C377.612 30.8494 375.371 30.0822 373.046 29.8056C372.592 29.7274 372.133 29.686 371.673 29.6818H371.245H370.649H368.319L350.312 29.5467H349.625C348.649 29.4733 347.668 29.6036 346.744 29.9294C345.486 30.4313 344.437 31.3487 343.773 32.5292C343.436 33.144 343.201 33.809 343.075 34.4987C342.992 35.0309 342.958 35.5697 342.974 36.1081V38.9442C342.998 39.5066 342.953 40.0698 342.839 40.6212C342.692 41.2713 342.418 41.8858 342.031 42.4288C341.645 42.9718 341.154 43.4324 340.588 43.7837C340.011 44.1431 339.361 44.3699 338.686 44.4477C338.202 44.4763 337.718 44.4763 337.234 44.4477H336.39L297.63 44.2226H296.628C295.949 44.2577 295.268 44.2048 294.602 44.065C293.667 43.8341 292.831 43.3095 292.216 42.5682C291.588 41.8256 291.196 40.9125 291.091 39.9459C291.051 39.2599 291.051 38.5722 291.091 37.8863C291.091 37.4811 291.091 37.076 291.091 36.6821C291.091 36.4908 291.091 36.2994 291.091 36.1081C291.164 35.1111 291.041 34.1095 290.731 33.1594C290.307 31.9534 289.521 30.9078 288.48 30.1657C287.417 29.4335 286.144 29.0698 284.856 29.1303L259.195 28.9953C256.479 28.8792 253.772 29.3857 251.281 30.4761C248.79 31.5665 246.581 33.2119 244.823 35.2865C243.032 37.4092 241.753 39.9163 241.087 42.6132C240.974 43.0654 240.887 43.5238 240.828 43.9862C240.828 44.2226 240.761 44.4589 240.716 44.7403V45.2242C240.716 45.7645 240.648 46.3497 240.637 46.8449L239.511 292.058L239.388 320.768C239.312 322.774 239.551 324.779 240.097 326.71C241.248 330.627 243.697 334.036 247.041 336.378C250.391 338.677 254.406 339.808 258.464 339.597L359.642 340.058C360.914 340.058 362.197 340.058 363.468 340.058H366.845C368.049 340.058 369.253 340.058 370.457 340.058C374.181 339.854 377.747 338.488 380.654 336.153C382.069 334.986 383.308 333.621 384.334 332.101C385.337 330.577 386.096 328.907 386.585 327.149C387.076 325.403 387.311 323.595 387.283 321.781L387.846 175.056L388.217 55.781V47.7227C388.275 45.2831 387.843 42.8566 386.945 40.5874ZM371.639 30.5259C372.055 30.5344 372.469 30.5796 372.877 30.6609C375.088 30.9622 377.209 31.7294 379.101 32.9118C382.213 34.7886 384.627 37.6298 385.977 41.0038C387.294 43.9525 387.215 47.6102 387.103 51.493C387.103 52.8998 387.046 54.3516 387.103 55.826L385.82 321.781C385.847 323.465 385.631 325.144 385.178 326.767C384.716 328.384 384.011 329.921 383.085 331.325C382.145 332.729 381.008 333.991 379.709 335.072C377.033 337.215 373.756 338.469 370.334 338.663C368.083 338.719 365.685 338.663 363.401 338.663H359.912H359.597L258.408 338.19C254.649 338.389 250.928 337.349 247.817 335.23C244.733 333.079 242.477 329.938 241.425 326.328C240.918 324.497 240.698 322.599 240.772 320.7L241.897 51.0428C241.897 50.2663 241.897 49.4897 241.897 48.7244C241.799 46.7848 241.95 44.8406 242.347 42.9396C242.941 40.3969 244.125 38.0296 245.803 36.0293C247.435 34.0914 249.49 32.5539 251.81 31.5354C254.13 30.5169 256.653 30.0444 259.184 30.1545L284.867 30.2558C285.903 30.1991 286.928 30.4881 287.782 31.0773C288.628 31.6685 289.266 32.5112 289.605 33.4858C289.86 34.2965 289.959 35.148 289.898 35.9956C289.898 36.1981 289.898 36.4007 289.898 36.6033C289.898 36.9972 289.898 37.3911 289.898 37.7287C289.853 38.4784 289.853 39.23 289.898 39.9796C290.048 41.1852 290.549 42.3201 291.338 43.2435C292.122 44.1577 293.167 44.8098 294.332 45.1117C294.899 45.2497 295.482 45.3103 296.065 45.2918L336.424 45.4268H337.245C337.752 45.4268 338.281 45.4268 338.821 45.4268C339.689 45.313 340.519 45.0052 341.252 44.5265C341.935 44.0973 342.525 43.5355 342.987 42.8744C343.449 42.2133 343.774 41.4662 343.942 40.6774C344.071 40.0483 344.124 39.4059 344.099 38.7642V35.9843C344.083 35.5061 344.113 35.0273 344.189 34.555C344.287 33.9788 344.481 33.4233 344.763 32.9118C345.309 31.9317 346.176 31.1688 347.217 30.751C348.006 30.4683 348.847 30.3607 349.682 30.4358H350.391H368.398H370.705H371.256L371.639 30.5259Z" fill="#080E42" stroke="#080E42" stroke-width="0.363025"/>
<path d="M261.977 78.3689C261.669 78.201 261.382 77.9969 261.122 77.7611C260.604 77.3447 259.85 76.7257 258.95 75.9379C257.138 74.3623 254.695 72.1001 252.118 69.4666L251.927 69.2753L252.118 69.0727L252.253 68.9151C254.729 66.1352 256.991 63.6368 258.646 61.8585C259.502 60.8538 260.431 59.9134 261.426 59.0449C260.68 60.1311 259.856 61.1617 258.961 62.1287C257.374 63.9856 255.157 66.5292 252.692 69.309L252.546 69.4666V69.0614C255.112 71.6837 257.486 73.9796 259.231 75.634C260.207 76.4823 261.125 77.396 261.977 78.3689Z" fill="#7C7C7C"/>
<path d="M354.208 71.11C354.208 71.2676 335.694 71.4026 312.859 71.4026C290.023 71.4026 271.499 71.2676 271.499 71.11C271.499 70.9524 290.012 70.8174 312.859 70.8174C335.705 70.8174 354.208 70.9412 354.208 71.11Z" fill="#7C7C7C"/>
<path d="M254.498 191.308C254.329 191.308 254.194 170.87 254.194 145.648C254.194 120.427 254.329 99.989 254.498 99.989C254.667 99.989 254.79 120.427 254.79 145.648C254.79 170.87 254.655 191.308 254.498 191.308Z" fill="#7C7C7C"/>
<path d="M302.069 191.308C302.069 191.477 291.647 191.6 278.783 191.6C265.919 191.6 255.509 191.477 255.509 191.308C255.509 191.139 265.93 191.015 278.783 191.015C291.636 191.015 302.069 191.15 302.069 191.308Z" fill="#7C7C7C"/>
<path d="M307.505 92.73C307.663 92.73 307.798 114.53 307.798 141.417C307.798 168.304 307.663 190.104 307.505 190.104C307.347 190.104 307.212 168.304 307.212 141.417C307.212 114.53 307.347 92.73 307.505 92.73Z" fill="#7C7C7C"/>
<path d="M303.273 95.7572C303.273 95.9148 292.705 96.0498 279.638 96.0498C266.572 96.0498 256.004 95.9148 256.004 95.7572C256.004 95.5996 266.561 95.4646 279.638 95.4646C292.716 95.4646 303.273 95.5884 303.273 95.7572Z" fill="#7C7C7C"/>
<path d="M316.891 215.865C316.722 215.865 316.598 195.416 316.598 170.206C316.598 144.996 316.722 124.546 316.891 124.546C317.06 124.546 317.183 144.984 317.183 170.206C317.183 195.427 317.048 215.865 316.891 215.865Z" fill="#7C7C7C"/>
<path d="M363.462 215.865C363.462 216.022 353.029 216.158 340.176 216.158C327.324 216.158 316.891 216.022 316.891 215.865C316.891 215.707 327.312 215.572 340.176 215.572C353.04 215.572 363.462 215.707 363.462 215.865Z" fill="#7C7C7C"/>
<path d="M368.898 117.287C369.067 117.287 369.191 139.087 369.191 165.963C369.191 192.838 369.067 214.649 368.898 214.649C368.729 214.649 368.605 192.861 368.605 165.963C368.605 139.064 368.741 117.287 368.898 117.287Z" fill="#7C7C7C"/>
<path d="M364.666 120.303C364.666 120.472 354.11 120.607 341.032 120.607C327.954 120.607 317.397 120.472 317.397 120.303C317.397 120.134 327.954 120.01 341.032 120.01C354.11 120.01 364.666 120.146 364.666 120.303Z" fill="#7C7C7C"/>
<path d="M316.891 327.442C316.722 327.442 316.598 307.004 316.598 281.783C316.598 256.561 316.722 236.123 316.891 236.123C317.06 236.123 317.183 256.561 317.183 281.783C317.183 307.004 317.048 327.442 316.891 327.442Z" fill="#7C7C7C"/>
<path d="M369.462 327.442C369.462 327.599 359.029 327.734 346.176 327.734C333.324 327.734 322.891 327.599 322.891 327.442C322.891 327.284 333.312 327.149 346.176 327.149C359.04 327.149 369.462 327.284 369.462 327.442Z" fill="#7C7C7C"/>
<path d="M368.898 228.864C369.067 228.864 369.191 250.664 369.191 277.551C369.191 304.438 369.067 326.238 368.898 326.238C368.729 326.238 368.605 304.438 368.605 277.551C368.605 250.664 368.741 228.864 368.898 228.864Z" fill="#7C7C7C"/>
<path d="M370.666 231.891C370.666 232.049 360.11 232.184 347.032 232.184C333.954 232.184 323.397 232.049 323.397 231.891C323.397 231.734 333.954 231.599 347.032 231.599C360.11 231.599 370.666 231.723 370.666 231.891Z" fill="#7C7C7C"/>
<path d="M255.498 306.317C255.329 306.317 255.194 285.879 255.194 260.658C255.194 235.436 255.329 214.998 255.498 214.998C255.667 214.998 255.79 235.436 255.79 260.658C255.79 285.879 255.655 306.317 255.498 306.317Z" fill="#7C7C7C"/>
<path d="M308.069 306.317C308.069 306.486 297.647 306.61 284.783 306.61C271.919 306.61 261.509 306.486 261.509 306.317C261.509 306.149 271.93 306.025 284.783 306.025C297.636 306.025 308.069 306.16 308.069 306.317Z" fill="#7C7C7C"/>
<path d="M307.505 207.717C307.663 207.717 307.798 229.517 307.798 256.404C307.798 283.291 307.663 305.091 307.505 305.091C307.347 305.091 307.212 283.291 307.212 256.404C307.212 229.517 307.347 207.717 307.505 207.717Z" fill="#7C7C7C"/>
<path d="M309.273 210.767C309.273 210.924 298.705 211.059 285.638 211.059C272.572 211.059 262.004 210.924 262.004 210.767C262.004 210.609 272.561 210.474 285.638 210.474C298.716 210.474 309.273 210.598 309.273 210.767Z" fill="#7C7C7C"/>
<path d="M270.929 116.037C270.732 114.998 270.634 113.943 270.637 112.886C270.535 110.939 270.423 108.249 270.344 105.267C270.344 104.805 270.344 104.344 270.344 103.905H270.929C270.672 106.151 270.096 108.349 269.219 110.433C268.905 111.293 268.469 112.104 267.924 112.841C269.099 109.95 269.915 106.926 270.355 103.837H270.929C270.929 104.276 270.929 104.738 270.929 105.199C271.019 108.17 271.053 110.826 271.053 112.818C271.114 113.893 271.072 114.971 270.929 116.037Z" fill="#7C7C7C"/>
<path d="M273.866 117.175C271.357 117.479 268.816 117.384 266.337 116.893C267.579 116.654 268.85 116.601 270.107 116.736C271.375 116.691 272.643 116.839 273.866 117.175Z" fill="#7C7C7C"/>
<path d="M338.782 137.736C337.832 137.921 336.868 138.019 335.901 138.029C334.111 138.141 331.601 138.265 328.743 138.378H328.023L328.529 137.86C329.002 137.387 329.474 136.881 329.936 136.363C331.004 135.267 331.717 133.875 331.984 132.368C332.091 131.771 332.05 131.157 331.864 130.58C331.677 130.003 331.351 129.48 330.915 129.059C330.61 128.785 330.255 128.575 329.868 128.44C329.482 128.304 329.073 128.247 328.664 128.271C328.356 128.316 328.051 128.384 327.752 128.474C327.752 128.474 327.989 128.17 328.63 128.046C329.081 127.975 329.542 128 329.983 128.12C330.423 128.24 330.833 128.453 331.185 128.744C331.705 129.191 332.101 129.765 332.335 130.409C332.569 131.054 332.635 131.747 332.524 132.424C332.284 134.051 331.54 135.563 330.397 136.746C329.913 137.286 329.429 137.792 328.957 138.265L328.743 137.77C331.59 137.691 334.1 137.635 335.901 137.624C336.863 137.576 337.827 137.613 338.782 137.736Z" fill="#7C7C7C"/>
<path d="M265.627 231.475C265.945 231.502 266.261 231.547 266.573 231.61C267.413 231.688 268.257 231.52 269.004 231.126C269.553 230.861 270.031 230.469 270.397 229.981C270.763 229.493 271.007 228.925 271.108 228.324C271.194 227.586 271.084 226.84 270.79 226.158C270.495 225.476 270.027 224.884 269.431 224.441C269.174 224.257 268.894 224.106 268.599 223.991L267.867 223.687L268.599 223.439C269.25 223.245 269.821 222.845 270.227 222.3C270.633 221.754 270.851 221.092 270.85 220.412C270.834 219.868 270.639 219.345 270.295 218.923C269.951 218.502 269.477 218.206 268.948 218.082C268.581 218.026 268.207 218.056 267.855 218.172C267.503 218.287 267.183 218.484 266.922 218.746C266.539 219.129 266.472 219.444 266.415 219.422C266.359 219.399 266.415 219.073 266.753 218.6C267.023 218.273 267.37 218.019 267.763 217.86C268.156 217.701 268.582 217.642 269.004 217.688C269.644 217.802 270.227 218.128 270.658 218.614C271.089 219.1 271.343 219.718 271.378 220.367C271.407 221.166 271.174 221.952 270.715 222.606C270.256 223.26 269.596 223.746 268.835 223.991V223.473C269.184 223.605 269.513 223.783 269.814 224.002C270.497 224.504 271.031 225.181 271.36 225.962C271.689 226.742 271.8 227.598 271.682 228.436C271.561 229.115 271.273 229.752 270.845 230.292C270.417 230.832 269.861 231.258 269.229 231.531C268.406 231.924 267.479 232.042 266.584 231.869C266.235 231.829 265.904 231.692 265.627 231.475Z" fill="#7C7C7C"/>
<path d="M334.584 247.828C334.584 247.828 334.584 248.053 334.336 248.357C333.985 248.77 333.512 249.061 332.986 249.19C332.199 249.397 331.364 249.313 330.634 248.953C329.747 248.466 329.076 247.662 328.754 246.702C328.422 245.792 328.314 244.816 328.439 243.855C328.543 243.085 328.736 242.33 329.013 241.604C329.209 240.929 329.521 240.293 329.936 239.725C329.828 240.409 329.651 241.08 329.407 241.728C328.858 243.254 328.823 244.918 329.306 246.466C329.591 247.277 330.148 247.965 330.881 248.413C331.5 248.737 332.209 248.844 332.896 248.717C333.535 248.597 334.123 248.287 334.584 247.828Z" fill="#7C7C7C"/>
<path d="M334.123 262.695C333.892 259.174 333.854 255.642 334.01 252.116C333.977 248.584 334.135 245.052 334.483 241.537C334.714 245.062 334.751 248.598 334.596 252.127C334.636 255.656 334.478 259.184 334.123 262.695Z" fill="#7C7C7C"/>
<path d="M222.332 103.241C220.884 99.679 218.311 96.6874 215.006 94.7217C213.002 93.5165 210.766 92.7493 208.444 92.4708C207.988 92.384 207.524 92.3388 207.06 92.3358H206.643H206.047H203.706L185.699 92.1894H185.012C184.039 92.108 183.06 92.2386 182.142 92.5721C180.876 93.0601 179.823 93.9812 179.171 95.1719C178.823 95.7824 178.583 96.4488 178.462 97.1414C178.378 97.6736 178.345 98.2124 178.361 98.7508V101.576C178.383 102.141 178.341 102.707 178.237 103.264C178.09 103.914 177.815 104.528 177.429 105.071C177.043 105.614 176.552 106.075 175.986 106.426C175.409 106.784 174.759 107.011 174.084 107.09C173.623 107.09 173.15 107.09 172.632 107.09H171.788L133.028 106.877C132.701 106.877 132.364 106.877 132.026 106.877C131.347 106.915 130.666 106.866 130 106.73C129.07 106.489 128.236 105.967 127.614 105.233C126.991 104.488 126.6 103.576 126.489 102.611C126.449 101.921 126.449 101.23 126.489 100.54C126.489 100.146 126.489 99.7412 126.489 99.3473V98.7621C126.561 97.7651 126.439 96.7636 126.129 95.8134C125.716 94.5953 124.919 93.544 123.858 92.8174C122.796 92.0909 121.528 91.7284 120.243 91.7843L94.5825 91.6492C91.8669 91.5371 89.1616 92.0466 86.6729 93.1388C84.1841 94.2311 81.9777 95.8772 80.2217 97.9517C78.4098 100.074 77.1187 102.591 76.4515 105.301C76.3391 105.753 76.2527 106.212 76.1926 106.674C76.1926 106.91 76.1251 107.147 76.0801 107.439V107.923C76.0801 108.463 76.0126 109.049 76.0013 109.544L74.7408 383.433C74.6757 385.439 74.9186 387.443 75.4611 389.376C76.6064 393.295 79.0564 396.706 82.4051 399.043C85.7557 401.341 89.7713 402.469 93.8284 402.251L194.995 402.712H198.822H202.198C203.402 402.712 204.618 402.712 205.822 402.712C209.546 402.503 213.112 401.133 216.018 398.796C217.436 397.631 218.676 396.266 219.699 394.744C220.697 393.222 221.456 391.555 221.95 389.803C222.44 388.057 222.675 386.249 222.647 384.435L223.3 215.224L223.638 110.388C223.685 107.942 223.241 105.512 222.332 103.241ZM207.06 93.1798C207.476 93.1895 207.89 93.2347 208.298 93.3149C210.503 93.6236 212.619 94.3903 214.51 95.5658C217.621 97.4476 220.037 100.287 221.398 103.658C222.704 106.606 222.636 110.275 222.524 114.158C222.524 115.554 222.467 117.006 222.524 118.48L221.241 384.412C221.273 386.093 221.057 387.769 220.599 389.387C220.142 391.009 219.436 392.551 218.506 393.956C217.568 395.359 216.431 396.618 215.129 397.693C212.456 399.841 209.178 401.101 205.754 401.294C203.503 401.35 201.14 401.294 198.867 401.294H195.029L93.8397 400.81C90.0766 401.04 86.3427 400.023 83.2154 397.918C80.1196 395.734 77.8639 392.557 76.8229 388.914C76.3268 387.116 76.1067 385.253 76.1701 383.388L77.2956 113.641C77.2956 112.864 77.2956 112.087 77.2956 111.311C77.1887 109.372 77.3362 107.427 77.7345 105.526C78.3303 102.984 79.5137 100.617 81.1896 98.6158C82.8246 96.6818 84.8806 95.1479 87.2002 94.1315C89.5197 93.1151 92.0411 92.6433 94.5712 92.7522L120.254 92.8535C121.292 92.7969 122.319 93.0815 123.18 93.6638C124.017 94.2615 124.65 95.1024 124.992 96.0722C125.251 96.882 125.351 97.7344 125.285 98.582V99.201C125.285 99.5949 125.285 99.9776 125.285 100.326C125.239 101.076 125.239 101.828 125.285 102.577C125.434 103.785 125.94 104.921 126.737 105.841C127.508 106.769 128.558 107.424 129.73 107.709C130.293 107.849 130.873 107.909 131.452 107.889L171.811 108.036C172.092 108.036 172.362 108.036 172.644 108.036C173.168 108.063 173.694 108.063 174.219 108.036C175.058 107.94 175.865 107.66 176.583 107.214C177.268 106.784 177.861 106.221 178.325 105.558C178.789 104.895 179.115 104.145 179.284 103.354C179.404 102.724 179.453 102.082 179.43 101.441V98.6158C179.41 98.1379 179.436 97.6592 179.509 97.1864C179.609 96.6093 179.807 96.0536 180.094 95.5433C180.636 94.567 181.499 93.8077 182.536 93.3937C183.33 93.1137 184.173 93.0025 185.012 93.0673H185.71H203.717C205.102 93.0673 205.878 93.0673 205.968 93.0673H206.52C206.711 93.1686 206.869 93.1686 207.06 93.1798Z" fill="#080E42" stroke="#080E42" stroke-width="0.363025"/>
<path d="M89.81 354.959C89.6412 354.959 88.572 305.147 87.4128 243.697C86.2536 182.248 85.4545 132.413 85.6121 132.413C85.7697 132.413 86.8501 182.214 87.998 243.686C89.146 305.158 89.9676 354.959 89.81 354.959Z" fill="#7C7C7C"/>
<path d="M202.356 129.431C202.356 129.6 175.604 129.724 142.617 129.724C109.63 129.724 82.8667 129.6 82.8667 129.431C82.8667 129.262 109.607 129.138 142.617 129.138C175.626 129.138 202.356 129.273 202.356 129.431Z" fill="#7C7C7C"/>
<path d="M216.547 366.169C216.378 366.169 216.243 310.83 216.243 242.583C216.243 174.336 216.378 118.975 216.547 118.975C216.716 118.975 216.84 174.302 216.84 242.583C216.84 310.864 216.705 366.169 216.547 366.169Z" fill="#7C7C7C"/>
<path d="M218.787 366.169C218.787 366.326 189.356 366.461 153.072 366.461C116.787 366.461 87.3457 366.326 87.3457 366.169C87.3457 366.011 116.765 365.876 153.072 365.876C189.379 365.876 218.787 366 218.787 366.169Z" fill="#7C7C7C"/>
<path d="M204.527 137.41C204.714 137.432 204.896 137.481 205.068 137.556C205.287 137.618 205.498 137.705 205.698 137.815C205.983 137.948 206.257 138.103 206.519 138.277C207.928 139.24 209.038 140.578 209.727 142.139C210.415 143.7 210.653 145.422 210.413 147.111C210.155 148.711 209.417 150.195 208.298 151.366C207.076 152.66 205.517 153.588 203.796 154.044C201.947 154.595 199.967 154.506 198.174 153.794C196.381 153.081 194.881 151.786 193.914 150.116C192.962 148.612 192.437 146.877 192.395 145.097C192.324 143.487 192.714 141.889 193.52 140.494C194.228 139.293 195.188 138.26 196.334 137.466C197.981 136.302 199.944 135.666 201.961 135.643C202.272 135.613 202.585 135.613 202.895 135.643C203.123 135.659 203.349 135.693 203.571 135.744C203.755 135.775 203.936 135.824 204.111 135.891C204.111 135.958 203.334 135.756 201.961 135.823C200.022 135.933 198.156 136.606 196.593 137.759C195.517 138.54 194.617 139.536 193.948 140.685C193.201 142.011 192.843 143.52 192.913 145.041C192.963 146.72 193.468 148.354 194.376 149.768C195.321 151.284 196.719 152.465 198.371 153.144C200.052 153.785 201.894 153.872 203.627 153.391C205.247 153.003 206.727 152.174 207.904 150.994C208.967 149.91 209.678 148.529 209.941 147.033C210.145 145.722 210.045 144.382 209.648 143.116C209.099 141.251 207.952 139.618 206.384 138.468C205.793 138.069 205.172 137.716 204.527 137.41Z" fill="#7C7C7C"/>
<path d="M196.75 150.319C197.616 148.468 198.656 146.705 199.856 145.052C200.891 143.29 202.093 141.631 203.446 140.1C202.578 141.948 201.538 143.712 200.34 145.367C199.305 147.129 198.103 148.787 196.75 150.319Z" fill="#7C7C7C"/>
<path d="M207.353 151.152C205.284 149.781 203.324 148.254 201.489 146.582C199.536 145.057 197.703 143.382 196.008 141.574C198.083 142.932 200.044 144.456 201.872 146.132C203.824 147.663 205.656 149.341 207.353 151.152Z" fill="#7C7C7C"/>
<path d="M107.964 263.37C107.806 263.37 107.671 245.048 107.671 222.46C107.671 199.872 107.806 181.539 107.964 181.539C108.121 181.539 108.256 199.85 108.256 222.46C108.256 245.07 108.121 263.37 107.964 263.37Z" fill="#7C7C7C"/>
<path d="M198.247 262.639C198.247 262.796 178.113 262.931 153.285 262.931C128.458 262.931 108.335 262.796 108.335 262.639C108.335 262.481 128.458 262.346 153.285 262.346C178.113 262.346 198.247 262.481 198.247 262.639Z" fill="#7C7C7C"/>
<path d="M197.145 186.671C197.302 186.671 197.437 203.553 197.437 224.475C197.437 245.397 197.302 262.279 197.145 262.279C196.987 262.279 196.852 245.397 196.852 224.475C196.852 203.553 196.976 186.671 197.145 186.671Z" fill="#7C7C7C"/>
<path d="M198.247 183.745C198.247 183.902 177.787 184.037 152.554 184.037C127.322 184.037 106.861 183.902 106.861 183.745C106.861 183.587 127.322 183.441 152.554 183.441C177.787 183.441 198.247 183.576 198.247 183.745Z" fill="#7C7C7C"/>
<path d="M151.89 244.114C151.765 243.95 151.659 243.772 151.575 243.585L150.742 242.009C150.022 240.647 148.975 238.633 147.602 236.281C146.229 233.928 144.529 231.092 142.492 228.065C141.502 226.568 140.376 224.959 139.251 223.473C139 223.088 138.647 222.779 138.233 222.581C137.818 222.382 137.356 222.302 136.899 222.347C135.946 222.6 135.088 223.129 134.434 223.867C128.694 229.989 123.81 235.864 120.355 240.163L116.303 245.284L115.178 246.68C115.056 246.848 114.917 247.003 114.761 247.141C114.84 246.95 114.946 246.772 115.076 246.612L116.101 245.149C116.99 243.889 118.351 242.088 120.006 239.904C123.382 235.526 128.21 229.618 133.995 223.439C134.741 222.621 135.712 222.042 136.786 221.774C137.352 221.68 137.934 221.775 138.441 222.044C138.914 222.304 139.331 222.656 139.667 223.079C140.894 224.7 141.918 226.275 142.965 227.806C144.98 230.856 146.645 233.692 147.984 236.112C149.324 238.531 150.314 240.546 150.967 241.942C151.293 242.639 151.541 243.191 151.698 243.562C151.786 243.737 151.85 243.922 151.89 244.114Z" fill="#7C7C7C"/>
<path d="M190.368 232.398C190.211 232.271 190.068 232.127 189.941 231.97L188.815 230.698L184.662 225.904C181.128 221.762 176.312 216.113 170.932 209.776H171.36L169.638 211.555L153.566 227.795L148.659 232.668L147.309 233.973C146.994 234.277 146.814 234.424 146.802 234.401C146.923 234.218 147.062 234.048 147.219 233.895L148.502 232.477L153.274 227.468C157.404 223.237 163.009 217.474 169.199 211.104L170.921 209.349L171.146 209.124L171.348 209.371L184.944 225.623L188.962 230.518L190.087 231.869C190.206 232.03 190.301 232.209 190.368 232.398Z" fill="#7C7C7C"/>
<path d="M149.447 199.366C149.447 199.366 149.537 199.287 149.729 199.186C150.015 199.04 150.323 198.941 150.64 198.893C151.806 198.7 153.003 198.928 154.017 199.535C154.744 199.952 155.353 200.548 155.784 201.268C156.283 202.103 156.489 203.082 156.369 204.048C156.249 205.155 155.789 206.198 155.051 207.033C154.313 207.868 153.334 208.453 152.25 208.707C151.15 208.865 150.028 208.684 149.033 208.19C148.038 207.695 147.217 206.91 146.679 205.939C146.194 205.093 145.982 204.118 146.071 203.147C146.162 202.32 146.439 201.523 146.881 200.818C147.507 199.788 148.457 198.996 149.582 198.567C149.881 198.447 150.196 198.371 150.516 198.342C150.73 198.342 150.843 198.342 150.843 198.342C150.843 198.342 150.393 198.443 149.717 198.769C148.697 199.255 147.849 200.04 147.286 201.02C146.898 201.68 146.664 202.419 146.6 203.181C146.543 204.047 146.747 204.909 147.185 205.657C147.679 206.518 148.418 207.212 149.308 207.651C150.198 208.09 151.199 208.254 152.182 208.122C153.147 207.89 154.018 207.369 154.68 206.629C155.341 205.889 155.762 204.965 155.885 203.98C155.999 203.122 155.833 202.25 155.412 201.493C155.041 200.843 154.515 200.294 153.882 199.895C152.939 199.281 151.816 199.007 150.697 199.118C149.886 199.208 149.47 199.422 149.447 199.366Z" fill="#7C7C7C"/>
<path d="M186.723 283.831C186.487 283.894 186.246 283.932 186.002 283.944L183.954 284.146L176.402 284.788C173.195 285.024 169.424 285.395 165.148 285.621C164.044 285.656 162.939 285.58 161.85 285.395C160.717 285.169 159.619 284.79 158.586 284.27C157.553 283.747 156.489 283.284 155.401 282.886C154.322 282.464 153.132 282.42 152.025 282.762C149.774 283.527 148.48 285.789 146.285 286.87C145.745 287.137 145.156 287.29 144.554 287.321C143.952 287.352 143.35 287.26 142.785 287.05C141.759 286.631 140.791 286.083 139.904 285.418C139.093 284.812 138.217 284.299 137.293 283.887C136.433 283.526 135.484 283.432 134.569 283.617C132.913 284.091 131.339 284.811 129.899 285.756C128.648 286.528 127.215 286.955 125.746 286.994C125.18 286.964 124.628 286.806 124.131 286.534C123.634 286.261 123.205 285.879 122.876 285.418C122.655 285.136 122.495 284.812 122.404 284.465C122.313 284.119 122.293 283.758 122.347 283.403C122.384 283.162 122.481 282.934 122.628 282.739C122.628 282.739 122.527 282.964 122.459 283.426C122.415 284.095 122.628 284.755 123.056 285.272C123.373 285.691 123.78 286.033 124.248 286.273C124.716 286.513 125.232 286.644 125.757 286.656C127.176 286.595 128.553 286.152 129.741 285.373C131.208 284.378 132.822 283.618 134.524 283.122C135.526 282.911 136.567 283.001 137.518 283.381C138.485 283.798 139.403 284.323 140.253 284.945C141.103 285.577 142.029 286.099 143.01 286.498C143.506 286.683 144.035 286.763 144.564 286.734C145.093 286.705 145.61 286.568 146.083 286.33C148.075 285.373 149.38 283.122 151.879 282.222C153.099 281.844 154.411 281.888 155.604 282.345C156.714 282.755 157.8 283.229 158.856 283.764C159.844 284.279 160.896 284.657 161.985 284.889C163.033 285.073 164.096 285.153 165.159 285.125C169.357 284.934 173.183 284.608 176.413 284.428L183.976 283.966L186.047 283.865C186.271 283.831 186.497 283.82 186.723 283.831Z" fill="#7C7C7C"/>
<path d="M192.429 309.537C192.429 309.694 173.442 309.829 150.022 309.829C126.601 309.829 107.604 309.694 107.604 309.537C107.604 309.379 126.59 309.244 150.022 309.244C173.454 309.244 192.429 309.368 192.429 309.537Z" fill="#7C7C7C"/>
<path d="M196.233 317.448C196.233 317.605 176.74 317.741 152.712 317.741C128.683 317.741 109.179 317.605 109.179 317.448C109.179 317.29 128.672 317.155 152.712 317.155C176.751 317.155 196.233 317.29 196.233 317.448Z" fill="#7C7C7C"/>
<path d="M196.548 327.262C196.548 327.42 177.134 327.555 153.185 327.555C129.235 327.555 109.821 327.42 109.821 327.262C109.821 327.104 129.224 327.014 153.185 327.014C177.146 327.014 196.548 327.093 196.548 327.262Z" fill="#7C7C7C"/>
<path d="M138.52 354.34C137.783 354.678 137.181 355.253 136.809 355.972C136.625 356.349 136.523 356.76 136.509 357.179C136.496 357.598 136.571 358.015 136.73 358.403C136.979 358.836 137.341 359.194 137.777 359.438C138.213 359.683 138.707 359.804 139.207 359.791C139.707 359.777 140.193 359.628 140.615 359.36C141.037 359.092 141.378 358.714 141.603 358.268C141.743 357.871 141.797 357.449 141.76 357.029C141.723 356.61 141.597 356.203 141.389 355.837C140.979 355.143 140.349 354.605 139.6 354.306C139.833 354.263 140.073 354.295 140.286 354.396C140.895 354.64 141.409 355.074 141.75 355.634C142.016 356.049 142.187 356.517 142.249 357.006C142.311 357.495 142.264 357.991 142.11 358.459C141.854 359.015 141.449 359.488 140.938 359.825C140.428 360.162 139.833 360.35 139.221 360.366C138.61 360.383 138.006 360.227 137.478 359.918C136.95 359.609 136.52 359.158 136.235 358.617C136.056 358.158 135.982 357.665 136.019 357.174C136.056 356.683 136.203 356.207 136.449 355.781C136.755 355.203 137.241 354.74 137.833 354.464C138.261 354.295 138.52 354.306 138.52 354.34Z" fill="#7C7C7C"/>
<path d="M148.48 353.789C148.733 353.738 148.996 353.766 149.234 353.868C149.899 354.114 150.47 354.563 150.866 355.151C151.165 355.6 151.358 356.11 151.43 356.645C151.502 357.179 151.452 357.723 151.282 358.235C151.001 358.84 150.553 359.351 149.99 359.71C149.428 360.069 148.775 360.259 148.108 360.259C147.441 360.259 146.788 360.069 146.226 359.71C145.664 359.351 145.216 358.84 144.934 358.235C144.768 357.721 144.721 357.177 144.797 356.642C144.873 356.108 145.07 355.598 145.373 355.151C145.753 354.548 146.324 354.089 146.994 353.846C147.234 353.736 147.502 353.709 147.759 353.767C147.759 353.767 147.5 353.857 147.084 354.059C146.509 354.352 146.034 354.811 145.722 355.376C145.483 355.773 145.335 356.218 145.286 356.679C145.237 357.139 145.29 357.605 145.441 358.043C145.692 358.535 146.073 358.948 146.544 359.237C147.015 359.525 147.556 359.678 148.108 359.678C148.66 359.678 149.202 359.525 149.672 359.237C150.143 358.948 150.525 358.535 150.776 358.043C150.93 357.607 150.986 357.141 150.939 356.68C150.893 356.218 150.745 355.773 150.505 355.376C150.193 354.808 149.719 354.346 149.144 354.048C148.738 353.879 148.468 353.846 148.48 353.789Z" fill="#7C7C7C"/>
<path d="M157.011 354.295C156.288 354.629 155.695 355.19 155.323 355.894C155.136 356.261 155.029 356.663 155.01 357.074C154.99 357.486 155.059 357.897 155.21 358.28C155.427 358.726 155.769 359.098 156.195 359.352C156.621 359.606 157.112 359.73 157.607 359.709C158.103 359.731 158.594 359.608 159.022 359.356C159.449 359.105 159.794 358.735 160.016 358.291C160.165 357.905 160.232 357.493 160.212 357.08C160.193 356.668 160.088 356.263 159.903 355.894C159.531 355.19 158.938 354.629 158.215 354.295C158.448 354.265 158.684 354.309 158.89 354.419C159.477 354.688 159.962 355.137 160.275 355.702C160.517 356.122 160.663 356.589 160.704 357.071C160.745 357.554 160.679 358.039 160.511 358.493C160.245 359.035 159.832 359.491 159.32 359.809C158.807 360.128 158.216 360.297 157.613 360.297C157.01 360.297 156.418 360.128 155.906 359.809C155.394 359.491 154.981 359.035 154.715 358.493C154.547 358.039 154.481 357.554 154.522 357.071C154.563 356.589 154.709 356.122 154.951 355.702C155.264 355.137 155.749 354.688 156.336 354.419C156.542 354.309 156.778 354.265 157.011 354.295Z" fill="#7C7C7C"/>
<g filter="url(#filter0_d_129_386)">
<rect x="506.598" y="305.698" width="102.781" height="48.8881" rx="24.4441" fill="#080E42"/>
</g>
<rect x="495.233" y="14.3928" width="72.7696" height="3.97366" rx="1.98683" fill="#080E42"/>
<rect x="495.233" y="28.0801" width="72.7696" height="3.97366" rx="1.98683" fill="#080E42"/>
<rect x="495.233" y="41.7671" width="72.7696" height="3.97366" rx="1.98683" fill="#080E42"/>
<rect x="495.233" y="55.4541" width="72.7696" height="3.97366" rx="1.98683" fill="#080E42"/>
<rect x="539.927" y="53.4016" width="8.51354" height="8.51354" rx="4.25677" fill="#080E42"/>
<rect x="518.171" y="39.7146" width="8.51354" height="8.51354" rx="4.25677" fill="#080E42"/>
<rect x="544.574" y="26.0273" width="8.51354" height="8.51354" rx="4.25677" fill="#080E42"/>
<rect x="558.708" y="11.5635" width="8.51354" height="8.51354" rx="4.25677" fill="#080E42"/>
<rect x="562.872" y="309.387" width="41.5117" height="41.5117" rx="20.7559" fill="white"/>
<g filter="url(#filter1_d_129_386)">
<path d="M142.813 383.044C144.602 383.044 146.059 384.495 145.973 386.281C145.279 400.646 139.984 414.44 130.824 425.601C120.978 437.599 107.277 445.811 92.0553 448.838C76.8335 451.866 61.0327 449.522 47.3452 442.206C33.6577 434.89 22.9304 423.055 16.9912 408.716C11.0519 394.377 10.2681 378.423 14.7733 363.571C19.2786 348.719 28.7941 335.889 41.6986 327.267C54.603 318.644 70.098 314.763 85.5433 316.284C99.9122 317.699 113.411 323.709 124.059 333.375C125.383 334.578 125.378 336.634 124.113 337.899L112.039 349.973C110.775 351.237 108.732 351.227 107.377 350.06C100.606 344.228 92.1803 340.603 83.2349 339.722C73.212 338.735 63.1569 341.253 54.7829 346.849C46.4089 352.444 40.234 360.77 37.3104 370.408C34.3869 380.045 34.8955 390.398 38.7496 399.703C42.6038 409.008 49.565 416.688 58.4471 421.436C67.3293 426.184 77.5828 427.705 87.4607 425.74C97.3386 423.775 106.23 418.446 112.619 410.661C118.321 403.712 121.716 395.191 122.38 386.28C122.513 384.496 123.95 383.044 125.738 383.044H142.813Z" fill="#080E42"/>
</g>
<g filter="url(#filter2_d_129_386)">
<rect x="4.30811" y="129.723" width="149.45" height="65.9285" rx="11.6168" fill="#080E42"/>
</g>
<path d="M50.3982 151.321H53.5466V168.536C53.5466 170.313 53.1277 171.9 52.2898 173.297C51.4603 174.685 50.2881 175.781 48.7731 176.585C47.2582 177.38 45.4808 177.778 43.4411 177.778C41.4013 177.778 39.624 177.38 38.109 176.585C36.594 175.781 35.4175 174.685 34.5796 173.297C33.7502 171.9 33.3355 170.313 33.3355 168.536V151.321H36.484V168.282C36.484 169.551 36.7633 170.681 37.3219 171.672C37.8805 172.653 38.676 173.428 39.7086 173.995C40.7496 174.553 41.9938 174.833 43.4411 174.833C44.8883 174.833 46.1325 174.553 47.1735 173.995C48.2145 173.428 49.0101 172.653 49.5603 171.672C50.1189 170.681 50.3982 169.551 50.3982 168.282V151.321ZM61.3575 151.321L68.0607 162.137H68.2638L74.967 151.321H78.6741L70.4982 164.321L78.6741 177.321H74.967L68.2638 166.708H68.0607L61.3575 177.321H57.6504L66.0294 164.321L57.6504 151.321H61.3575ZM91.5568 150.102L83.1778 181.231H80.4356L88.8146 150.102H91.5568ZM112.577 151.321H115.726V168.536C115.726 170.313 115.307 171.9 114.469 173.297C113.639 174.685 112.467 175.781 110.952 176.585C109.437 177.38 107.66 177.778 105.62 177.778C103.58 177.778 101.803 177.38 100.288 176.585C98.7731 175.781 97.5967 174.685 96.7588 173.297C95.9293 171.9 95.5146 170.313 95.5146 168.536V151.321H98.6631V168.282C98.6631 169.551 98.9424 170.681 99.501 171.672C100.06 172.653 100.855 173.428 101.888 173.995C102.929 174.553 104.173 174.833 105.62 174.833C107.067 174.833 108.312 174.553 109.353 173.995C110.394 173.428 111.189 172.653 111.739 171.672C112.298 170.681 112.577 169.551 112.577 168.282V151.321ZM125.162 151.321V177.321H122.013V151.321H125.162Z" fill="white"/>
<defs>
<filter id="filter0_d_129_386" x="502.968" y="301.342" width="120.206" height="66.3134" filterUnits="userSpaceOnUse" color-interpolation-filters="sRGB">
<feFlood flood-opacity="0" result="BackgroundImageFix"/>
<feColorMatrix in="SourceAlpha" type="matrix" values="0 0 0 0 0 0 0 0 0 0 0 0 0 0 0 0 0 0 127 0" result="hardAlpha"/>
<feOffset dx="5.08234" dy="4.35629"/>
<feGaussianBlur stdDeviation="4.35629"/>
<feComposite in2="hardAlpha" operator="out"/>
<feColorMatrix type="matrix" values="0 0 0 0 0 0 0 0 0 0 0 0 0 0 0 0 0 0 0.25 0"/>
<feBlend mode="normal" in2="BackgroundImageFix" result="effect1_dropShadow_129_386"/>
<feBlend mode="normal" in="SourceGraphic" in2="effect1_dropShadow_129_386" result="shape"/>
</filter>
<filter id="filter1_d_129_386" x="6.48798" y="309.485" width="159.996" height="160.071" filterUnits="userSpaceOnUse" color-interpolation-filters="sRGB">
<feFlood flood-opacity="0" result="BackgroundImageFix"/>
<feColorMatrix in="SourceAlpha" type="matrix" values="0 0 0 0 0 0 0 0 0 0 0 0 0 0 0 0 0 0 127 0" result="hardAlpha"/>
<feOffset dx="7.5555" dy="6.47614"/>
<feGaussianBlur stdDeviation="6.47614"/>
<feComposite in2="hardAlpha" operator="out"/>
<feColorMatrix type="matrix" values="0 0 0 0 0 0 0 0 0 0 0 0 0 0 0 0 0 0 0.25 0"/>
<feBlend mode="normal" in2="BackgroundImageFix" result="effect1_dropShadow_129_386"/>
<feBlend mode="normal" in="SourceGraphic" in2="effect1_dropShadow_129_386" result="shape"/>
</filter>
<filter id="filter2_d_129_386" x="0.67786" y="125.367" width="166.875" height="83.3536" filterUnits="userSpaceOnUse" color-interpolation-filters="sRGB">
<feFlood flood-opacity="0" result="BackgroundImageFix"/>
<feColorMatrix in="SourceAlpha" type="matrix" values="0 0 0 0 0 0 0 0 0 0 0 0 0 0 0 0 0 0 127 0" result="hardAlpha"/>
<feOffset dx="5.08234" dy="4.35629"/>
<feGaussianBlur stdDeviation="4.35629"/>
<feComposite in2="hardAlpha" operator="out"/>
<feColorMatrix type="matrix" values="0 0 0 0 0 0 0 0 0 0 0 0 0 0 0 0 0 0 0.25 0"/>
<feBlend mode="normal" in2="BackgroundImageFix" result="effect1_dropShadow_129_386"/>
<feBlend mode="normal" in="SourceGraphic" in2="effect1_dropShadow_129_386" result="shape"/>
</filter>
</defs>
</svg>
